<?xml version="1.0" encoding="iso-8859-1"?>
<!-- Generator: Adobe Illustrator 18.0.0, SVG Export Plug-In . SVG Version: 6.00 Build 0)  -->
<!DOCTYPE svg PUBLIC "-//W3C//DTD SVG 1.1//EN" "http://www.w3.org/Graphics/SVG/1.1/DTD/svg11.dtd">
<svg version="1.1" id="Capa_1" xmlns="http://www.w3.org/2000/svg" xmlns:xlink="http://www.w3.org/1999/xlink" x="0px" y="0px"
	 viewBox="0 0 314.652 314.652" style="enable-background:new 0 0 314.652 314.652;" xml:space="preserve">
<g>
	<path d="M157.326,0C70.576,0,0,70.576,0,157.326s70.576,157.326,157.326,157.326s157.326-70.576,157.326-157.326
		S244.076,0,157.326,0z M157.326,296.652C80.501,296.652,18,234.15,18,157.326S80.501,18,157.326,18s139.326,62.502,139.326,139.326
		S234.151,296.652,157.326,296.652z"/>
	<path d="M112.326,121.119c-4.971,0-9,4.029-9,9v74.414c0,4.971,4.029,9,9,9s9-4.029,9-9v-74.414
		C121.326,125.148,117.297,121.119,112.326,121.119z"/>
	<path d="M112.326,79.116c-2.37,0-4.69,0.96-6.36,2.64c-1.68,1.67-2.64,3.99-2.64,6.36s0.96,4.689,2.64,6.37
		c1.67,1.67,3.99,2.63,6.36,2.63c2.37,0,4.69-0.96,6.36-2.63c1.68-1.681,2.64-4,2.64-6.37s-0.96-4.69-2.64-6.36
		C117.016,80.076,114.696,79.116,112.326,79.116z"/>
	<path d="M190.076,128.119c-9.42,0-18.139,3.036-25.25,8.169v-6.169c0-4.971-4.029-9-9-9s-9,4.029-9,9v74.414c0,4.971,4.029,9,9,9
		s9-4.029,9-9v-33.164c0-13.923,11.327-25.25,25.25-25.25s25.25,11.327,25.25,25.25v35.164c0,4.971,4.029,9,9,9s9-4.029,9-9v-35.164
		C233.326,147.521,213.924,128.119,190.076,128.119z"/>
</g>
<g>
</g>
<g>
</g>
<g>
</g>
<g>
</g>
<g>
</g>
<g>
</g>
<g>
</g>
<g>
</g>
<g>
</g>
<g>
</g>
<g>
</g>
<g>
</g>
<g>
</g>
<g>
</g>
<g>
</g>
</svg>
