<svg width="351" height="367" viewBox="0 0 351 367" fill="none" xmlns="http://www.w3.org/2000/svg">
<g clip-path="url(#clip0_57_236)">
<path d="M35.216 35.0961C41.5648 35.0961 46.7115 29.9625 46.7115 23.6298C46.7115 17.2972 41.5648 12.1636 35.216 12.1636C28.8672 12.1636 23.7205 17.2972 23.7205 23.6298C23.7205 29.9625 28.8672 35.0961 35.216 35.0961Z" fill="#989898"/>
<path d="M60.9456 18.2007C60.6205 17.1401 59.9918 16.1974 59.1367 15.4885C58.2816 14.7797 57.2374 14.3356 56.1326 14.2109C56.1076 14.2074 56.0839 14.212 56.059 14.2104C56.0269 14.2006 55.9941 14.1931 55.9609 14.1879C50.7038 13.5102 44.6354 16.0181 42.4444 20.9893C41.9098 20.2622 41.2058 19.6759 40.3932 19.2809C39.5806 18.886 38.6838 18.6942 37.7803 18.7223C36.6153 18.7997 35.5025 19.2334 34.5934 19.9643C33.6844 20.6952 33.0232 21.6877 32.6999 22.8068C32.6655 22.9438 32.6757 23.0881 32.7291 23.2189C32.7824 23.3497 32.8762 23.4602 32.9967 23.5343C33.3439 23.8278 33.7553 24.0361 34.1978 24.1424C35.1525 24.3441 36.1106 24.5289 37.0721 24.6968C38.9483 25.0243 40.8343 25.2891 42.7301 25.4912C46.5785 25.9025 50.4507 26.0485 54.3192 25.9281C55.6076 25.888 56.8502 25.8454 58.0307 25.2782C58.8895 24.8551 59.6232 24.2164 60.1598 23.425C60.6653 22.6642 60.9976 21.8023 61.1334 20.8997C61.2691 19.9972 61.205 19.0759 60.9456 18.2007Z" fill="#F0F0F0"/>
<path d="M37.053 33.4892C36.728 32.4287 36.0992 31.486 35.2441 30.7771C34.389 30.0683 33.3448 29.6242 32.24 29.4995C32.215 29.496 32.1913 29.5006 32.1665 29.499C32.1343 29.4892 32.1016 29.4817 32.0684 29.4764C26.8113 28.7987 20.7428 31.3066 18.5518 36.2779C18.0172 35.5508 17.3132 34.9644 16.5006 34.5695C15.688 34.1745 14.7912 33.9828 13.8877 34.0109C12.7227 34.0883 11.6099 34.522 10.7008 35.2529C9.79176 35.9837 9.13058 36.9763 8.80732 38.0954C8.77292 38.2324 8.78316 38.3767 8.83653 38.5075C8.8899 38.6383 8.98363 38.7488 9.10415 38.8229C9.45135 39.1164 9.86269 39.3246 10.3051 39.431C11.2599 39.6327 12.218 39.8175 13.1795 39.9854C15.0557 40.3129 16.9418 40.5777 18.8376 40.7797C22.6859 41.1911 26.5582 41.3371 30.4267 41.2167C31.715 41.1766 32.9576 41.134 34.1381 40.5668C34.9969 40.1436 35.7306 39.505 36.2672 38.7135C36.7727 37.9528 37.1051 37.0908 37.2408 36.1883C37.3766 35.2857 37.3125 34.3644 37.053 33.4892Z" fill="#F0F0F0"/>
<path d="M147.641 211.458C147.35 211.884 146.585 212.39 146.287 212.809L146.605 211.847L146.496 211.624L145.819 210.273L128.58 175.618L128.573 175.611L99.3481 116.892V116.885L98.6776 115.541V115.535L84.2143 86.4721L83.5305 85.0942C84.045 85.1077 84.5595 85.128 85.0742 85.155L85.7649 86.5396L100.188 115.535L100.195 115.541L100.865 116.885V116.892L129.345 174.119V174.126L130.015 175.47V175.476L147.255 210.104L147.485 210.57L147.641 211.458Z" fill="#3F3D56"/>
<path d="M145.718 116.892H16.698C17.0435 116.44 17.3953 115.987 17.761 115.542H144.655C145.02 115.987 145.372 116.44 145.718 116.892Z" fill="#3F3D56"/>
<path d="M162.064 174.126C162.023 174.578 161.976 175.031 161.915 175.477H128.864V174.126H162.064Z" fill="#3F3D56"/>
<path d="M21.6072 111.091V219.776C21.14 219.283 20.693 218.783 20.2529 218.283V112.583C20.693 112.083 21.14 111.584 21.6072 111.091Z" fill="#3F3D56"/>
<path d="M146.918 210.272H20.9302V211.623H146.918V210.272Z" fill="#3F3D56"/>
<path d="M146.808 211.458H146.964V211.236C146.917 211.313 146.865 211.387 146.808 211.458ZM145.765 116.727C145.42 116.274 145.068 115.822 144.702 115.376C137.51 106.375 128.475 99.0083 118.2 93.7683C107.926 88.5282 96.6485 85.5354 85.1218 84.9896C84.6074 84.9625 84.0928 84.9423 83.5781 84.9288C82.8061 84.9085 82.0341 84.895 81.2555 84.895C70.0568 84.8891 58.9785 87.1991 48.72 91.6794C38.4616 96.1596 29.2459 102.713 21.6548 110.925C21.1876 111.418 20.7406 111.918 20.3005 112.418C19.4406 113.383 18.6099 114.37 17.8086 115.376C17.4429 115.822 17.0911 116.274 16.7456 116.727C5.30247 131.607 -0.59998 149.991 0.0485144 168.734C0.697009 187.476 7.85613 205.411 20.3005 219.469C20.7406 219.968 21.1876 220.468 21.6548 220.961C29.8379 229.801 39.8937 236.709 51.0905 241.184C62.2873 245.659 74.3435 247.588 86.3818 246.831C98.4201 246.073 110.138 242.648 120.682 236.805C131.226 230.962 140.332 222.847 147.336 213.052C147.634 212.634 147.932 212.215 148.223 211.789C155.732 200.938 160.451 188.41 161.962 175.311C162.023 174.865 162.071 174.413 162.111 173.96C162.375 171.326 162.508 168.654 162.511 165.943C162.531 148.143 156.643 130.837 145.765 116.727V116.727ZM160.601 175.311C159.127 187.884 154.645 199.92 147.533 210.405C147.35 210.682 147.16 210.959 146.964 211.236C146.917 211.313 146.865 211.387 146.808 211.458C146.761 211.533 146.707 211.607 146.652 211.681C139.745 221.525 130.693 229.682 120.175 235.54C109.657 241.398 97.9465 244.805 85.9206 245.505C73.8948 246.206 61.866 244.181 50.736 239.585C39.6061 234.988 29.6639 227.937 21.6547 218.962C21.1876 218.449 20.7339 217.935 20.3005 217.409C8.39369 203.416 1.70478 185.747 1.36786 167.397C1.03095 149.046 7.06677 131.145 18.4519 116.727C18.811 116.274 19.1697 115.822 19.542 115.376C19.786 115.072 20.0363 114.775 20.3005 114.478C20.7339 113.951 21.1876 113.437 21.6547 112.924C29.135 104.529 38.3145 97.8104 48.5878 93.2119C58.8611 88.6134 69.995 86.2392 81.2554 86.2458C82.2645 86.2458 83.2666 86.2661 84.2618 86.3066C84.7832 86.3201 85.298 86.3471 85.8124 86.3741C96.8323 87.0025 107.602 89.9043 117.44 94.8963C127.278 99.8882 135.971 106.862 142.969 115.376C143.341 115.822 143.7 116.274 144.059 116.727C156.836 132.933 162.821 153.446 160.757 173.96C160.709 174.413 160.662 174.865 160.601 175.311L160.601 175.311ZM146.808 211.458H146.964V211.236C146.917 211.313 146.864 211.387 146.808 211.458H146.808Z" fill="#CCCCCC"/>
<path d="M71.0146 59.1947C71.0146 59.5661 71.0025 59.9344 70.9784 60.2996C70.8431 62.4059 70.3097 64.4676 69.4062 66.3761C69.3992 66.3924 69.3909 66.4076 69.384 66.4227C69.3419 66.5112 69.2987 66.5997 69.2544 66.6871C68.9857 67.2268 68.6876 67.7516 68.3614 68.2589C66.8716 70.5878 64.8296 72.5148 62.4159 73.8696C60.0022 75.2245 57.2911 75.9655 54.5221 76.0271L54.6891 85.6023L56.8661 84.459L57.2548 85.196L54.7055 86.535L55.0171 104.319L55.0206 104.556L53.3374 104.93L53.3408 104.691L53.8708 76.0283C51.642 75.9964 49.4418 75.5231 47.3979 74.6361C45.354 73.7491 43.5072 72.4659 41.9645 70.8611C41.8583 70.7516 41.7533 70.6387 41.6505 70.5269L41.6388 70.5141C40.3535 69.116 39.3141 67.5116 38.5642 65.7684C38.5806 65.787 38.5981 65.8045 38.6144 65.8231C31.6588 48.3881 35.7055 40.3055 46.6196 44.1227C46.678 44.0936 46.7375 44.0657 46.7959 44.0366C50.6133 42.2025 54.9821 41.866 59.0365 43.0937C63.091 44.3214 66.535 47.0237 68.6859 50.6649C68.7887 50.8373 68.8879 51.0131 68.9836 51.19C70.3197 53.6474 71.0179 56.3992 71.0146 59.1947Z" fill="#DDDDDF"/>
<path d="M90.8638 44.3643C90.6603 47.7094 89.7925 50.9809 88.311 53.9887C85.4603 59.7432 80.4564 64.1062 74.22 65.734C74.2096 65.7394 74.1979 65.7418 74.1862 65.7407C72.617 66.1489 71.0064 66.3778 69.3853 66.4229H69.2499C69.0806 66.4296 68.9113 66.4296 68.7421 66.4296C68.627 66.4296 68.5119 66.4296 68.3967 66.4229C62.5905 66.3336 57.0525 63.9702 52.9782 59.8432C48.904 55.7161 46.6203 50.1563 46.6204 44.3643V44.1211C46.6305 42.7129 46.8356 41.3129 47.2298 39.9606C47.2298 39.9539 47.2365 39.9472 47.2365 39.9404C47.972 37.5905 49.2984 35.4677 51.0894 33.774C55.5246 29.3974 62.5464 26.6485 68.7421 22.2989C82.3117 12.7758 92.279 22.2517 90.8638 44.3643Z" fill="#DDDDDF"/>
<path opacity="0.2" d="M88.311 53.9887C85.4603 59.7431 80.4563 64.1061 74.22 65.7339C74.2096 65.7393 74.1978 65.7417 74.1861 65.7407C72.6211 66.1281 71.0178 66.3411 69.4056 66.3755H69.2499C68.9655 66.3823 68.6811 66.3823 68.3967 66.3755C62.5749 66.2306 57.0444 63.8051 53.0019 59.6238C48.9595 55.4425 46.7301 49.8417 46.7964 44.0333C46.817 42.6654 46.962 41.3023 47.2297 39.9606C47.2297 39.9539 47.2365 39.9471 47.2365 39.9403C47.9719 37.5905 49.2983 35.4676 51.0893 33.7739C50.4878 36.6359 50.4626 39.5886 51.0153 42.4604C51.5679 45.3322 52.6873 48.0657 54.3084 50.5022C55.9295 52.9387 58.02 55.0294 60.4583 56.6529C62.8966 58.2764 65.6342 59.4003 68.5118 59.9592C68.7217 59.9997 68.9316 60.0403 69.1415 60.074C69.7509 60.1754 70.3603 60.2496 70.9765 60.2969C74.151 60.5539 77.3437 60.1232 80.3357 59.0344C83.3276 57.9455 86.0482 56.2243 88.311 53.9887Z" fill="black"/>
<path d="M69.4918 80.1974L72.8317 78.4439L72.3221 77.4782L69.4694 78.9761L69.2549 66.6876V66.6861L69.2498 66.4258V66.3795L69.139 60.0753L68.9838 51.1905L68.8648 44.3638H68.8025L68.6861 50.6649V50.6664L68.5145 59.9617L68.3961 66.3754L68.3956 66.4289L68.3613 68.2588L67.6843 104.967L67.6797 105.209L69.9391 105.842L69.935 105.597L69.4918 80.1974Z" fill="#3F3D56"/>
<path d="M150.079 123.667C136.036 120.86 121.949 118.315 107.691 116.756C94.1709 115.17 80.5372 114.777 66.9482 115.581C54.6757 116.407 42.2981 118.343 30.7691 122.757C21.8849 126.158 12.4149 131.305 7.61602 139.887C2.99013 148.159 4.79437 157.7 9.83139 165.332C15.892 174.516 25.3426 180.809 35.1681 185.409C46.3553 190.646 58.321 194.041 70.3021 196.928C76.3786 198.392 82.4879 199.716 88.5978 201.033C89.8724 201.308 90.417 199.355 89.1378 199.079C76.8167 196.423 64.4599 193.759 52.4448 189.915C41.3261 186.358 29.9475 181.8 20.8423 174.33C13.4761 168.287 6.47242 159.46 6.9072 149.425C7.34551 139.307 15.8557 132.244 24.1968 127.896C34.6209 122.462 46.4641 119.815 58.0691 118.432C71.357 116.955 84.7576 116.773 98.0808 117.889C115.887 119.24 133.43 122.375 150.906 125.887" fill="black"/>
<path d="M84.1531 139.78C90.0625 142.726 93.6603 146.617 93.6603 150.885C93.6603 160.078 76.9818 167.531 56.4082 167.531C47.4633 167.531 39.2571 166.121 32.8354 163.773C39.6561 167.173 49.557 169.315 60.5804 169.315C81.154 169.315 97.8325 161.862 97.8325 152.668C97.8325 147.472 92.5017 142.832 84.1531 139.78Z" fill="#F1F1F1"/>
<path d="M97.2978 146.095C103.966 149.419 108.026 153.81 108.026 158.625C108.026 168.999 89.2058 177.409 65.9909 177.409C55.8976 177.409 46.6379 175.818 39.3918 173.168C47.0881 177.005 58.2601 179.421 70.6987 179.421C93.9137 179.421 112.733 171.012 112.733 160.638C112.733 154.774 106.718 149.539 97.2978 146.095Z" fill="#F1F1F1"/>
<path d="M79.1229 142.561C83.2862 144.637 85.8209 147.378 85.8209 150.385C85.8209 156.862 74.0705 162.113 59.5759 162.113C53.9288 162.186 48.3112 161.29 42.9683 159.465C47.7736 161.861 54.749 163.369 62.5153 163.369C77.01 163.369 88.7604 158.119 88.7604 151.641C88.7604 147.98 85.0046 144.712 79.1229 142.561Z" fill="#F1F1F1"/>
<path d="M56.953 154.965C48.3919 154.965 44.2285 152.622 42.2434 150.657C41.8812 150.297 41.6345 149.837 41.5345 149.336C41.4345 148.835 41.4857 148.316 41.6816 147.845C41.8775 147.373 42.2094 146.97 42.6351 146.687C43.0609 146.403 43.5614 146.252 44.0732 146.253H73.9399C74.3465 146.253 74.7431 146.379 75.0744 146.614C75.4058 146.849 75.6554 147.181 75.7886 147.564C75.9218 147.948 75.9319 148.363 75.8175 148.752C75.7031 149.141 75.4699 149.485 75.1503 149.736C72.1079 152.121 66.4812 154.965 56.953 154.965Z" fill="#3F3D56"/>
<path d="M63.1548 124.985C60.8264 123.221 57.904 122.424 54.9995 122.76C60.1559 124.03 56.0869 131.138 60.7827 138.51C63.3418 142.527 58.3649 144.497 53.6238 145.036C56.1613 145.647 58.8323 145.368 61.1878 144.246C63.5433 143.123 65.4396 141.227 66.558 138.874C67.6763 136.521 67.9485 133.856 67.3287 131.327C66.709 128.798 65.235 126.558 63.1548 124.985V124.985Z" fill="#3F3D56"/>
<path d="M57.8697 121.28H56.77V147.389H57.8697V121.28Z" fill="#3F3D56"/>
<path d="M163.696 128.608C160.776 126.556 157.478 125.098 153.993 124.318C150.507 123.537 146.902 123.449 143.382 124.058C139.863 124.667 136.498 125.962 133.48 127.869C130.462 129.775 127.85 132.256 125.793 135.169C117.142 147.421 108.462 179.549 114.59 198.161C132.865 178.905 160.943 176.905 170.274 166.415C180.246 155.206 175.98 137.236 163.696 128.608Z" fill="#9378FF"/>
<path d="M147.663 156.351C152.563 156.351 156.535 152.39 156.535 147.502C156.535 142.615 152.563 138.653 147.663 138.653C142.764 138.653 138.792 142.615 138.792 147.502C138.792 152.39 142.764 156.351 147.663 156.351Z" fill="white"/>
<path d="M107.09 207.798C110.299 207.798 112.901 205.203 112.901 202.002C112.901 198.801 110.299 196.206 107.09 196.206C103.881 196.206 101.279 198.801 101.279 202.002C101.279 205.203 103.881 207.798 107.09 207.798Z" fill="#9378FF"/>
<path opacity="0.2" d="M157.155 145.461C157.743 146.464 158.126 147.573 158.284 148.725C158.442 149.876 158.371 151.047 158.075 152.171C157.779 153.295 157.263 154.35 156.559 155.275C155.854 156.2 154.974 156.978 153.967 157.564C152.961 158.15 151.849 158.533 150.695 158.69C149.541 158.847 148.367 158.776 147.24 158.481C146.113 158.186 145.056 157.672 144.128 156.969C143.2 156.266 142.42 155.388 141.833 154.384C143.417 155.77 145.443 156.548 147.549 156.58C149.655 156.612 151.704 155.895 153.329 154.557C154.954 153.22 156.048 151.349 156.417 149.28C156.785 147.212 156.403 145.08 155.339 143.266C156.06 143.895 156.673 144.636 157.155 145.461Z" fill="#231F20"/>
<path opacity="0.2" d="M170.291 166.456C160.959 176.946 132.882 178.947 114.606 198.202C114.036 196.441 113.597 194.641 113.293 192.815C131.56 175.31 158.074 173.098 167.09 162.963C175.16 153.892 173.903 140.393 166.621 131.001C176.609 140.236 179.429 156.185 170.291 166.456Z" fill="#231F20"/>
<path d="M265.964 359.538H259.342L256.191 334.06H265.965L265.964 359.538Z" fill="#FFB6B6"/>
<path d="M267.652 365.941L246.3 365.94V365.671C246.3 363.472 247.175 361.364 248.734 359.809C250.293 358.254 252.407 357.381 254.611 357.381H254.611L258.512 354.429L265.789 357.381L267.653 357.381L267.652 365.941Z" fill="#2F2E41"/>
<path d="M240.301 355.375L233.841 356.831L225.142 332.67L234.676 330.523L240.301 355.375Z" fill="#FFB6B6"/>
<path d="M243.362 361.25L222.534 365.941L222.474 365.678C221.989 363.534 222.377 361.284 223.554 359.426C224.732 357.567 226.601 356.25 228.751 355.766L228.751 355.766L231.904 352.03L239.654 353.31L241.473 352.901L243.362 361.25Z" fill="#2F2E41"/>
<path d="M274.351 203.779C277.456 213.119 277.128 223.258 273.605 234.14L272.099 295.405C274.588 298.138 276.151 309.282 272.316 317.261C267.194 327.916 270.722 342.651 267.102 349.72H256.602L254.022 320.94L251.749 317.695L251.403 291.736C250.009 288.443 248.393 285.176 251.229 281.361L251.153 276.852L250.75 252.817L234.914 275.915C234.465 281.142 231.786 283.881 228.239 285.652L233.143 307.242C241.721 314.565 239.623 325.899 239.765 336.391L242.577 348.772L229.654 349.925L223.95 333.134L217.538 322.788L206.386 281.424L214.163 263.42L217.342 256.061L235.093 214.967L274.351 203.779Z" fill="#2F2E41"/>
<path d="M164.642 170.468C165.159 170.983 165.784 171.379 166.472 171.628C167.16 171.877 167.894 171.972 168.622 171.907C169.351 171.842 170.056 171.618 170.689 171.252C171.322 170.886 171.866 170.386 172.284 169.787L189.403 174.586L186.594 165.806L170.768 162.594C169.712 161.96 168.461 161.735 167.25 161.96C166.039 162.186 164.953 162.846 164.198 163.817C163.443 164.787 163.071 166 163.153 167.226C163.235 168.452 163.764 169.605 164.642 170.468Z" fill="#FFB8B8"/>
<path d="M178.643 163.376L195.352 163.253C199.859 161.997 204.609 161.89 209.168 162.941L210.055 163.146L217.028 162.357C221.185 154.068 228.899 146.574 239.255 139.67C240.817 138.415 242.627 137.504 244.567 136.996C246.507 136.489 248.533 136.398 250.511 136.728C252.49 137.058 254.375 137.802 256.044 138.912C257.713 140.021 259.128 141.47 260.195 143.164C262.121 146.231 262.799 149.916 262.091 153.466C261.382 157.015 259.339 160.159 256.382 162.256L224.827 180.761C222.058 182.385 218.913 183.261 215.702 183.305L215.625 183.345L197.625 176.618L188.365 175.442L175.809 171.802L178.643 163.376Z" fill="#9378FF"/>
<path d="M245.682 124.482C254.389 124.482 261.447 117.442 261.447 108.757C261.447 100.073 254.389 93.0322 245.682 93.0322C236.975 93.0322 229.917 100.073 229.917 108.757C229.917 117.442 236.975 124.482 245.682 124.482Z" fill="#FFB8B8"/>
<path d="M260.405 118.73C261.573 117.067 262.402 114.404 262.892 112.457C263.547 109.894 263.654 107.222 263.208 104.614C262.761 102.007 261.77 99.522 260.3 97.3209C259.757 96.4238 258.979 95.6915 258.05 95.2028C257.096 94.778 255.838 94.8792 255.173 95.6829C255.171 94.9777 255.024 94.2805 254.741 93.6341C254.459 92.9878 254.046 92.4061 253.529 91.925C252.487 90.9681 251.236 90.2665 249.875 89.8759C247.253 89.0783 244.463 89.0037 241.802 89.66C239.14 90.3163 236.707 91.6791 234.759 93.6036C233.999 94.3758 234.27 90.5175 233.425 91.1972C232.607 91.9273 231.534 92.3089 230.437 92.2603C229.358 92.1456 227.373 95.9818 227.362 94.8993C226.226 96.0342 225.726 100.82 226.081 102.384C226.436 103.947 231.72 103.256 233.235 103.792C234.239 104.147 235.329 104.159 236.368 104.39C238.216 104.867 239.825 106.001 240.891 107.58C241.958 109.158 242.408 111.072 242.157 112.959C242.822 112.067 243.626 111.288 244.54 110.653C245.001 110.339 245.529 110.139 246.083 110.07C246.636 110.001 247.198 110.065 247.722 110.257C248.194 110.51 248.61 110.856 248.943 111.275C249.277 111.694 249.521 112.177 249.66 112.693C250.005 113.704 250.138 114.778 250.488 115.787C251.517 118.747 252.047 121.854 254.914 122.556C257.176 123.11 258.81 121.001 260.405 118.73Z" fill="#2F2E41"/>
<path d="M275.696 200.662L273.965 197.209C271.846 184.115 269.753 171.901 272.597 160.916C272.776 151.326 269.804 142.316 261.553 137.396L257.83 135.176L255.946 130.408L238.596 130.831L238.545 137.08L232.331 146.966V147.007L232.719 200.799L234.434 206.351L231.845 212.809L233.219 216.929L267.424 211.474L271.402 210.838C271.861 210.691 272.304 210.498 272.725 210.262C274.152 209.472 275.271 208.225 275.901 206.723C275.936 206.636 275.967 206.554 275.998 206.468C276.266 205.767 276.421 205.028 276.457 204.278C276.519 203.027 276.257 201.782 275.696 200.662Z" fill="#9378FF"/>
<path d="M290.223 236.224C289.588 235.792 289.056 235.226 288.664 234.567C288.271 233.908 288.029 233.171 287.953 232.408C287.877 231.645 287.97 230.875 288.225 230.151C288.48 229.428 288.891 228.769 289.429 228.222L281.104 211.538L290.742 212.709L297.17 228.372C298.032 229.334 298.511 230.579 298.515 231.87C298.52 233.16 298.049 234.408 297.193 235.375C296.336 236.343 295.154 236.964 293.87 237.121C292.585 237.277 291.288 236.958 290.223 236.224Z" fill="#FFB8B8"/>
<path d="M256.475 178.82L262.791 177.95C262.791 177.95 263.4 187.447 266.421 188.887C269.442 190.326 268.423 190.563 268.78 192.086C269.136 193.61 270.748 195.912 273.141 196.962C275.534 198.012 286.418 224.412 286.418 224.412L295.583 222.28C294.735 219.988 294.176 217.599 293.921 215.17C293.599 211.496 289.425 202.828 288.05 201.542C286.676 200.255 287.219 197.986 286.507 194.939C285.794 191.892 286.289 194.718 285.101 189.639C283.914 184.56 270.565 154.124 270.006 149.434C269.446 144.745 262.895 141.985 262.895 141.985L257.804 143.169L256.475 178.82Z" fill="#9378FF"/>
<path opacity="0.2" d="M276.457 204.278C276.421 205.028 276.266 205.767 275.997 206.468L272.724 210.262C272.304 210.498 271.861 210.691 271.402 210.838L267.424 211.474L273.179 200.682L260.531 173.063L276.457 204.278Z" fill="black"/>
<path d="M151.594 366.639H350.363C350.532 366.639 350.694 366.572 350.813 366.453C350.933 366.333 351 366.172 351 366.004C351 365.835 350.933 365.674 350.813 365.554C350.694 365.435 350.532 365.368 350.363 365.368H151.594C151.425 365.368 151.263 365.435 151.144 365.554C151.025 365.674 150.958 365.835 150.958 366.004C150.958 366.172 151.025 366.333 151.144 366.453C151.263 366.572 151.425 366.639 151.594 366.639Z" fill="#CCCCCC"/>
</g>
<defs>
<clipPath id="clip0_57_236">
<rect width="351" height="366.639" fill="white"/>
</clipPath>
</defs>
</svg>
