<svg xmlns="http://www.w3.org/2000/svg" width="236" height="65" viewBox="0 0 236 65"><path fill="#fff" d="M9.47 41.02L30.18 41.02L30.18 10.45L9.47 41.02ZM46.00 41.02L46.00 48.34L38.18 48.34L38.18 63.57L30.18 63.57L30.18 48.34L2.44 48.34L2.44 39.26L28.71 0.78L38.18 0.78L38.18 41.02L46.00 41.02ZM84.18 53.91Q87.60 48.73 87.60 41.89Q87.60 35.06 84.18 29.79Q80.76 24.51 74.41 24.51L74.41 24.51Q67.87 24.51 64.45 29.74Q61.04 34.96 61.04 41.89Q61.04 48.83 64.45 53.96Q67.87 59.08 74.41 59.08L74.41 59.08Q80.76 59.08 84.18 53.91ZM95.80 41.89L95.80 41.89Q95.80 53.03 89.75 58.89Q83.69 64.75 74.41 64.75L74.41 64.75Q64.94 64.75 58.98 58.89Q53.03 53.03 53.03 41.89L53.03 41.89Q53.03 30.66 58.98 24.85Q64.94 19.04 74.41 19.04L74.41 19.04Q83.79 19.04 89.79 24.85Q95.80 30.66 95.80 41.89ZM128.71 0.78L128.71 7.23Q126.17 6.15 124.02 6.15L124.02 6.15Q120.51 6.15 118.95 7.91Q117.38 9.67 117.38 13.77L117.38 13.77L117.38 20.12L127.83 20.12L127.83 25.78L117.38 25.78L117.38 63.57L109.47 63.57L109.47 25.78L100.88 25.78L100.88 20.12L109.47 20.12L109.47 13.48Q109.47 5.86 112.65 2.93Q115.82 0 122.46 0L122.46 0Q125.88 0 128.71 0.78L128.71 0.78ZM157.42 0.78L157.42 7.23Q154.88 6.15 152.73 6.15L152.73 6.15Q149.22 6.15 147.66 7.91Q146.09 9.67 146.09 13.77L146.09 13.77L146.09 20.12L156.54 20.12L156.54 25.78L146.09 25.78L146.09 63.57L138.18 63.57L138.18 25.78L129.59 25.78L129.59 20.12L138.18 20.12L138.18 13.48Q138.18 5.86 141.36 2.93Q144.53 0 151.17 0L151.17 0Q154.59 0 157.42 0.78L157.42 0.78ZM170.12 37.40L192.87 37.40Q192.97 36.72 192.97 35.45L192.97 35.45Q192.97 30.66 190.28 27.59Q187.60 24.51 181.74 24.51L181.74 24.51Q172.17 24.51 170.12 37.40L170.12 37.40ZM192.87 49.71L201.17 49.71Q200.10 55.96 195.26 60.35Q190.43 64.75 181.54 64.75L181.54 64.75Q176.37 64.75 172.41 62.60Q168.46 60.45 166.21 56.98Q163.96 53.52 162.89 49.71Q161.82 45.90 161.82 41.89L161.82 41.89Q161.82 37.60 162.89 33.74Q163.96 29.88 166.21 26.46Q168.46 23.05 172.56 21.04Q176.66 19.04 182.13 19.04L182.13 19.04Q187.01 19.04 190.67 20.51Q194.34 21.97 196.34 24.07Q198.34 26.17 199.56 29.05Q200.78 31.93 201.12 34.23Q201.46 36.52 201.46 38.96L201.46 38.96Q201.46 41.21 201.17 43.07L201.17 43.07L170.12 43.07Q170.12 50.29 172.95 54.69Q175.78 59.08 181.74 59.08L181.74 59.08Q187.11 59.08 189.70 56.25Q192.29 53.42 192.87 49.71L192.87 49.71ZM235.74 20.12L235.74 27.15Q219.73 27.15 219.73 39.26L219.73 39.26L219.73 63.57L211.82 63.57L211.82 20.12L219.73 20.12L219.73 26.07Q221.58 22.85 224.76 21.48Q227.93 20.12 235.74 20.12L235.74 20.12Z"></path></svg>