<svg width="182" height="40" viewBox="0 0 182 40" fill="none" xmlns="http://www.w3.org/2000/svg">
<g id="Group 43">
<path id="Delmit ry" d="M4.865 31C4.46833 31 4.14167 30.8717 3.885 30.615C3.62833 30.3583 3.5 30.0317 3.5 29.635V5.03C3.5 4.63333 3.62833 4.30666 3.885 4.05C4.14167 3.79333 4.46833 3.665 4.865 3.665H11.165C13.1717 3.665 15.0033 4.00333 16.66 4.68C18.34 5.33333 19.7867 6.27833 21 7.515C22.2133 8.72833 23.1467 10.1633 23.8 11.82C24.4767 13.4767 24.815 15.3083 24.815 17.315C24.815 19.3217 24.4767 21.165 23.8 22.845C23.1467 24.5017 22.2133 25.9483 21 27.185C19.7867 28.3983 18.34 29.3433 16.66 30.02C15.0033 30.6733 13.1717 31 11.165 31H4.865ZM6.23 28.55H11.165C13.3117 28.55 15.2017 28.0717 16.835 27.115C18.4917 26.135 19.7867 24.805 20.72 23.125C21.6533 21.4217 22.12 19.485 22.12 17.315C22.12 15.145 21.6533 13.22 20.72 11.54C19.7867 9.83667 18.4917 8.50667 16.835 7.55C15.2017 6.59333 13.3117 6.115 11.165 6.115H6.23V28.55ZM38.7636 31.175C36.8736 31.175 35.1936 30.7667 33.7236 29.95C32.2769 29.11 31.1336 27.955 30.2936 26.485C29.4769 25.015 29.0686 23.335 29.0686 21.445C29.0686 19.5317 29.4536 17.8517 30.2236 16.405C31.0169 14.935 32.1019 13.78 33.4786 12.94C34.8553 12.1 36.4419 11.68 38.2386 11.68C40.0119 11.68 41.5519 12.0883 42.8586 12.905C44.1886 13.6983 45.2153 14.8067 45.9386 16.23C46.6619 17.6533 47.0236 19.275 47.0236 21.095C47.0236 21.4683 46.9069 21.7717 46.6736 22.005C46.4403 22.215 46.1369 22.32 45.7636 22.32H31.6236C31.7636 23.58 32.1486 24.7 32.7786 25.68C33.4086 26.6367 34.2369 27.395 35.2636 27.955C36.2903 28.4917 37.4569 28.76 38.7636 28.76C39.6036 28.76 40.4436 28.62 41.2836 28.34C42.1469 28.0367 42.8353 27.6633 43.3486 27.22C43.6053 27.01 43.8969 26.905 44.2236 26.905C44.5503 26.8817 44.8303 26.9633 45.0636 27.15C45.3669 27.43 45.5186 27.7333 45.5186 28.06C45.5419 28.3867 45.4136 28.6667 45.1336 28.9C44.3636 29.5533 43.3836 30.1017 42.1936 30.545C41.0036 30.965 39.8603 31.175 38.7636 31.175ZM38.2386 14.095C36.4419 14.095 34.9603 14.655 33.7936 15.775C32.6269 16.8717 31.9269 18.3067 31.6936 20.08H44.5036C44.3169 18.3067 43.6636 16.8717 42.5436 15.775C41.4469 14.655 40.0119 14.095 38.2386 14.095ZM55.7126 31C54.3126 31 53.1576 30.44 52.2476 29.32C51.3376 28.1767 50.8826 26.7183 50.8826 24.945V4.995C50.8826 4.59833 50.9993 4.28333 51.2326 4.05C51.4893 3.79333 51.816 3.665 52.2126 3.665C52.6093 3.665 52.9243 3.79333 53.1576 4.05C53.4143 4.28333 53.5426 4.59833 53.5426 4.995V24.945C53.5426 25.9483 53.741 26.765 54.1376 27.395C54.5576 28.025 55.0826 28.34 55.7126 28.34H56.5876C56.9376 28.34 57.2176 28.4683 57.4276 28.725C57.6376 28.9583 57.7426 29.2733 57.7426 29.67C57.7426 30.0667 57.591 30.3933 57.2876 30.65C57.0076 30.8833 56.6343 31 56.1676 31H55.7126ZM62.8255 31C62.4055 31 62.0672 30.8833 61.8105 30.65C61.5772 30.3933 61.4605 30.0667 61.4605 29.67V13.22C61.4605 12.8233 61.5772 12.4967 61.8105 12.24C62.0672 11.9833 62.4055 11.855 62.8255 11.855C63.2222 11.855 63.5372 11.9833 63.7705 12.24C64.0272 12.4967 64.1555 12.8233 64.1555 13.22V13.99C64.8089 13.2433 65.5789 12.6717 66.4655 12.275C67.3522 11.855 68.3322 11.645 69.4055 11.645C70.7122 11.645 71.8672 11.9367 72.8705 12.52C73.8972 13.1033 74.7139 13.9083 75.3205 14.935C75.9739 13.9083 76.8489 13.1033 77.9455 12.52C79.0422 11.9367 80.2672 11.645 81.6205 11.645C82.9972 11.645 84.2105 11.9717 85.2605 12.625C86.3339 13.2783 87.1622 14.2 87.7455 15.39C88.3522 16.58 88.6555 17.98 88.6555 19.59V29.67C88.6555 30.0667 88.5272 30.3933 88.2705 30.65C88.0372 30.8833 87.7222 31 87.3255 31C86.9289 31 86.6022 30.8833 86.3455 30.65C86.0889 30.3933 85.9605 30.0667 85.9605 29.67V19.59C85.9605 17.9333 85.5289 16.6267 84.6655 15.67C83.8022 14.69 82.6939 14.2 81.3405 14.2C79.8939 14.2 78.7039 14.69 77.7705 15.67C76.8605 16.6267 76.4172 17.91 76.4405 19.52V19.59V29.67C76.4405 30.0667 76.3122 30.3933 76.0555 30.65C75.8222 30.8833 75.5072 31 75.1105 31C74.7139 31 74.3872 30.8833 74.1305 30.65C73.8739 30.3933 73.7455 30.0667 73.7455 29.67V19.59C73.7455 17.9333 73.3139 16.6267 72.4505 15.67C71.5872 14.69 70.4789 14.2 69.1255 14.2C67.6789 14.2 66.4889 14.6783 65.5555 15.635C64.6222 16.5683 64.1555 17.7933 64.1555 19.31V29.67C64.1555 30.0667 64.0272 30.3933 63.7705 30.65C63.5372 30.8833 63.2222 31 62.8255 31ZM96.5398 31C96.1198 31 95.7815 30.8833 95.5248 30.65C95.2915 30.3933 95.1748 30.055 95.1748 29.635V13.22C95.1748 12.8 95.2915 12.4733 95.5248 12.24C95.7815 11.9833 96.1198 11.855 96.5398 11.855C96.9365 11.855 97.2515 11.9833 97.4848 12.24C97.7415 12.4733 97.8698 12.8 97.8698 13.22V29.635C97.8698 30.055 97.7415 30.3933 97.4848 30.65C97.2515 30.8833 96.9365 31 96.5398 31ZM96.5048 8.215C95.9915 8.215 95.5482 8.02833 95.1748 7.655C94.8015 7.28167 94.6148 6.82667 94.6148 6.29C94.6148 5.70667 94.8015 5.25167 95.1748 4.925C95.5715 4.575 96.0265 4.4 96.5398 4.4C97.0298 4.4 97.4615 4.575 97.8348 4.925C98.2315 5.25167 98.4298 5.70667 98.4298 6.29C98.4298 6.82667 98.2432 7.28167 97.8698 7.655C97.4965 8.02833 97.0415 8.215 96.5048 8.215ZM112.222 31C110.985 31 109.877 30.7083 108.897 30.125C107.94 29.5417 107.182 28.7483 106.622 27.745C106.062 26.7183 105.782 25.5517 105.782 24.245V14.9H103.507C103.157 14.9 102.865 14.795 102.632 14.585C102.399 14.3517 102.282 14.0717 102.282 13.745C102.282 13.395 102.399 13.115 102.632 12.905C102.865 12.6717 103.157 12.555 103.507 12.555H105.782V7.13C105.782 6.73333 105.899 6.40666 106.132 6.15C106.389 5.89333 106.715 5.765 107.112 5.765C107.509 5.765 107.835 5.89333 108.092 6.15C108.349 6.40666 108.477 6.73333 108.477 7.13V12.555H112.432C112.782 12.555 113.074 12.6717 113.307 12.905C113.54 13.115 113.657 13.395 113.657 13.745C113.657 14.0717 113.54 14.3517 113.307 14.585C113.074 14.795 112.782 14.9 112.432 14.9H108.477V24.245C108.477 25.435 108.827 26.415 109.527 27.185C110.227 27.9317 111.125 28.305 112.222 28.305H113.167C113.54 28.305 113.844 28.4333 114.077 28.69C114.31 28.9467 114.427 29.2733 114.427 29.67C114.427 30.0667 114.287 30.3933 114.007 30.65C113.727 30.8833 113.377 31 112.957 31H112.222ZM150.906 31C150.019 31 149.576 30.5567 149.576 29.67V13.185C149.576 12.2983 150.019 11.855 150.906 11.855C151.792 11.855 152.236 12.2983 152.236 13.185V14.69C152.936 13.7567 153.799 13.0217 154.826 12.485C155.852 11.925 156.984 11.645 158.221 11.645C159.294 11.645 160.122 11.7967 160.706 12.1C161.289 12.4033 161.511 12.8467 161.371 13.43C161.254 13.9667 160.974 14.2467 160.531 14.27C160.111 14.27 159.609 14.2467 159.026 14.2C157.719 14.0833 156.552 14.2233 155.526 14.62C154.522 14.9933 153.717 15.5767 153.111 16.37C152.527 17.1633 152.236 18.1083 152.236 19.205V29.67C152.236 30.5567 151.792 31 150.906 31ZM168.896 39.33C168.709 39.33 168.499 39.2833 168.266 39.19C167.473 38.84 167.251 38.28 167.601 37.51L171.101 29.845L171.066 29.81L163.261 13.64C163.098 13.29 163.074 12.9633 163.191 12.66C163.308 12.3567 163.541 12.1233 163.891 11.96C164.661 11.61 165.221 11.8083 165.571 12.555L172.396 26.94L178.906 12.59C179.256 11.8433 179.816 11.6333 180.586 11.96C181.379 12.2867 181.601 12.835 181.251 13.605L169.911 38.525C169.678 39.0617 169.339 39.33 168.896 39.33Z" fill="white"/>
<g id="Group 1">
<g id="fluent:backpack-12-regular">
<g id="Group">
<path id="Vector" d="M126.917 16.2084C126.917 15.8658 127.053 15.5372 127.295 15.295C127.537 15.0528 127.866 14.9167 128.208 14.9167H130.792C131.134 14.9167 131.463 15.0528 131.705 15.295C131.947 15.5372 132.083 15.8658 132.083 16.2084C132.083 16.5509 131.947 16.8795 131.705 17.1217C131.463 17.3639 131.134 17.5 130.792 17.5H128.208C127.866 17.5 127.537 17.3639 127.295 17.1217C127.053 16.8795 126.917 16.5509 126.917 16.2084Z" fill="white"/>
<path id="Vector_2" d="M125.625 22.6667C125.282 22.6667 124.954 22.8028 124.712 23.045C124.469 23.2872 124.333 23.6158 124.333 23.9584C124.333 24.3009 124.469 24.6295 124.712 24.8717C124.954 25.1139 125.282 25.25 125.625 25.25H133.375C133.718 25.25 134.046 25.1139 134.288 24.8717C134.531 24.6295 134.667 24.3009 134.667 23.9584C134.667 23.6158 134.531 23.2872 134.288 23.045C134.046 22.8028 133.718 22.6667 133.375 22.6667H125.625Z" fill="white"/>
<path id="Vector_3" d="M124.494 11.0417H124.333V8.45834C124.333 7.43063 124.742 6.44501 125.468 5.7183C126.195 4.9916 127.181 4.58334 128.208 4.58334H130.792C131.819 4.58334 132.805 4.9916 133.532 5.7183C134.258 6.44501 134.667 7.43063 134.667 8.45834V11.0417H134.507C136.121 11.9356 137.467 13.2457 138.403 14.8358C139.34 16.4258 139.834 18.2378 139.833 20.0833V26.5417C139.833 27.5694 139.425 28.555 138.698 29.2817C137.972 30.0084 136.986 30.4167 135.958 30.4167H123.042C122.014 30.4167 121.028 30.0084 120.302 29.2817C119.575 28.555 119.167 27.5694 119.167 26.5417V20.0833C119.167 16.1928 121.316 12.8035 124.494 11.0417V11.0417ZM126.917 8.45834V10.0755C128.611 9.6388 130.389 9.6388 132.083 10.0755V8.45834C132.083 8.11577 131.947 7.78723 131.705 7.545C131.463 7.30276 131.134 7.16668 130.792 7.16668H128.208C127.866 7.16668 127.537 7.30276 127.295 7.545C127.053 7.78723 126.917 8.11577 126.917 8.45834ZM121.75 20.0833V26.5417C121.75 26.8842 121.886 27.2128 122.128 27.455C122.371 27.6973 122.699 27.8333 123.042 27.8333H135.958C136.301 27.8333 136.629 27.6973 136.872 27.455C137.114 27.2128 137.25 26.8842 137.25 26.5417V20.0833C137.25 18.0279 136.434 16.0567 134.98 14.6033C133.527 13.1499 131.555 12.3333 129.5 12.3333C127.445 12.3333 125.473 13.1499 124.02 14.6033C122.567 16.0567 121.75 18.0279 121.75 20.0833V20.0833Z" fill="white"/>
</g>
</g>
<path id="Line 1" d="M138.5 18L139.951 24.0954C140.58 26.7375 142.801 28.7001 145.5 29V29" stroke="white" stroke-width="2" stroke-linecap="round"/>
</g>
</g>
</svg>
