<svg width="15" height="15" viewBox="0 0 15 15" fill="none" xmlns="http://www.w3.org/2000/svg">
<path d="M4.83284 9.69738H4.83353C4.8341 9.69738 4.83467 9.69727 4.83524 9.69727H12.8027C12.9989 9.69727 13.1713 9.56715 13.2253 9.37855L14.9831 3.2262C15.0209 3.09357 14.9944 2.95097 14.9114 2.84088C14.8283 2.73079 14.6984 2.66602 14.5605 2.66602H3.81935L3.50521 1.25233C3.46046 1.05125 3.28217 0.908203 3.07617 0.908203H0.439453C0.196724 0.908203 0 1.10493 0 1.34766C0 1.59039 0.196724 1.78711 0.439453 1.78711H2.72369C2.77931 2.03762 4.22699 8.55228 4.3103 8.92708C3.84327 9.1301 3.51562 9.59576 3.51562 10.1367C3.51562 10.8636 4.10706 11.4551 4.83398 11.4551H12.8027C13.0455 11.4551 13.2422 11.2584 13.2422 11.0156C13.2422 10.7729 13.0455 10.5762 12.8027 10.5762H4.83398C4.59171 10.5762 4.39453 10.379 4.39453 10.1367C4.39453 9.89479 4.59103 9.69795 4.83284 9.69738ZM13.9779 3.54492L12.4712 8.81836H5.18646L4.01459 3.54492H13.9779Z" fill="#FF4178"/>
<path d="M4.3945 12.7734C4.3945 13.5004 4.98593 14.0918 5.71286 14.0918C6.43979 14.0918 7.03122 13.5004 7.03122 12.7734C7.03122 12.0465 6.43979 11.4551 5.71286 11.4551C4.98593 11.4551 4.3945 12.0465 4.3945 12.7734ZM5.71286 12.334C5.95513 12.334 6.15231 12.5312 6.15231 12.7734C6.15231 13.0157 5.95513 13.2129 5.71286 13.2129C5.47059 13.2129 5.27341 13.0157 5.27341 12.7734C5.27341 12.5312 5.47059 12.334 5.71286 12.334Z" fill="#FF4178"/>
<path d="M10.6055 12.7734C10.6055 13.5004 11.1969 14.0918 11.9238 14.0918C12.6508 14.0918 13.2422 13.5004 13.2422 12.7734C13.2422 12.0465 12.6508 11.4551 11.9238 11.4551C11.1969 11.4551 10.6055 12.0465 10.6055 12.7734ZM11.9238 12.334C12.1661 12.334 12.3633 12.5312 12.3633 12.7734C12.3633 13.0157 12.1661 13.2129 11.9238 13.2129C11.6816 13.2129 11.4844 13.0157 11.4844 12.7734C11.4844 12.5312 11.6816 12.334 11.9238 12.334Z" fill="#FF4178"/>
</svg>
