<svg display="none" xmlns="http://www.w3.org/2000/svg">
    <symbol id="moscow" viewBox="0 0 512 512">
        <g>
            <g>
                <path d="M503.551,472.969H8.449c-4.666,0-8.449,3.783-8.449,8.449c0,4.666,3.783,8.449,8.449,8.449h495.102
			c4.667,0,8.449-3.783,8.449-8.449C512,476.752,508.217,472.969,503.551,472.969z"/>
            </g>
        </g>
        <g>
            <g>
                <path d="M85.624,328.559c-4.666,0-8.449,3.783-8.449,8.449v15.772c0,4.666,3.783,8.449,8.449,8.449
			c4.666,0,8.449-3.783,8.449-8.449v-15.772C94.073,332.341,90.29,328.559,85.624,328.559z"/>
            </g>
        </g>
        <g>
            <g>
                <path d="M154.907,228.294c-4.666,0-8.449,3.783-8.449,8.449v15.772c0,4.666,3.783,8.449,8.449,8.449
			c4.666,0,8.449-3.783,8.449-8.449v-15.772C163.357,232.077,159.574,228.294,154.907,228.294z"/>
            </g>
        </g>
        <g>
            <g>
                <path d="M154.907,278.99c-4.666,0-8.449,3.783-8.449,8.449v15.772c0,4.666,3.783,8.449,8.449,8.449
			c4.666,0,8.449-3.783,8.449-8.449v-15.772C163.357,282.773,159.574,278.99,154.907,278.99z"/>
            </g>
        </g>
        <g>
            <g>
                <path d="M224.191,328.559c-4.666,0-8.449,3.783-8.449,8.449v15.772c0,4.666,3.783,8.449,8.449,8.449
			c4.666,0,8.449-3.783,8.449-8.449v-15.772C232.641,332.341,228.858,328.559,224.191,328.559z"/>
            </g>
        </g>
        <g>
            <g>
                <path d="M340.791,165.207c-13.976,0-25.348,11.37-25.348,25.348c0,13.977,11.372,25.348,25.348,25.348s25.348-11.37,25.348-25.348
			C366.139,176.577,354.767,165.207,340.791,165.207z M340.791,199.004c-4.659,0-8.449-3.79-8.449-8.449s3.79-8.449,8.449-8.449
			c4.659,0,8.449,3.79,8.449,8.449S345.451,199.004,340.791,199.004z"/>
            </g>
        </g>
        <g>
            <g>
                <path d="M503.551,304.901c4.666,0,8.449-3.783,8.449-8.449v-18.025c0-4.666-3.782-8.449-8.449-8.449s-8.449,3.783-8.449,8.449
			v9.576h-6.047v-9.576c0-4.666-3.782-8.449-8.449-8.449c-4.667,0-8.449,3.783-8.449,8.449v9.576h-6.047v-9.576
			c0-4.666-3.782-8.449-8.449-8.449c-4.667,0-8.449,3.783-8.449,8.449v9.576h-6.047v-9.576c0-4.666-3.782-8.449-8.449-8.449
			c-4.667,0-8.449,3.783-8.449,8.449v9.576h-6.049v-9.576c0-4.666-3.782-8.449-8.449-8.449s-8.449,3.783-8.449,8.449v9.576h-6.385
			v-60.156c0-4.666-3.782-8.449-8.449-8.449h-3.19v-67.168c0-4.666-3.782-8.449-8.449-8.449h-0.563v-34.338
			c0-4.666-3.782-8.449-8.449-8.449h-1.008l-18.233-46.241V33.825c0-4.666-3.782-8.449-8.449-8.449s-8.449,3.783-8.449,8.449V54.75
			l-18.234,46.241h-1.008c-4.667,0-8.449,3.783-8.449,8.449v34.338h-0.563c-4.667,0-8.449,3.783-8.449,8.449v67.168h-3.199
			c-4.667,0-8.449,3.783-8.449,8.449v166.702h-12.392V312.91c4.432-6.199,6.759-13.193,6.759-20.401
			c0-29.118-16.869-40.135-30.422-48.987c-5.393-3.522-10.523-6.882-14.64-11.136v-14.794c0-4.666-3.783-8.449-8.449-8.449
			s-8.449,3.783-8.449,8.449v14.794c-2.65,2.738-5.723,5.104-9.013,7.381v-33.441c0-4.666-3.783-8.449-8.449-8.449h-0.086
			l-5.65-41.142c-0.575-4.183-4.148-7.3-8.37-7.3h-2.436l-13.274-58.022c7.079-4.501,11.79-12.409,11.79-21.401
			c0-11.016-7.065-20.407-16.898-23.895V30.582c0-4.666-3.783-8.449-8.449-8.449s-8.449,3.783-8.449,8.449v15.535
			c-9.834,3.488-16.898,12.879-16.898,23.895c0,1.182,0.088,2.343,0.246,3.482c-9.735-5.611-20.908-8.721-32.477-8.721
			c-35.873,0-65.059,29.186-65.059,65.059c0,35.868,29.186,65.048,65.059,65.048c5.098,0,10.087-0.587,14.939-1.726l-0.649,4.723
			h-0.084c-4.666,0-8.449,3.783-8.449,8.449v33.441c-3.29-2.277-6.363-4.644-9.013-7.381v-14.794c0-4.666-3.783-8.449-8.449-8.449
			s-8.449,3.783-8.449,8.449v14.794c-4.118,4.254-9.247,7.613-14.64,11.136c-13.555,8.851-30.423,19.868-30.423,48.987
			c0,7.208,2.328,14.201,6.759,20.401v127.954H8.449c-4.666,0-8.449,3.783-8.449,8.449c0,4.666,3.783,8.449,8.449,8.449h495.102
			c4.667,0,8.449-3.783,8.449-8.449c0-4.666-3.782-8.449-8.449-8.449h-95.355v-37.868c0-4.666-3.782-8.449-8.449-8.449h-2.816
			v-89.645H503.551z M340.138,79.39l8.518,21.601h-17.035L340.138,79.39z M320.896,117.891h38.484v25.889h-10.792v-5.07
			c0-4.666-3.782-8.449-8.449-8.449s-8.449,3.783-8.449,8.449v5.07h-10.793V117.891z M311.883,160.677h56.509v58.719h-56.509
			V160.677z M300.235,236.294h79.797v26.923h-7.133v-5.07c0-4.666-3.782-8.449-8.449-8.449c-4.667,0-8.449,3.783-8.449,8.449v5.07
			h-7.886v-5.07c0-4.666-3.782-8.449-8.449-8.449c-4.667,0-8.449,3.783-8.449,8.449v5.07h-7.886v-5.07
			c0-4.666-3.782-8.449-8.449-8.449c-4.667,0-8.449,3.783-8.449,8.449v5.07h-6.196V236.294z M300.235,280.116h79.797v81.113h-79.797
			V280.116z M300.235,378.128h79.797v16.419h-79.797V378.128z M260.805,292.509c0,2.672-0.679,5.339-1.978,7.886h-10.925
			c0.264-2.586,0.4-5.227,0.4-7.886c0-13.918-1.419-23.228-3.491-30.298C254.394,269.003,260.805,276.146,260.805,292.509z
			 M224.193,256.532c3.969,7.59,7.21,15.32,7.21,35.977c0,2.695-0.172,5.347-0.508,7.886h-13.405
			c-0.336-2.539-0.508-5.191-0.508-7.886C216.981,271.851,220.222,264.123,224.193,256.532z M181.14,197.877h-52.463l1.006-7.323
			h50.451L181.14,197.877z M176.807,166.333l1.006,7.323h-45.811l1.006-7.323H176.807z M154.907,61.562
			c4.659,0,8.449,3.79,8.449,8.449s-3.79,8.449-8.449,8.449s-8.449-3.79-8.449-8.449S150.249,61.562,154.907,61.562z
			 M154.907,107.921l9.497,41.514h-18.994L154.907,107.921z M97.329,177.982c-26.555,0-48.161-21.6-48.161-48.15
			c0-26.555,21.605-48.161,48.161-48.161c16.692,0,32.259,8.761,41.003,22.931l-10.256,44.831h-2.436c-4.222,0-7.796,3.117-8.37,7.3
			l-2.467,17.972C109.257,176.871,103.399,177.982,97.329,177.982z M85.624,247.653c4.431,3.865,9.193,6.975,13.849,10.016
			c3.742,2.443,7.189,4.695,10.209,7.121c-16.031-2.646-26.306-7.349-32.2-10.918C80.251,251.969,82.996,249.946,85.624,247.653z
			 M49.01,292.509c0-0.974,0.029-1.907,0.074-2.819c4.81,3.096,11.239,6.892,18.988,10.705H50.99
			C49.691,297.847,49.01,295.181,49.01,292.509z M115.478,440.864H55.77V317.293h59.708V440.864z M120.529,299.827
			c-31.485-4.977-56.716-20.453-66.433-27.133c2.214-3.338,5.071-6.067,8.404-8.636c2.642,2.1,6.628,4.835,12.207,7.584
			c12.79,6.302,28.476,10.169,46.671,11.53c0.558,2.749,0.858,5.827,0.858,9.336C122.238,294.981,121.647,297.451,120.529,299.827z
			 M177.439,440.864h-45.063v-87.521h45.063V440.864z M177.439,312.91v23.535h-45.063V312.91c4.432-6.201,6.759-13.193,6.759-20.401
			c0-21.281-9.01-32.888-19.152-41.052v-36.681h69.847v36.681c-10.141,8.164-19.152,19.772-19.152,41.052
			C170.679,299.716,173.007,306.71,177.439,312.91z M187.578,292.509c0-16.362,6.411-23.505,15.995-30.298
			c-2.072,7.07-3.491,16.381-3.491,30.298c0.001,2.659,0.136,5.301,0.4,7.886h-10.924
			C188.258,297.847,187.578,295.181,187.578,292.509z M207.756,402.996v37.868h-13.417V317.293h59.708v77.253h-37.841
			C211.539,394.546,207.756,398.329,207.756,402.996z M328.962,440.864H224.654v-0.001v-29.418h104.308V440.864z M391.297,440.864
			h-45.437v-0.001v-29.418h45.437V440.864z"/>
            </g>
        </g>
        <g>
            <g>
                <path d="M434.543,329.685h-9.506c-4.667,0-8.449,3.783-8.449,8.449s3.782,8.449,8.449,8.449h9.506
			c4.666,0,8.449-3.783,8.449-8.449S439.21,329.685,434.543,329.685z"/>
            </g>
        </g>
        <g>
            <g>
                <path d="M473.726,352.217h-9.506c-4.667,0-8.449,3.783-8.449,8.449c0,4.666,3.782,8.449,8.449,8.449h9.506
			c4.667,0,8.449-3.783,8.449-8.449C482.175,356,478.392,352.217,473.726,352.217z"/>
            </g>
        </g>
        <g>
            <g>
                <path d="M442.676,391.647h-9.506c-4.667,0-8.449,3.783-8.449,8.449c0,4.666,3.782,8.449,8.449,8.449h9.506
			c4.667,0,8.449-3.783,8.449-8.449C451.125,395.43,447.343,391.647,442.676,391.647z"/>
            </g>
        </g>
    </symbol>
    <symbol id="home" viewBox="0 0 502 502">
        <g>
            <g>
                <g>
                    <path d="M214.15,73.847c-57.789,0-104.803,47.015-104.803,104.803c0,57.789,47.015,104.804,104.803,104.804
				c57.789,0,104.804-47.015,104.804-104.804S271.939,73.847,214.15,73.847z M214.15,263.454c-46.761,0-84.803-38.043-84.803-84.804
				c0-46.761,38.042-84.803,84.803-84.803c46.761,0,84.804,38.042,84.804,84.803C298.954,225.411,260.911,263.454,214.15,263.454z"
                    />
                    <path d="M125.153,90.081c2.39,0,4.788-0.852,6.701-2.58c22.593-20.412,51.819-31.654,82.296-31.654
				c17.038,0,33.525,3.42,49.006,10.165c5.063,2.206,10.957-0.11,13.162-5.173c2.206-5.063-0.11-10.956-5.173-13.162
				c-18.016-7.85-37.192-11.83-56.995-11.83c-35.44,0-69.428,13.074-95.704,36.814c-4.098,3.702-4.418,10.026-0.716,14.124
				C119.704,88.97,122.423,90.081,125.153,90.081z"/>
                    <path d="M101.143,108.146c-4.889-2.567-10.935-0.685-13.502,4.205c-10.659,20.3-16.293,43.226-16.293,66.299
				c0,5.523,4.477,10,10,10s10-4.477,10-10c0-19.847,4.841-39.558,14-57.001C107.915,116.759,106.032,110.713,101.143,108.146z"/>
                    <path d="M466.486,360.732c-0.012-0.436-0.044-0.892-0.114-1.324l-10-62c-0.782-4.846-4.964-8.408-9.873-8.408h-89.722
				c23.905-47.183,36.022-84.27,36.022-110.35C392.8,80.142,312.658,0,214.15,0S35.5,80.142,35.5,178.65
				c0,95.435,163.74,310.329,170.711,319.431c1.892,2.471,4.827,3.919,7.939,3.919s6.047-1.449,7.939-3.919
				c0.275-0.359,23.494-30.74,52.411-73.167V490c0,5.523,4.477,10,10,10h172c5.523,0,10-4.477,10-10V361
				C466.5,360.909,466.489,360.822,466.486,360.732z M437.984,309l6.774,42H296.242l6.774-42H437.984z M284.627,297.408l-10,62
				c-0.084,0.519-0.127,1.066-0.127,1.592v27.973c-25.148,38.247-48.572,70.481-60.35,86.36
				c-14.172-19.112-45.222-61.928-75.95-110.545C84.097,279.187,55.5,214.821,55.5,178.65C55.5,91.17,126.67,20,214.15,20
				S372.8,91.17,372.8,178.65c0,24.519-12.964,61.638-38.522,110.35H294.5C289.592,289,285.409,292.562,284.627,297.408z M387.5,480
				h-34v-68h34V480z M446.5,480h-39v-78c0-5.523-4.477-10-10-10h-54c-5.523,0-10,4.477-10,10v78h-39V371h152V480z"/>
                </g>
            </g>
        </g>
    </symbol>
    <symbol id="london">
        <g>
            <g>
                <path d="M222.26,444.633c-2.062-4.186-7.124-5.911-11.312-3.851c-5.41,2.662-9.682,4.764-19.184,4.764
			c-9.492,0-13.77-2.103-19.187-4.765c-6.196-3.047-13.22-6.5-26.642-6.5c-13.415,0-20.437,3.453-26.631,6.499
			c-5.415,2.663-9.693,4.766-19.187,4.766c-9.491,0-13.77-2.103-19.186-4.765c-6.198-3.047-13.225-6.5-26.653-6.5
			c-13.422,0-20.445,3.453-26.642,6.5c-5.417,2.663-9.694,4.765-19.187,4.765c-4.666,0-8.449,3.783-8.449,8.449
			c0,4.666,3.784,8.45,8.45,8.45c13.422,0,20.445-3.453,26.642-6.5c5.417-2.663,9.694-4.765,19.187-4.765
			c9.5,0,13.78,2.104,19.199,4.768c6.196,3.046,13.22,6.498,26.64,6.498c13.424,0,20.447-3.454,26.643-6.501
			c5.413-2.662,9.69-4.764,19.174-4.764c9.492,0,13.77,2.103,19.187,4.765c6.196,3.047,13.22,6.5,26.642,6.5
			c13.435,0,20.453-3.454,26.646-6.501C222.597,453.884,224.32,448.819,222.26,444.633z"/>
            </g>
        </g>
        <g>
            <g>
                <path d="M503.552,472.021H8.452c-4.666,0-8.449,3.783-8.449,8.449c0,4.666,3.783,8.449,8.449,8.449h495.1
			c4.666,0,8.449-3.783,8.449-8.449C512.001,475.803,508.218,472.021,503.552,472.021z"/>
            </g>
        </g>
        <g>
            <g>
                <path d="M503.551,439.914h-7.411V262.852c0-4.666-3.783-8.449-8.449-8.449c-4.666,0-8.449,3.783-8.449,8.449v27.601h-4.881
			v-12.956c0-4.666-3.783-8.449-8.449-8.449c-4.666,0-8.449,3.783-8.449,8.449v12.956h-4.881v-12.956
			c0-4.666-3.783-8.449-8.449-8.449c-4.666,0-8.449,3.783-8.449,8.449v12.956h-4.883v-27.601c0-4.666-3.783-8.449-8.449-8.449
			c-4.666,0-8.449,3.783-8.449,8.449v63.279h-10.139v-11.078c0-4.666-3.783-8.449-8.449-8.449c-4.666,0-8.449,3.783-8.449,8.449
			v11.078h-7.886v-11.078c0-4.666-3.783-8.449-8.449-8.449c-4.666,0-8.449,3.783-8.449,8.449v11.078H351.94v-63.279
			c0-4.666-3.783-8.449-8.449-8.449c-4.666,0-8.449,3.783-8.449,8.449v27.601h-4.881v-12.956c0-4.666-3.783-8.449-8.449-8.449
			c-4.666,0-8.449,3.783-8.449,8.449v12.956h-4.881v-60.52c4.523-0.163,8.143-3.871,8.143-8.433v-72.43
			c0-4.666-3.783-8.449-8.449-8.449h-0.363l-11.942-20.821V91.808c0-0.826-0.121-1.648-0.359-2.44l-18.179-60.277
			c-1.077-3.568-4.363-6.009-8.09-6.009s-7.014,2.441-8.09,6.009l-18.179,60.277c-0.239,0.791-0.359,1.613-0.359,2.44v27.991
			l-11.94,20.821h-0.363c-4.666,0-8.449,3.783-8.449,8.449v72.43c0,4.563,3.62,8.271,8.143,8.433v131.683h-98.052v-10.892
			c0-4.666-3.783-8.449-8.449-8.449c-4.666,0-8.449,3.783-8.449,8.449v10.892H8.452c-4.666,0-8.449,3.783-8.449,8.449
			c0,4.666,3.783,8.449,8.449,8.449h106.501v22.108c-14.459-9.478-31.352-14.58-49.027-14.58c-23.955,0-46.49,9.341-63.449,26.302
			c-3.3,3.3-3.3,8.65,0,11.948c3.3,3.3,8.65,3.3,11.948,0c13.769-13.769,32.059-21.352,51.501-21.352s37.732,7.583,51.501,21.352
			c1.584,1.585,3.733,2.475,5.974,2.475s4.39-0.89,5.974-2.475c13.769-13.769,32.059-21.352,51.501-21.352
			c18.3,0,35.577,6.722,49.026,18.995v26.428c0,4.666,3.783,8.449,8.449,8.449h265.2c4.666,0,8.449-3.783,8.449-8.449
			C512,443.697,508.217,439.914,503.551,439.914z M229.903,400.621c-14.459-9.478-31.351-14.578-49.026-14.578
			s-34.566,5.101-49.026,14.58v-22.107h98.052V400.621z M269.141,60.793l6.807,22.566h-13.612L269.141,60.793z M259.411,100.258
			h19.46v13.343h-19.46V100.258z M255.856,130.499h26.57l5.804,10.121h-38.178L255.856,130.499z M238.658,157.519h60.966v55.532
			h-60.966V157.519z M278.15,254.403c-4.666,0-8.449,3.783-8.449,8.449v177.062h-22.9v-21.593c0-0.001,0-0.003,0-0.006V229.949
			h44.681v60.504h-4.883v-27.601C286.599,258.186,282.816,254.403,278.15,254.403z M335.042,439.915h-48.442V307.352h48.442V439.915
			z M413.901,439.915H351.94V343.03h61.961V439.915z M479.242,439.915h-48.442V307.352h48.442V439.915z"/>
            </g>
        </g>
        <g>
            <g>
                <path d="M299.931,316.364c-4.666,0-8.449,3.783-8.449,8.449v27.52c0,4.666,3.783,8.449,8.449,8.449
			c4.666,0,8.449-3.783,8.449-8.449v-27.52C308.38,320.147,304.597,316.364,299.931,316.364z"/>
            </g>
        </g>
        <g>
            <g>
                <path d="M321.711,316.364c-4.666,0-8.449,3.783-8.449,8.449v27.52c0,4.666,3.783,8.449,8.449,8.449
			c4.666,0,8.449-3.783,8.449-8.449v-27.52C330.16,320.147,326.377,316.364,321.711,316.364z"/>
            </g>
        </g>
        <g>
            <g>
                <path d="M299.931,380.095c-4.666,0-8.449,3.783-8.449,8.449v27.521c0,4.666,3.783,8.449,8.449,8.449
			c4.666,0,8.449-3.783,8.449-8.449v-27.521C308.38,383.878,304.597,380.095,299.931,380.095z"/>
            </g>
        </g>
        <g>
            <g>
                <path d="M321.711,380.095c-4.666,0-8.449,3.783-8.449,8.449v27.521c0,4.666,3.783,8.449,8.449,8.449
			c4.666,0,8.449-3.783,8.449-8.449v-27.521C330.16,383.878,326.377,380.095,321.711,380.095z"/>
            </g>
        </g>
        <g>
            <g>
                <path d="M444.131,316.364c-4.666,0-8.449,3.783-8.449,8.449v27.52c0,4.666,3.783,8.449,8.449,8.449
			c4.666,0,8.449-3.783,8.449-8.449v-27.52C452.581,320.147,448.798,316.364,444.131,316.364z"/>
            </g>
        </g>
        <g>
            <g>
                <path d="M465.911,316.364c-4.666,0-8.449,3.783-8.449,8.449v27.52c0,4.666,3.783,8.449,8.449,8.449
			c4.666,0,8.449-3.783,8.449-8.449v-27.52C474.36,320.147,470.577,316.364,465.911,316.364z"/>
            </g>
        </g>
        <g>
            <g>
                <path d="M444.131,380.095c-4.666,0-8.449,3.783-8.449,8.449v27.521c0,4.666,3.783,8.449,8.449,8.449
			c4.666,0,8.449-3.783,8.449-8.449v-27.521C452.581,383.878,448.798,380.095,444.131,380.095z"/>
            </g>
        </g>
        <g>
            <g>
                <path d="M465.911,380.095c-4.666,0-8.449,3.783-8.449,8.449v27.521c0,4.666,3.783,8.449,8.449,8.449
			c4.666,0,8.449-3.783,8.449-8.449v-27.521C474.36,383.878,470.577,380.095,465.911,380.095z"/>
            </g>
        </g>
        <g>
            <g>
                <path d="M269.141,160.101c-13.886,0-25.183,11.297-25.183,25.183s11.297,25.183,25.183,25.183s25.183-11.297,25.183-25.183
			S283.027,160.101,269.141,160.101z M269.141,193.57c-4.568,0-8.285-3.717-8.285-8.285s3.717-8.285,8.285-8.285
			c4.568,0,8.285,3.716,8.285,8.285S273.709,193.57,269.141,193.57z"/>
            </g>
        </g>
        <g>
            <g>
                <path d="M370.528,356.924c-4.666,0-8.449,3.783-8.449,8.449v52.573c0,4.666,3.783,8.449,8.449,8.449
			c4.666,0,8.449-3.783,8.449-8.449v-52.573C378.978,360.707,375.195,356.924,370.528,356.924z"/>
            </g>
        </g>
        <g>
            <g>
                <path d="M395.313,356.924c-4.666,0-8.449,3.783-8.449,8.449v52.573c0,4.666,3.783,8.449,8.449,8.449
			c4.666,0,8.449-3.783,8.449-8.449v-52.573C403.762,360.707,399.979,356.924,395.313,356.924z"/>
            </g>
        </g>
        <g>
            <g>
                <path d="M176.136,94.01h-41.135c1.017-2.768,1.573-5.755,1.573-8.872c0-14.209-11.56-25.769-25.769-25.769H51.093
			c-14.209,0-25.77,11.56-25.77,25.769c0,14.211,11.561,25.77,25.77,25.77h0.874c-1.017,2.767-1.573,5.756-1.573,8.871
			c0,14.209,11.56,25.77,25.77,25.77h99.971c14.209,0,25.769-11.56,25.769-25.77C201.905,105.569,190.346,94.01,176.136,94.01z
			 M176.136,128.651H76.165c-4.892,0-8.872-3.98-8.872-8.872s3.98-8.871,8.872-8.871c4.666,0,8.449-3.783,8.449-8.449
			c0-4.666-3.783-8.449-8.449-8.449H51.093c-4.892,0-8.872-3.98-8.872-8.872c0-4.892,3.98-8.871,8.872-8.871h59.711
			c4.892,0,8.871,3.979,8.871,8.871c0,4.892-3.979,8.872-8.871,8.872c-4.666,0-8.449,3.783-8.449,8.449
			c0,4.666,3.783,8.449,8.449,8.449h65.332c4.892,0,8.871,3.979,8.871,8.871S181.028,128.651,176.136,128.651z"/>
            </g>
        </g>
        <g>
            <g>
                <path d="M469.25,161.542c0.31-1.441,0.472-2.935,0.472-4.467c0-11.715-9.531-21.246-21.246-21.246H374.61
			c-11.715,0-21.247,9.531-21.247,21.246c0,11.716,9.531,21.247,21.247,21.247h27.472c-0.293,1.404-0.447,2.858-0.447,4.347
			c0,11.715,9.531,21.247,21.246,21.247h44.12c11.715,0,21.247-9.531,21.247-21.247C488.248,171.713,479.912,162.669,469.25,161.542
			z M467.001,187.018h-44.12c-2.397,0-4.347-1.95-4.347-4.349c0-2.397,1.95-4.347,4.347-4.347c4.666,0,8.449-3.783,8.449-8.449
			c0-4.666-3.783-8.449-8.449-8.449h-48.272c-2.397,0-4.349-1.95-4.349-4.349c0.001-2.396,1.951-4.347,4.35-4.347h73.867
			c2.397,0,4.347,1.95,4.347,4.347c0,2.397-1.95,4.349-4.347,4.349c-4.666,0-8.449,3.783-8.449,8.449
			c0,4.666,3.783,8.449,8.449,8.449h18.524c2.397,0,4.349,1.95,4.349,4.347C471.349,185.066,469.399,187.018,467.001,187.018z"/>
            </g>
        </g>
    </symbol>
</svg>
