<svg id="Layer_1" data-name="Layer 1" xmlns="http://www.w3.org/2000/svg" viewBox="0 0 122.88 68.22"><title>clouds</title><path d="M61.84,33c-.54.26-1.07.55-1.61.87a38.31,38.31,0,0,0-4.82,3.42l-3.46-4a27.65,27.65,0,0,1,3.87-3,27.13,27.13,0,0,1,3.41-1.9c.47-.24,1-.46,1.44-.67A21.15,21.15,0,0,0,53,19.88a3.79,3.79,0,0,1-.34-.2c-.43-.25-.87-.47-1.31-.69a22.78,22.78,0,0,0-12-2.08,21.66,21.66,0,0,0-11.18,4.37,21,21,0,0,0-7.69,13l-.34,1.8-1.79.32a24.63,24.63,0,0,0-4.7,1.26,16.06,16.06,0,0,0-3.56,1.91,11.46,11.46,0,0,0-2.15,2,12.15,12.15,0,0,0-2.74,7.95A14.41,14.41,0,0,0,8,57.77a13.45,13.45,0,0,0,2.27,2.44,11.24,11.24,0,0,0,3,1.77,15,15,0,0,0,3.64,1h52a26.31,26.31,0,0,0,6.66-2.5,14.56,14.56,0,0,0,4.58-3.87,15.89,15.89,0,0,0,2.71-9.22,18.33,18.33,0,0,0-2.57-9.93,16.25,16.25,0,0,0-1.61-2.07,12.5,12.5,0,0,0-9.28-4A18.34,18.34,0,0,0,61.84,33ZM52.91,13.92a25.4,25.4,0,0,1,12.9-11.8A28,28,0,0,1,86.66,1.9a26.43,26.43,0,0,1,14.1,12.89,20.85,20.85,0,0,1,3.43-.26,17.62,17.62,0,0,1,13.11,5.69,20.92,20.92,0,0,1,2.16,2.8,23.61,23.61,0,0,1,3.42,12.83,21.11,21.11,0,0,1-3.76,12.33,19.6,19.6,0,0,1-6.21,5.32,31.65,31.65,0,0,1-8.37,3.1l-.58.08H86.06a16,16,0,0,1-1.81,3,19.56,19.56,0,0,1-6.2,5.32,31.78,31.78,0,0,1-8.37,3.1l-.59.07H16.75l-.33,0a20.07,20.07,0,0,1-5.22-1.34,16.51,16.51,0,0,1-4.34-2.6,18.62,18.62,0,0,1-3.15-3.38A19.72,19.72,0,0,1,0,49.53,17.34,17.34,0,0,1,4,38.18a16.8,16.8,0,0,1,3.1-2.89,21,21,0,0,1,4.75-2.54,29.92,29.92,0,0,1,3.95-1.21A25.86,25.86,0,0,1,25,17.12a26.8,26.8,0,0,1,13.91-5.44,27.9,27.9,0,0,1,14,2.24ZM87.66,51.4h16a25.8,25.8,0,0,0,6.66-2.5A14.21,14.21,0,0,0,114.91,45a15.87,15.87,0,0,0,2.71-9.22,18.27,18.27,0,0,0-2.57-9.93,14.63,14.63,0,0,0-1.61-2.07,12.43,12.43,0,0,0-9.27-4,18.34,18.34,0,0,0-7.47,1.65c-.53.27-1.07.56-1.6.87a37.68,37.68,0,0,0-4.83,3.42l-3.46-4a28.25,28.25,0,0,1,3.87-3,27.85,27.85,0,0,1,3.41-1.9c.48-.23,1-.46,1.44-.67A21.12,21.12,0,0,0,84.75,6.81a22.71,22.71,0,0,0-8.52-1.55A22.48,22.48,0,0,0,67.83,7,20.25,20.25,0,0,0,57.5,16.52a26.45,26.45,0,0,1,8.39,9.82,20.94,20.94,0,0,1,3.43-.26,17.57,17.57,0,0,1,13.11,5.69,20.67,20.67,0,0,1,2.17,2.79A23.64,23.64,0,0,1,88,47.4a26.67,26.67,0,0,1-.36,4Z"/></svg>