<?xml version="1.0" encoding="utf-8"?><svg version="1.1" id="Layer_1" xmlns="http://www.w3.org/2000/svg" xmlns:xlink="http://www.w3.org/1999/xlink" x="0px" y="0px" viewBox="0 0 122.88 116.82" style="enable-background:new 0 0 122.88 116.82" xml:space="preserve"><style type="text/css">.st0{fill-rule:evenodd;clip-rule:evenodd;}</style><g><path class="st0" d="M59.63,61.55h22.58l-7.87,15.24l13.4,0.24l-32.64,39.8l6.28-26.18H50.81L59.63,61.55L59.63,61.55z M44.2,71.76 c2.03,0,3.68,1.65,3.68,3.68c0,2.03-1.65,3.68-3.68,3.68H23.38l-0.46-0.04c-2.67-0.34-5.09-0.97-7.29-1.88 c-2.25-0.93-4.26-2.14-6.04-3.63H9.58c-1.68-1.4-3.15-2.99-4.4-4.72C1.84,64.25,0.04,58.63,0,53.03 c-0.04-5.66,1.72-11.29,5.52-15.85c1.23-1.48,2.68-2.84,4.34-4.04c1.93-1.4,4.14-2.58,6.64-3.55c1.72-0.67,3.56-1.23,5.5-1.68 c2.2-8.74,6.89-15.47,12.92-20.14c5.64-4.37,12.43-6.92,19.42-7.59c6.96-0.67,14.12,0.51,20.55,3.6 c7.37,3.54,13.43,9.56,17.11,16.87c1.6-0.25,3.2-0.38,4.79-0.36c6.72,0.05,13.2,2.45,18.3,7.95c5.31,5.72,7.88,14.14,7.79,21.82 c-0.07,6.31-1.77,12.59-5.25,17.22c-2.27,3.02-5.18,5.47-8.67,7.42c-3.36,1.88-7.28,3.31-11.68,4.33c-1.98,0.45-3.95-0.78-4.4-2.76 c-0.45-1.98,0.78-3.95,2.76-4.4c3.71-0.86,6.97-2.04,9.72-3.58c2.63-1.47,4.78-3.26,6.39-5.41c2.5-3.33,3.73-8.04,3.78-12.87 c0.06-5.07-1.18-10.16-3.59-13.86c-0.69-1.07-1.44-2.03-2.25-2.89c-3.61-3.89-8.19-5.59-12.95-5.62 c-3.46-0.02-7.02,0.81-10.41,2.31c-0.75,0.37-1.51,0.78-2.25,1.21c-2.25,1.32-4.48,2.93-6.74,4.78l-4.84-5.54 c1.67-1.55,3.48-2.96,5.4-4.21c1.53-1,3.13-1.88,4.77-2.65c0.66-0.33,1.33-0.64,2-0.93c-3.19-5.65-7.78-9.7-12.98-12.2 c-5.2-2.49-11.02-3.45-16.69-2.9c-5.63,0.54-11.1,2.59-15.62,6.1c-5.23,4.06-9.2,10.11-10.73,18.14l-0.48,2.51l-2.5,0.44 c-2.45,0.43-4.64,1.02-6.56,1.77c-1.86,0.72-3.52,1.61-4.97,2.66c-1.16,0.84-2.16,1.78-3.01,2.8c-2.63,3.15-3.85,7.1-3.82,11.1 c0.03,4.06,1.35,8.16,3.79,11.53c0.91,1.25,1.96,2.4,3.16,3.4l-0.01,0.01c1.2,1,2.58,1.83,4.13,2.47c1.53,0.63,3.22,1.08,5.09,1.34 H44.2L44.2,71.76z M57.07,85.6l6.59-18.76h10.23l-5.32,14.28l8.03,0.14l-13.51,20.22l4.03-15.88H57.07L57.07,85.6z"/></g></svg>