<link rel="stylesheet" href="css/slyle.css">


          <svg id="call" xmlns="http://www.w3.org/2000/svg" x="0px" >
            <g fill="none" fill-rule="nonzero" stroke="none" stroke-width="1" stroke-linecap="butt" stroke-linejoin="miter" stroke-miterlimit="10"
              stroke-dasharray="" stroke-dashoffset="0" font-family="none" font-weight="none" font-size="none" text-anchor="none"
              style="mix-blend-mode: normal">
              <path d="M0,172v-172h172v172z" fill="none"></path>
              <g fill="#f1c40f">
                <path d="M88.9552,5.375c-1.075,0 -1.8823,0.5375 -2.4198,1.34375c-0.5375,1.34375 -19.3479,33.59375 -19.3479,57.78125v3.2229c-21.5,-10.75 -57.7802,-8.8656 -59.3927,-8.8656c-1.075,0 -1.88335,0.5375 -2.1521,1.34375c-0.5375,0.80625 -0.2698,1.88125 0.2677,2.6875c0.80625,1.34375 21.2323,32.24895 42.7323,43.2677c1.6125,0.80625 3.2271,1.6146 4.8396,2.1521l-4.03125,3.2229c-18.00625,16.125 -29.83335,51.3302 -30.37085,52.67395c-0.26875,0.80625 0.00315,1.88125 0.54065,2.6875c0.5375,0.5375 1.34165,0.80835 1.87915,0.80835h0.5354c1.6125,-0.26875 37.89585,-8.0625 55.9021,-24.1875c4.3,-4.03125 7.79585,-7.52815 10.2146,-11.29065c2.41875,3.49375 5.90935,7.2594 10.20935,11.29065c18.00625,16.125 54.2896,23.65 55.9021,24.1875c1.075,0.26875 1.88125,-0.0021 2.6875,-0.80835c0.5375,-0.80625 0.80415,-1.6125 0.5354,-2.6875c-0.5375,-1.6125 -12.35935,-36.54895 -30.3656,-52.67395c-1.34375,-1.34375 -2.6917,-2.42085 -4.3042,-3.49585c2.95625,-1.6125 5.91355,-3.49165 9.13855,-5.9104c19.35,-14.5125 33.8646,-48.6427 34.4021,-49.98645c0.26875,-0.80625 0.2698,-1.88125 -0.2677,-2.6875c-0.5375,-0.80625 -1.61355,-1.07605 -2.4198,-1.07605c-1.34375,0.26875 -33.5948,4.2979 -53.4823,16.6604v-0.5354c0,-24.1875 -18.00625,-56.4375 -18.8125,-57.78125c-0.5375,-0.80625 -1.3448,-1.34375 -2.4198,-1.34375zM88.9552,13.7052c4.8375,9.675 15.8573,33.0573 15.8573,50.7948c0,1.6125 0.00105,3.22605 -0.2677,5.1073l-7.5271,12.36145l4.5719,2.6875l7.52185,-12.36145c14.24375,-10.75 39.5094,-16.12395 50.2594,-17.73645c-4.56875,9.675 -16.3948,32.7854 -30.63855,43.5354c-4.03125,2.95625 -7.7969,5.37395 -11.29065,6.98645l-12.09375,-2.9552l-1.0708,5.375l12.36145,2.9552c2.41875,1.6125 4.5677,3.225 6.98645,5.375c13.16875,11.825 23.3802,35.74375 27.1427,45.6875c-10.48125,-2.6875 -35.47395,-9.9427 -48.6427,-21.7677c-5.375,-4.56875 -8.8677,-9.13855 -11.0177,-13.1698l0.2677,-11.0177h-5.375l-0.5354,11.2854c-2.15,4.03125 -5.91565,8.3323 -11.29065,13.1698c-13.16875,11.825 -38.16145,19.0802 -48.6427,21.7677c3.7625,-9.94375 13.97395,-33.8625 27.1427,-45.6875c2.41875,-2.15 4.5677,-4.0302 6.98645,-5.6427l13.1698,-2.9552l-1.07605,-5.375l-12.89685,2.6875c-2.6875,-1.075 -5.10625,-2.1521 -8.0625,-3.49585c-15.85625,-8.0625 -31.71145,-28.75205 -37.8927,-37.35205c10.75,0 36.8177,0.5354 52.67395,8.5979c0.80625,0.5375 1.61355,0.80625 2.4198,1.34375l7.78955,10.75l4.3042,-3.2229l-7.2594,-10.2146c-0.26875,-1.88125 -0.2677,-4.3 -0.2677,-6.71875c0,-17.7375 11.28645,-41.1198 16.3927,-50.7948zM88.6875,86c-5.9125,0 -10.75,4.8375 -10.75,10.75c0,5.9125 4.8375,10.75 10.75,10.75c5.9125,0 10.75,-4.8375 10.75,-10.75c0,-5.9125 -4.8375,-10.75 -10.75,-10.75zM88.6875,91.375c2.95625,0 5.375,2.41875 5.375,5.375c0,2.95625 -2.41875,5.375 -5.375,5.375c-2.95625,0 -5.375,-2.41875 -5.375,-5.375c0,-2.95625 2.41875,-5.375 5.375,-5.375z"></path>
              </g>
            </g>
          </svg>    

        <svg id="mail" xmlns="http://www.w3.org/2000/svg" >
            <g fill="none" fill-rule="nonzero" stroke="none" stroke-width="1" stroke-linecap="butt" stroke-linejoin="miter" stroke-miterlimit="10"
              stroke-dasharray="" stroke-dashoffset="0" font-family="none" font-weight="none" font-size="none" text-anchor="none"
              style="mix-blend-mode: normal">
              <path d="M0,172v-172h172v172z" fill="none"></path>
              <g fill="#9b59b6">
                <path d="M86,5.375c-7.40944,0 -13.4375,6.02806 -13.4375,13.4375v34.74657l-24.56937,-24.56937c-2.53801,-2.53801 -5.91289,-3.93611 -9.50205,-3.93611c-7.4269,0 -13.4375,6.00992 -13.4375,13.4375c0,3.5895 1.39844,6.9637 3.93611,9.50205l24.56937,24.56937h-34.74657c-7.40944,0 -13.4375,6.02806 -13.4375,13.4375c0,7.40944 6.02806,13.4375 13.4375,13.4375h34.74657l-24.56937,24.56937c-5.25104,5.25205 -5.25171,13.75105 0,19.00343c5.25205,5.25171 13.75139,5.25205 19.00343,0l24.56937,-24.56937v34.74657c0,7.40944 6.02806,13.4375 13.4375,13.4375c7.40944,0 13.4375,-6.02806 13.4375,-13.4375v-34.74657l24.56937,24.56937c2.53801,2.53801 5.91289,3.93611 9.50205,3.93611c7.42623,0 13.4375,-6.00992 13.4375,-13.4375c0,-3.5895 -1.3981,-6.9637 -3.93611,-9.50205l-24.56937,-24.56937h34.74657c7.40944,0 13.4375,-6.02806 13.4375,-13.4375c0,-7.40944 -6.02806,-13.4375 -13.4375,-13.4375h-34.74657l24.56937,-24.56937c5.25138,-5.25171 5.25272,-13.75139 0,-19.00343c-5.25137,-5.25104 -13.75172,-5.25171 -19.00343,0l-24.56937,24.56937v-34.74657c0,-7.40944 -6.02806,-13.4375 -13.4375,-13.4375zM86,12.09375c3.70438,0 6.71875,3.01403 6.71875,6.71875v42.85696c0,1.35887 0.81896,2.58345 2.07402,3.10348c1.2554,0.52003 2.69975,0.23246 3.66054,-0.72765l30.30392,-30.30458c1.26917,-1.26884 2.9571,-1.96773 4.75168,-1.96773c3.71278,0 6.71875,3.00463 6.71875,6.71875c0,1.79458 -0.69889,3.48219 -1.96773,4.75102l-30.30458,30.30392c-0.96078,0.96078 -1.24833,2.4058 -0.7283,3.66119c0.52003,1.2554 1.74527,2.07402 3.10414,2.07402h42.85631c3.70438,0 6.71875,3.01403 6.71875,6.71875c0,3.70438 -3.01437,6.71809 -6.71875,6.71809h-42.85631c-1.35887,0 -2.58411,0.81896 -3.10414,2.07402c-0.52003,1.2554 -0.23248,2.69975 0.7283,3.66054l30.30458,30.30458c1.26884,1.26884 1.96773,2.95611 1.96773,4.75102c0,3.71244 -3.00463,6.71875 -6.71875,6.71875c-1.79458,0 -3.48185,-0.69889 -4.75102,-1.96773l-30.30458,-30.30458c-0.96078,-0.96078 -2.40547,-1.248 -3.66054,-0.7283c-1.25506,0.52003 -2.07402,1.74527 -2.07402,3.10414v42.85631c0,3.70472 -3.01437,6.71875 -6.71875,6.71875c-3.70472,0 -6.71875,-3.01403 -6.71875,-6.71875v-42.85631c0,-1.35887 -0.81896,-2.58411 -2.07402,-3.10414c-1.25842,-0.52037 -2.70143,-0.2308 -3.66054,0.7283l-30.30458,30.30458c-1.26884,1.26884 -2.95644,1.96773 -4.75102,1.96773c-3.71278,0 -6.71875,-3.00496 -6.71875,-6.71875c0,-1.79492 0.69921,-3.48185 1.96838,-4.75102l30.30392,-30.30458c0.96078,-0.96078 1.24833,-2.40514 0.7283,-3.66054c-0.52003,-1.25506 -1.74527,-2.07402 -3.10414,-2.07402h-42.85631c-3.70472,0 -6.71875,-3.01403 -6.71875,-6.71875c0,-3.70472 3.01403,-6.71875 6.71875,-6.71875h42.85631c1.35853,0 2.58411,-0.81896 3.10414,-2.07402c0.52003,-1.25506 0.23214,-2.69975 -0.7283,-3.66054l-30.30392,-30.30458c-1.26917,-1.26884 -1.96838,-2.95644 -1.96838,-4.75102c0,-3.71345 3.00496,-6.71875 6.71875,-6.71875c1.79458,0 3.48219,0.69955 4.75102,1.96838l30.30458,30.30392c0.96078,0.96045 2.40514,1.24867 3.66054,0.7283c1.2554,-0.52003 2.07402,-1.74527 2.07402,-3.10414v-42.85631c0,-3.70472 3.01403,-6.71875 6.71875,-6.71875zM86,72.5625c-7.40944,0 -13.4375,6.02806 -13.4375,13.4375c0,7.40944 6.02806,13.4375 13.4375,13.4375c7.40944,0 13.4375,-6.02806 13.4375,-13.4375c0,-7.40944 -6.02806,-13.4375 -13.4375,-13.4375zM86,79.28125c3.70438,0 6.71875,3.01403 6.71875,6.71875c0,3.70472 -3.01437,6.71875 -6.71875,6.71875c-3.70472,0 -6.71875,-3.01403 -6.71875,-6.71875c0,-3.70472 3.01403,-6.71875 6.71875,-6.71875z"></path>
              </g>
            </g>
          </svg>

        <svg id="igcontact" xmlns="http://www.w3.org/2000/svg">
            <g fill="none" fill-rule="nonzero" stroke="none" stroke-width="1" stroke-linecap="butt" stroke-linejoin="miter"
              stroke-miterlimit="10" stroke-dasharray="" stroke-dashoffset="0" font-family="none" font-weight="none" font-size="none"
              text-anchor="none" style="mix-blend-mode: normal">
              <path d="M0,172v-172h172v172z" fill="none"></path>
              <g fill="#e67e22">
                <path d="M168.2375,0.1075c-0.18812,0.02687 -0.36281,0.05375 -0.5375,0.1075c-1.11531,0.22844 -2.02906,0.99438 -2.4725,2.0425c-2.43219,5.2675 -7.60562,10.99188 -12.1475,15.265c-2.37844,2.24406 -4.47469,4.01781 -6.02,5.2675c-18.15406,-17.63 -36.68437,-22.99156 -52.5675,-22.575c-5.40187,0.14781 -10.48125,0.92719 -15.1575,2.15c-18.69156,4.87781 -31.0675,16.125 -31.0675,16.125c-1.38406,1.27656 -1.47812,3.44 -0.215,4.8375c0,0 0.95406,1.02125 2.15,2.15c-26.80781,11.79813 -33.54,42.14 -33.54,42.14c-0.24187,1.06156 0.04031,2.17688 0.7525,3.01c0,0 2.02906,1.90813 5.375,4.1925c-23.9725,16.09813 -22.2525,44.075 -22.2525,44.075c0.09406,1.27656 0.87344,2.39188 2.0425,2.9025c0,0 2.55313,1.075 6.45,2.15c-9.33906,20.1025 -2.58,39.4525 -2.58,39.4525c0.38969,1.06156 1.27656,1.86781 2.365,2.15c0,0 21.56719,6.49031 38.8075,-2.9025c1.31688,4.25969 2.6875,6.9875 2.6875,6.9875c0.47031,0.94063 1.34375,1.6125 2.365,1.8275c0,0 6.88,1.33031 16.125,-0.9675c8.62688,-2.15 19.55156,-7.61906 29.455,-19.6725c1.77375,2.37844 3.1175,3.7625 3.1175,3.7625c0.83313,0.71219 1.94844,0.99438 3.01,0.7525c0,0 28.9175,-5.68406 43.215,-32.5725c0.34938,0.34938 1.075,1.1825 1.075,1.1825c1.37063,1.29 3.52063,1.24969 4.8375,-0.1075c0,0 11.24719,-12.48344 16.125,-31.175c4.6225,-17.72406 3.30563,-41.495 -17.845,-64.93c1.6125,-1.31687 3.73563,-3.01 6.02,-5.16c4.85094,-4.58219 10.52156,-10.6425 13.6525,-17.415c0.57781,-1.10187 0.5375,-2.41875 -0.13437,-3.46687c-0.67188,-1.04813 -1.85438,-1.65281 -3.09063,-1.58563zM94.6,6.9875c14.45875,-0.51062 31.33625,4.35375 48.6975,21.715c0.18813,0.18813 0.34938,0.34938 0.5375,0.5375c0.04031,0.04031 0.06719,0.06719 0.1075,0.1075c0.22844,0.33594 0.52406,0.63156 0.86,0.86c0.06719,0.08063 0.14781,0.13438 0.215,0.215c21.44625,22.49438 22.2525,44.02125 17.9525,60.5225c-3.49375,13.39719 -9.3525,21.5 -12.1475,25.0475c-3.49375,-3.57437 -14.20344,-14.99625 -20.855,-33.2175c-0.60469,-1.70656 -2.44562,-2.64719 -4.1925,-2.15c-14.32437,4.04469 -30.18062,-1.02125 -32.5725,-1.8275c-0.80625,-2.39187 -5.87219,-18.24812 -1.8275,-32.5725c0.49719,-1.74687 -0.44344,-3.58781 -2.15,-4.1925c-18.22125,-6.65156 -29.62969,-17.36125 -33.2175,-20.855c3.5475,-2.795 11.65031,-8.65375 25.0475,-12.1475c4.23281,-1.10187 8.72094,-1.86781 13.545,-2.0425zM56.2225,30.6375c6.38281,5.16 16.07125,11.9325 28.0575,16.77c-1.02125,4.89125 -1.16906,9.75563 -0.9675,14.2975c-1.58562,1.45125 -6.08719,4.24625 -10.6425,6.5575c-4.55531,2.31125 -9.37937,4.36719 -11.7175,5.16c-2.21719,0.7525 -4.31344,1.20938 -6.3425,1.6125c-0.18812,0.02688 -0.36281,0.05375 -0.5375,0.1075c-0.1075,0.02688 -0.215,0.06719 -0.3225,0.1075c-17.06562,3.03688 -27.14375,-5.29437 -29.885,-7.955c1.27656,-4.66281 8.85531,-28.42031 32.3575,-36.6575zM84.065,69.66c1.1825,7.71313 3.1175,13.115 3.1175,13.115c0.34938,0.95406 1.08844,1.69313 2.0425,2.0425c0,0 6.14094,2.19031 14.62,3.3325c-5.81844,7.31 -9.9975,15.57406 -11.7175,20.64c-0.01344,0.02688 0.01344,0.08063 0,0.1075c-0.65844,1.94844 -1.10187,3.85656 -1.505,5.6975c-15.64125,14.17656 -38.99562,10.03781 -42.57,9.3525c-0.16125,-0.72562 -0.56437,-2.43219 -0.86,-4.6225c0.16125,-0.72562 0.08063,-1.47812 -0.215,-2.15c-0.83312,-8.53281 -0.28219,-23.09906 9.89,-35.5825c2.01563,-0.41656 4.085,-0.99437 6.235,-1.72c3.02344,-1.02125 7.88781,-3.05031 12.685,-5.4825c2.98313,-1.505 5.81844,-3.13094 8.2775,-4.73zM29.5625,78.69c4.81063,2.15 10.91125,3.91031 18.1675,3.87c-7.25625,11.90563 -8.26406,24.91313 -7.74,33.97c-14.31094,6.03344 -29.61625,0.67188 -32.5725,-0.43c0,-5.53625 1.34375,-25.49094 21.93,-37.3025c0.06719,-0.02687 0.14781,-0.06719 0.215,-0.1075zM124.7,87.72c5.22719,12.96719 12.72531,23.28719 17.9525,29.5625c-11.05906,23.435 -33.62062,29.80438 -37.9475,30.8525c-2.64719,-2.72781 -10.99187,-12.72531 -8.0625,-29.67c0.7525,-0.90031 0.99438,-2.10969 0.645,-3.225c0.33594,-1.37062 0.79281,-2.72781 1.29,-4.1925c1.53188,-4.56875 7.12188,-15.11719 13.8675,-22.2525c3.93719,0.05375 8.11625,-0.20156 12.255,-1.075zM40.7425,123.5175c0.44344,2.795 0.86,4.515 0.86,4.515c0.34938,1.16906 1.29,2.06938 2.4725,2.365c0,0 1.80063,0.45688 4.6225,0.86c-3.84312,8.89563 -3.93719,17.50906 -2.795,24.4025c-12.80594,8.0625 -30.24781,4.24625 -33.2175,3.5475c-0.80625,-2.64719 -4.99875,-17.42844 3.3325,-33.755c7.04125,1.11531 15.92344,1.26313 24.725,-1.935zM89.5475,123.9475c-0.1075,8.6 2.28438,15.5875 4.945,20.7475c-9.39281,12.32219 -19.51125,17.2 -27.305,19.135c-5.93937,1.47813 -9.54062,1.29 -11.395,1.075c-1.06156,-2.15 -8.0625,-17.22687 0,-33.0025c9.25844,0.44344 22.41375,-0.69875 33.755,-7.955z"></path>
              </g>
            </g>
          </svg>

        <svg id="find" xmlns="http://www.w3.org/2000/svg">
            <g fill="none" fill-rule="nonzero" stroke="none" stroke-width="1" stroke-linecap="butt" stroke-linejoin="miter"
              stroke-miterlimit="10" stroke-dasharray="" stroke-dashoffset="0" font-family="none" font-weight="none" font-size="none"
              text-anchor="none" style="mix-blend-mode: normal">
              <path d="M0,172v-172h172v172z" fill="none"></path>
              <g fill="#2ecc71">
                <path d="M70.305,0c-5.0525,0 -10.97844,1.38406 -16.125,4.6225c-5.14656,3.23844 -9.46,8.84188 -9.46,16.2325c0,15.85625 8.85531,29.60281 16.985,40.205c4.05813,5.29438 8.0625,9.93031 10.6425,13.33c0.76594,1.00781 1.02125,1.59906 1.505,2.365c-0.1075,-0.04031 -0.1075,-0.05375 -0.215,-0.1075c-2.92937,-1.29 -7.29656,-3.84312 -12.3625,-6.5575c-10.13187,-5.41531 -23.42156,-11.825 -37.41,-11.825c-4.945,0 -10.69625,1.27656 -15.05,5.375c-4.35375,4.09844 -6.59781,10.97844 -4.515,19.995c1.075,4.6225 2.74125,7.82063 4.085,9.9975c1.34375,2.17688 2.06938,3.29219 2.2575,4.1925c0.14781,0.72563 0.01344,3.58781 -0.215,7.095c-0.22844,3.50719 -0.45687,7.8475 0.5375,12.5775c1.02125,4.85094 3.49375,10.34688 8.0625,14.5125c4.56875,4.16563 11.5025,6.74563 19.8875,5.0525c13.2225,-2.66062 23.31406,-13.67937 31.39,-23.435c4.04469,-4.87781 7.49813,-9.51375 10.4275,-12.7925c0.29563,-0.3225 0.57781,-0.56437 0.86,-0.86c-2.52625,18.71844 -0.83312,33.41906 2.0425,44.1825c3.26531,12.20125 8.15656,19.73969 9.1375,21.3925c3.38625,5.67063 9.94375,6.90688 14.835,6.3425c2.44563,-0.28219 4.52844,-0.99437 6.3425,-2.15c0.90031,-0.57781 1.8275,-1.22281 2.4725,-2.4725c0.645,-1.24969 0.63156,-3.29219 -0.215,-4.6225c-0.17469,-0.28219 -0.38969,-0.5375 -0.645,-0.7525c-16.64906,-14.80812 -21.52687,-38.08187 -25.2625,-64.3925c1.27656,0.61813 2.66063,1.42438 4.1925,2.58c3.38625,2.55313 7.17563,6.235 11.2875,10.2125c8.23719,7.96844 17.79125,17.29406 29.5625,21.285c11.825,4.00438 23.87844,-3.41312 26.1225,-14.0825c0.99438,-4.68969 0.88688,-8.68062 0.645,-11.825c-0.24187,-3.14437 -0.49719,-5.50937 -0.3225,-6.3425c0.40313,-1.935 4.17906,-5.36156 6.1275,-14.62c1.02125,-4.86437 1.08844,-11.42187 -1.6125,-17.3075c-2.70094,-5.88562 -8.84187,-10.75 -18.1675,-10.75c-13.57187,0 -26.445,6.43656 -36.4425,12.04c-4.99875,2.80844 -9.27187,5.44219 -12.3625,6.9875c-0.24187,0.12094 -0.30906,0.1075 -0.5375,0.215c0.36281,-0.60469 0.48375,-0.90031 0.9675,-1.6125c2.52625,-3.70875 6.40969,-8.84187 10.535,-14.62c8.23719,-11.56969 17.5225,-26.015 17.5225,-40.5275c0,-5.45562 -2.84875,-10.48125 -7.4175,-13.8675c-4.56875,-3.38625 -10.81719,-5.2675 -18.275,-5.2675c-9.40625,0 -13.62562,2.4725 -15.91,2.4725c-2.28437,0 -6.50375,-2.4725 -15.91,-2.4725zM70.305,6.88c8.12969,0 10.65594,2.4725 15.91,2.4725c5.25406,0 7.78031,-2.4725 15.91,-2.4725c6.28875,0 11.0725,1.55875 14.19,3.87c3.1175,2.31125 4.6225,5.14656 4.6225,8.385c0,11.46219 -8.21031,25.27594 -16.2325,36.55c-4.01781,5.63031 -7.88781,10.68281 -10.6425,14.7275c-1.37062,2.02906 -2.40531,3.72219 -3.1175,5.4825c-0.36281,0.87344 -0.72562,1.78719 -0.7525,2.9025c-0.02687,1.11531 0.37625,2.63375 1.3975,3.655c1.67969,1.66625 4.01781,1.65281 5.6975,1.29c1.67969,-0.36281 3.26531,-1.04812 5.0525,-1.935c3.57438,-1.78719 7.82063,-4.36719 12.685,-7.095c9.72875,-5.45562 21.76875,-11.18 33.11,-11.18c7.2025,0 10.11844,2.82188 11.9325,6.7725c1.81406,3.95063 1.94844,9.36594 1.1825,13.0075c-1.63937,7.76688 -4.99875,9.23156 -6.1275,14.62c-0.59125,2.83531 0,5.29438 0.215,8.17c0.215,2.87563 0.26875,6.16781 -0.5375,9.9975c-1.33031,6.3425 -9.31219,11.74438 -17.3075,9.03c-9.70187,-3.29219 -18.65125,-11.7175 -26.875,-19.6725c-4.11187,-3.9775 -8.11625,-7.79375 -12.04,-10.75c-3.7625,-2.84875 -7.525,-5.09281 -11.825,-5.2675c-0.13437,0 -0.29562,0 -0.43,0c-0.1075,0 -0.215,0 -0.3225,0c-0.14781,-0.01344 -0.28219,-0.01344 -0.43,0c-0.1075,0.02688 -0.215,0.06719 -0.3225,0.1075c-0.1075,0.01344 -0.215,0.09406 -0.3225,0.1075c-1.66625,0.30906 -3.10406,1.06156 -4.4075,2.0425c-1.62594,1.22281 -3.225,2.80844 -4.8375,4.6225c-3.23844,3.62813 -6.71875,8.2775 -10.6425,13.0075c-7.83406,9.46 -17.3075,18.90656 -27.52,20.9625c-6.53062,1.31688 -10.69625,-0.3225 -13.8675,-3.225c-3.17125,-2.9025 -5.13312,-7.31 -5.9125,-10.965c-0.79281,-3.77594 -0.7525,-7.45781 -0.5375,-10.75c0.215,-3.29219 0.72563,-6.10062 0.1075,-9.03c-0.57781,-2.75469 -1.96187,-4.47469 -3.1175,-6.3425c-1.15562,-1.86781 -2.33812,-4.00437 -3.225,-7.8475c-1.72,-7.40406 -0.1075,-11.12625 2.4725,-13.545c2.58,-2.41875 6.75906,-3.5475 10.4275,-3.5475c11.825,0 24.28156,5.77813 34.185,11.0725c4.95844,2.64719 9.23156,5.20031 12.7925,6.7725c1.77375,0.79281 3.37281,1.35719 5.16,1.505c0.90031,0.06719 1.85438,0.02688 2.9025,-0.43c1.04813,-0.45687 2.06938,-1.35719 2.58,-2.365c1.15563,-2.2575 0.48375,-4.42094 -0.3225,-6.1275c-0.80625,-1.70656 -2.02906,-3.39969 -3.44,-5.2675c-2.82187,-3.72219 -6.62469,-8.11625 -10.535,-13.2225c-7.82062,-10.19906 -15.695,-22.87062 -15.695,-36.12c0,-4.89125 2.45906,-8.04906 6.235,-10.4275c3.77594,-2.37844 8.85531,-3.5475 12.5775,-3.5475zM87.29,119.755c3.655,17.18656 9.71531,32.73375 21.6075,44.6125c-0.67187,0.24188 -1.19594,0.5375 -2.15,0.645c-3.17125,0.36281 -6.47687,-0.34937 -8.0625,-3.01c-1.38406,-2.32469 -5.375,-8.30437 -8.385,-19.565c-1.62594,-6.06031 -2.82187,-13.70625 -3.01,-22.6825z"></path>
              </g>
            </g>
        </svg>

    