<?xml version="1.0" encoding="utf-8"?><svg version="1.1" id="Layer_1" xmlns="http://www.w3.org/2000/svg" xmlns:xlink="http://www.w3.org/1999/xlink" x="0px" y="0px" viewBox="0 0 122.88 104.36" style="enable-background:new 0 0 122.88 104.36" xml:space="preserve"><g><path d="M47.07,96.74c1.83,0,3.32,1.65,3.32,3.68c0,2.03-1.48,3.68-3.32,3.68h-9.35c-1.83,0-3.32-1.65-3.32-3.68 c0-2.03,1.48-3.68,3.32-3.68H47.07L47.07,96.74z M14.3,67.94c1.56,1.3,1.76,3.62,0.46,5.18c-1.3,1.56-3.62,1.76-5.18,0.46 c-1.68-1.4-3.15-2.99-4.4-4.72C1.84,64.25,0.04,58.63,0,53.03c-0.04-5.66,1.72-11.29,5.52-15.85c1.23-1.48,2.68-2.84,4.34-4.04 c1.93-1.4,4.14-2.58,6.64-3.55c1.72-0.67,3.56-1.23,5.5-1.68c2.2-8.74,6.89-15.47,12.92-20.14c5.64-4.37,12.43-6.92,19.42-7.59 c6.96-0.67,14.12,0.51,20.55,3.6c7.02,3.37,13.14,8.98,17.11,16.87c1.6-0.25,3.2-0.38,4.79-0.36c6.72,0.05,13.2,2.45,18.3,7.95 c1.07,1.15,2.08,2.45,3.02,3.9c3.2,4.92,4.84,11.49,4.77,17.92c-0.07,6.31-1.77,12.59-5.25,17.22c-1.22,1.62-3.52,1.95-5.14,0.73 c-1.62-1.22-1.95-3.52-0.73-5.14c2.5-3.33,3.73-8.04,3.78-12.87c0.06-5.07-1.18-10.16-3.59-13.86c-0.69-1.07-1.45-2.03-2.25-2.89 c-3.61-3.89-8.19-5.59-12.95-5.62c-3.46-0.02-7.02,0.81-10.41,2.31c-0.75,0.37-1.5,0.77-2.25,1.21c-2.25,1.32-4.47,2.93-6.74,4.78 l-4.84-5.54c1.67-1.55,3.48-2.96,5.4-4.21c1.53-1,3.13-1.88,4.77-2.65c0.66-0.33,1.33-0.64,2-0.93c-3.19-5.65-7.78-9.7-12.98-12.2 c-5.2-2.49-11.02-3.45-16.69-2.9c-5.63,0.54-11.1,2.59-15.62,6.1c-5.23,4.06-9.2,10.11-10.73,18.14l-0.48,2.51l-2.5,0.44 c-2.45,0.43-4.64,1.02-6.56,1.77c-1.86,0.72-3.52,1.61-4.97,2.66c-1.16,0.84-2.16,1.78-3.01,2.8c-2.63,3.15-3.85,7.1-3.82,11.1 c0.03,4.06,1.35,8.16,3.79,11.53C12.04,65.79,13.1,66.94,14.3,67.94L14.3,67.94z M32.27,72.03c-1.49,0-2.69-1.65-2.69-3.68 c0-2.03,1.2-3.68,2.69-3.68h66.56c1.49,0,2.69,1.65,2.69,3.68c0,2.03-1.2,3.68-2.69,3.68H32.27L32.27,72.03z M20.38,87.54 c-1.83,0-3.32-1.65-3.32-3.68s1.48-3.68,3.32-3.68H72.9c1.83,0,3.32,1.65,3.32,3.68s-1.48,3.68-3.32,3.68H20.38L20.38,87.54z M89.4,87.54c-1.83,0-3.32-1.65-3.32-3.68s1.48-3.68,3.32-3.68h11.82c1.83,0,3.32,1.65,3.32,3.68s-1.48,3.68-3.32,3.68H89.4 L89.4,87.54z M109.27,97.03c1.82,0.01,3.3,1.66,3.29,3.68c-0.01,2.03-1.49,3.66-3.32,3.66l-46.97-0.27 c-1.82-0.01-3.3-1.66-3.29-3.68c0.01-2.03,1.49-3.66,3.32-3.66L109.27,97.03L109.27,97.03z"/></g></svg>