<?xml version="1.0" standalone="no"?>
<!DOCTYPE svg PUBLIC "-//W3C//DTD SVG 20010904//EN"
 "http://www.w3.org/TR/2001/REC-SVG-20010904/DTD/svg10.dtd">
<svg version="1.0" xmlns="http://www.w3.org/2000/svg"
 width="1216.000000pt" height="1216.000000pt" viewBox="0 0 1216.000000 1216.000000"
 preserveAspectRatio="xMidYMid meet">
<metadata>
Created by potrace 1.14, written by Peter Selinger 2001-2017
</metadata>
<g transform="translate(0.000000,1216.000000) scale(0.100000,-0.100000)"
fill="#000000" stroke="none">
<path d="M6579 9823 c-1 -5 -1 -11 0 -15 0 -5 -6 -8 -14 -8 -8 0 -15 -5 -15
-11 0 -5 -5 -7 -12 -3 -8 5 -9 2 -5 -10 4 -9 3 -15 -2 -12 -5 3 -14 -1 -21 -9
-7 -8 -20 -15 -29 -15 -13 0 -13 -2 -2 -9 16 -10 3 -20 -22 -16 -15 3 -16 1
-6 -11 10 -12 9 -13 -7 -8 -10 4 -16 4 -12 0 9 -11 -15 -35 -27 -28 -5 3 -4
-2 4 -11 12 -15 12 -17 -4 -10 -15 5 -17 3 -12 -12 6 -15 5 -16 -7 -6 -11 9
-16 9 -22 0 -5 -8 -3 -10 7 -5 8 4 3 -2 -11 -14 -14 -12 -19 -19 -13 -15 9 4
11 1 7 -10 -4 -9 -13 -14 -21 -11 -8 3 -11 1 -8 -4 6 -9 -8 -14 -28 -11 -5 1
-6 -3 -2 -9 3 -6 12 -7 18 -4 7 4 -6 -11 -28 -31 -22 -21 -35 -35 -28 -31 6 3
15 2 18 -4 4 -6 3 -10 -2 -9 -28 5 -42 -2 -36 -18 4 -10 2 -14 -4 -10 -12 8
-26 -20 -18 -34 4 -5 -2 -6 -11 -2 -13 5 -16 3 -11 -10 3 -9 2 -17 -4 -17 -6
0 -7 -6 -3 -12 5 -8 0 -7 -11 2 -11 9 -16 10 -11 3 7 -13 -17 -57 -26 -48 -3
3 -5 -4 -4 -17 1 -14 -8 -27 -24 -35 -14 -7 -20 -13 -13 -13 6 0 9 -9 6 -20
-3 -11 -10 -20 -17 -20 -6 0 -17 -9 -24 -21 -9 -14 -10 -19 -2 -14 9 6 9 2 1
-14 -7 -11 -14 -21 -17 -21 -3 0 -2 5 2 12 4 6 3 8 -4 4 -6 -3 -9 -15 -7 -26
3 -13 -2 -20 -13 -21 -11 0 -13 -2 -4 -6 10 -4 9 -9 -5 -19 -17 -13 -17 -14 0
-8 9 3 17 1 17 -5 0 -6 -7 -11 -16 -11 -10 0 -14 -5 -10 -16 4 -10 2 -13 -6
-8 -8 5 -9 2 -5 -9 6 -15 -2 -21 -24 -19 -3 1 -6 -6 -6 -13 0 -12 3 -12 15 -2
13 10 14 9 5 -8 -6 -11 -11 -24 -11 -28 0 -5 -4 -12 -8 -15 -4 -4 -4 -1 1 7 6
10 4 12 -4 7 -9 -6 -9 -11 -1 -21 8 -10 6 -18 -11 -34 -16 -15 -18 -21 -8 -21
10 -1 9 -4 -4 -14 -12 -9 -14 -16 -7 -21 5 -3 8 -11 4 -16 -3 -5 -9 -7 -13 -5
-4 3 -8 -1 -8 -9 0 -8 3 -12 7 -10 12 7 5 -29 -12 -63 -9 -18 -12 -29 -6 -26
7 5 9 2 5 -8 -3 -9 0 -21 6 -27 9 -9 8 -11 -4 -6 -14 5 -16 0 -12 -29 2 -25
-1 -36 -9 -36 -8 0 -9 -3 -3 -8 11 -8 16 -42 6 -42 -3 0 -5 -20 -3 -45 3 -31
8 -43 16 -38 6 4 5 -1 -3 -10 -11 -13 -11 -17 -1 -17 8 0 10 -3 7 -7 -4 -3 -2
-12 5 -20 9 -11 7 -12 -7 -7 -14 6 -16 4 -8 -12 6 -10 8 -25 6 -32 -3 -7 -1
-12 4 -11 22 4 25 -2 7 -16 -18 -14 -18 -15 0 -9 16 6 17 4 7 -14 -9 -17 -9
-22 0 -22 7 0 10 -11 7 -29 -2 -17 -2 -28 2 -26 3 2 12 0 20 -6 12 -7 12 -9
-3 -9 -17 0 -17 -1 -3 -16 18 -17 21 -28 6 -19 -15 10 -12 -12 5 -28 11 -12
12 -17 2 -20 -9 -4 -9 -6 1 -6 6 -1 12 -6 12 -12 0 -5 -5 -7 -12 -3 -6 4 -4
-3 5 -17 19 -26 22 -43 7 -34 -5 3 -10 1 -10 -4 0 -6 7 -11 15 -11 17 0 20
-16 4 -25 -6 -5 -4 -12 8 -22 10 -8 12 -11 4 -7 -11 5 -13 3 -8 -10 4 -10 7
-24 7 -32 0 -10 5 -12 13 -8 7 5 6 0 -3 -11 -9 -11 -10 -16 -2 -11 15 9 15 1
2 -25 -8 -15 -7 -21 4 -25 17 -7 18 -54 1 -54 -5 0 -2 -5 8 -11 11 -6 16 -20
15 -37 -1 -15 2 -34 7 -41 5 -10 4 -12 -3 -7 -19 11 -14 -5 6 -21 9 -8 11 -12
5 -8 -16 8 -17 -11 -2 -21 8 -4 7 -9 -2 -15 -12 -7 -12 -9 0 -9 10 0 11 -3 2
-13 -8 -10 -7 -17 1 -25 9 -9 9 -12 -1 -12 -9 0 -8 -4 2 -15 9 -8 13 -24 10
-35 -3 -11 1 -28 8 -37 10 -12 10 -14 2 -9 -8 4 -13 1 -13 -9 0 -10 5 -14 13
-9 9 5 9 4 0 -6 -6 -7 -9 -19 -6 -28 5 -11 3 -13 -7 -7 -10 6 -11 4 -4 -6 5
-8 7 -23 6 -34 -2 -17 -1 -17 7 -5 6 8 11 10 11 4 0 -5 -5 -15 -12 -22 -9 -9
-9 -12 2 -12 9 0 8 -5 -6 -16 -10 -8 -14 -13 -8 -10 7 3 14 -3 17 -14 3 -11 2
-20 -3 -20 -4 0 -7 -18 -6 -39 1 -22 0 -39 -4 -39 -18 2 -23 -4 -10 -12 10 -6
11 -10 3 -10 -7 0 -13 -5 -13 -11 0 -5 4 -7 10 -4 6 3 7 -1 4 -9 -3 -9 -10
-14 -15 -11 -4 3 -6 -4 -4 -15 5 -26 -4 -52 -16 -44 -5 3 -12 -2 -15 -10 -3
-9 -10 -16 -16 -16 -5 0 -6 6 -2 13 5 7 1 7 -10 -2 -15 -13 -19 -13 -28 0 -8
11 -9 11 -5 -3 3 -9 -1 -19 -9 -22 -10 -4 -13 -1 -9 7 4 6 -1 3 -9 -7 -9 -11
-16 -16 -16 -11 0 5 -7 -1 -16 -13 -8 -12 -19 -20 -24 -17 -10 6 -8 -15 4 -34
6 -10 5 -12 -2 -7 -7 4 -12 2 -12 -4 0 -6 -5 -8 -12 -4 -9 5 -9 3 1 -9 7 -9
18 -14 24 -10 6 3 7 1 3 -6 -4 -6 -12 -9 -17 -6 -5 4 -9 2 -9 -3 0 -5 11 -14
25 -20 30 -14 38 -15 31 -4 -2 4 4 8 14 8 10 0 17 -4 14 -7 -2 -4 0 -10 6 -14
9 -6 14 7 11 30 -1 6 5 2 12 -7 16 -20 32 -25 21 -6 -5 7 -3 8 6 3 18 -11 62
-12 84 -2 10 5 16 5 13 0 -3 -4 23 -8 58 -8 35 0 61 3 59 7 -2 4 0 10 6 13 6
4 10 3 9 -2 -5 -28 2 -36 16 -17 8 10 15 15 15 9 0 -12 82 -11 100 0 9 5 11 4
6 -3 -4 -7 -1 -12 8 -12 8 0 14 6 12 13 -1 6 -1 9 1 5 3 -5 14 -8 24 -8 11 0
17 -4 14 -10 -3 -5 -1 -10 4 -10 11 0 15 13 12 35 -1 6 5 2 12 -7 16 -20 32
-25 21 -6 -5 7 -3 8 6 3 18 -11 62 -12 84 -2 10 5 16 5 13 0 -3 -4 23 -8 58
-8 35 0 61 3 59 7 -2 4 0 10 6 13 6 4 10 3 9 -2 -5 -28 2 -36 16 -17 8 10 15
15 15 9 0 -12 82 -11 100 0 9 5 11 4 6 -3 -4 -7 -1 -12 8 -12 8 0 14 6 12 13
-1 6 -1 9 1 5 3 -5 14 -8 24 -8 11 0 17 -4 14 -10 -3 -5 -1 -10 4 -10 11 0 15
13 12 35 -1 6 5 2 12 -7 15 -20 32 -25 21 -7 -4 8 -1 8 12 2 22 -10 66 -9 84
2 7 5 11 4 8 -1 -4 -5 22 -9 57 -9 35 0 61 3 59 7 -2 4 0 10 6 13 6 4 10 3 9
-2 -5 -28 2 -36 16 -17 8 10 15 15 15 9 0 -12 82 -11 100 0 9 5 11 4 6 -3 -4
-7 -1 -12 8 -12 8 0 14 6 12 13 -1 6 -1 9 1 5 3 -5 14 -8 24 -8 11 0 17 -4 14
-10 -3 -5 -1 -10 4 -10 11 0 15 13 12 35 -1 6 5 2 12 -7 15 -20 32 -25 21 -7
-4 8 -1 8 12 2 22 -10 66 -9 84 2 7 5 11 4 8 -1 -4 -5 22 -9 57 -9 35 0 61 3
59 7 -2 4 0 10 6 13 6 4 10 3 9 -2 -5 -28 2 -36 16 -17 8 10 15 15 15 9 0 -5
22 -10 49 -10 27 -1 47 3 44 8 -3 5 4 4 15 -2 16 -8 21 -7 26 5 5 14 9 14 23
3 12 -10 14 -10 9 -1 -4 6 -3 12 3 12 5 0 12 -6 14 -12 4 -10 6 -10 6 0 1 7 6
10 11 7 6 -3 13 1 16 10 6 14 8 14 21 -2 8 -10 12 -12 8 -5 -4 8 2 12 20 12
14 0 28 7 31 15 5 11 10 12 27 4 16 -9 19 -9 14 4 -4 11 2 14 24 12 24 -2 27
0 18 11 -8 10 -6 12 10 9 12 -2 33 3 48 11 16 7 24 14 18 15 -5 1 1 4 15 8 14
4 24 14 22 21 -3 11 0 11 12 1 11 -9 16 -9 22 0 5 8 3 9 -6 4 -9 -6 -11 -4 -6
4 5 7 15 10 23 7 8 -3 11 -1 8 4 -3 6 -1 10 5 10 6 0 8 5 4 13 -5 8 -2 7 9 -2
15 -12 17 -12 11 4 -6 14 -4 16 6 10 9 -6 12 -4 8 7 -4 8 0 15 8 15 7 0 11 -4
8 -9 -3 -4 2 -5 10 -2 9 3 15 9 14 12 -2 21 4 32 17 32 8 0 15 5 15 11 0 5 5
7 12 3 7 -5 9 -2 5 8 -3 10 3 19 19 27 13 6 24 15 24 21 0 6 4 8 10 5 6 -4 7
1 3 11 -4 10 -2 15 3 11 6 -3 16 4 24 16 12 21 12 21 -5 7 -18 -15 -18 -14 -1
13 10 15 22 27 26 27 5 0 15 14 24 30 8 17 11 30 6 30 -5 0 -5 13 0 30 5 17 6
30 2 30 -4 0 -7 18 -7 40 0 22 2 40 5 40 3 0 4 17 2 38 -4 50 -2 103 4 114 3
4 0 8 -6 8 -6 0 -8 5 -4 11 8 14 9 173 0 187 -3 6 -2 13 4 17 6 4 7 12 2 22
-5 8 -6 32 -2 52 4 21 3 47 -1 59 -5 12 -4 24 1 27 5 3 5 18 0 34 -4 16 -6 32
-3 35 8 7 9 136 1 136 -3 0 -3 12 1 28 5 18 3 35 -7 50 -8 12 -10 22 -6 22 5
1 -2 8 -16 16 -18 11 -20 14 -5 10 19 -6 19 -5 3 8 -10 7 -18 18 -18 25 0 6
-6 11 -14 11 -7 0 -16 9 -19 21 -3 12 -10 18 -16 14 -7 -3 -11 3 -11 15 0 18
-4 20 -22 14 -20 -6 -21 -5 -9 10 12 14 11 16 -10 17 -22 0 -22 1 -4 8 17 7
17 8 -8 15 -15 3 -25 11 -22 16 3 6 -1 10 -9 10 -9 0 -16 5 -16 11 0 5 -4 8
-9 5 -5 -3 -11 1 -15 9 -3 8 -12 15 -21 15 -8 0 -15 5 -15 11 0 5 -4 7 -10 4
-5 -3 -10 1 -10 11 0 14 -3 14 -15 4 -13 -11 -14 -10 -9 5 5 13 3 16 -7 13 -8
-3 -20 2 -27 11 -11 13 -12 13 -6 1 4 -8 -3 -5 -15 8 -13 13 -28 21 -34 19 -7
-2 -18 5 -25 17 -13 20 -13 20 -8 1 6 -20 6 -20 -9 -1 -8 11 -15 14 -15 7 0
-9 -5 -8 -16 3 -8 9 -20 14 -25 11 -5 -4 -9 -1 -9 6 0 7 -3 9 -7 6 -3 -4 -15
1 -25 10 -18 16 -19 16 -12 -3 5 -15 2 -14 -15 6 -12 14 -19 18 -16 9 4 -10 0
-16 -9 -16 -8 0 -14 5 -13 10 1 5 -4 12 -12 15 -8 2 -11 0 -7 -6 4 -7 -3 -8
-22 -3 -17 5 -36 5 -47 -1 -13 -8 -16 -7 -11 1 5 8 -2 11 -23 9 -24 -2 -28 -5
-19 -16 6 -7 7 -12 2 -11 -22 4 -35 -2 -28 -13 5 -7 2 -9 -8 -5 -16 6 -19 -15
-5 -29 4 -4 -1 -16 -10 -27 -11 -13 -12 -17 -4 -12 11 6 13 4 8 -9 -6 -14 -3
-17 8 -12 9 3 13 2 10 -4 -3 -6 1 -13 9 -16 9 -3 13 -10 10 -15 -6 -10 36 -29
49 -22 4 2 7 -1 7 -8 0 -9 3 -9 14 0 11 9 15 9 19 -1 4 -10 6 -10 6 1 1 9 6 8
19 -6 9 -10 13 -12 7 -4 -8 12 -7 12 11 3 12 -6 24 -8 28 -5 3 3 6 0 6 -8 0
-11 2 -11 10 1 8 13 10 13 10 -2 0 -11 5 -15 14 -12 8 3 17 1 21 -5 3 -6 15
-11 26 -11 10 0 19 -6 19 -12 0 -9 4 -8 10 2 7 11 10 11 10 2 0 -7 5 -10 12
-6 6 4 8 3 5 -3 -8 -13 40 -46 53 -38 6 3 10 -1 10 -11 0 -12 6 -15 21 -11 17
5 18 3 7 -11 -8 -10 -9 -13 -1 -9 7 4 23 -4 37 -18 14 -14 33 -25 43 -25 15 0
16 -2 3 -10 -13 -8 -13 -10 2 -10 9 0 20 -9 23 -20 4 -11 11 -18 16 -15 5 4 9
1 9 -5 0 -7 8 -19 18 -28 10 -10 12 -13 5 -8 -10 6 -12 4 -7 -8 3 -9 14 -16
24 -16 13 0 18 -6 15 -20 -2 -11 1 -23 7 -26 7 -5 8 -2 4 7 -4 8 1 3 12 -11
14 -17 17 -28 11 -36 -7 -8 -6 -15 2 -20 8 -4 9 -3 5 4 -4 7 -5 12 -2 12 3 0
13 -14 22 -31 8 -17 11 -28 6 -25 -6 4 -14 1 -18 -5 -4 -7 -3 -9 3 -6 6 4 17
-1 24 -10 12 -14 12 -16 -1 -8 -13 8 -13 6 -2 -8 8 -9 11 -21 7 -27 -3 -5 1
-10 11 -10 14 0 15 -2 3 -17 -8 -10 -9 -14 -2 -10 6 4 14 3 18 -3 3 -5 1 -10
-6 -10 -8 0 -8 -4 1 -15 11 -13 10 -15 -6 -10 -14 5 -13 3 4 -7 17 -11 20 -16
10 -26 -9 -9 -9 -12 1 -12 10 0 11 -3 2 -14 -9 -11 -8 -15 5 -20 16 -6 16 -8
0 -25 -11 -13 -14 -21 -7 -26 6 -3 11 -11 11 -16 0 -6 -4 -8 -8 -5 -4 2 -8 -4
-8 -14 0 -10 4 -16 8 -14 12 8 9 -11 -4 -24 -9 -9 -9 -12 1 -12 11 0 11 -3 0
-17 -9 -11 -10 -14 -2 -9 9 5 11 2 7 -8 -3 -9 -10 -13 -15 -10 -5 3 -9 0 -9
-6 0 -6 7 -13 16 -17 14 -5 12 -8 -7 -19 -15 -8 -18 -13 -9 -14 13 0 13 -1 0
-10 -11 -7 -11 -10 -2 -10 10 0 10 -5 2 -20 -6 -11 -16 -18 -21 -14 -7 4 -7
-1 0 -14 14 -26 14 -32 0 -32 -5 0 -7 5 -3 12 4 7 3 8 -4 4 -6 -4 -9 -13 -5
-21 3 -8 0 -15 -6 -15 -6 0 -11 -5 -11 -11 0 -5 6 -7 13 -4 6 4 4 0 -5 -8 -10
-8 -15 -17 -12 -20 3 -3 0 -15 -8 -26 -8 -12 -18 -18 -21 -14 -4 3 -7 -2 -7
-13 0 -28 -33 -72 -49 -66 -8 2 -11 0 -8 -5 3 -5 -5 -17 -18 -27 -14 -10 -22
-24 -18 -30 4 -6 -2 -4 -12 4 -17 14 -18 14 -5 -10 13 -24 12 -24 -5 -10 -17
14 -18 13 -12 -2 5 -14 1 -18 -14 -18 -15 0 -19 -4 -15 -16 5 -12 2 -15 -13
-11 -15 3 -17 0 -13 -17 5 -19 4 -19 -11 -7 -15 12 -17 11 -17 -2 0 -11 -5
-14 -17 -10 -12 5 -15 2 -10 -10 3 -9 3 -16 -1 -16 -19 3 -33 -2 -28 -10 3 -5
-1 -12 -10 -15 -8 -3 -12 -2 -9 4 3 6 2 10 -3 10 -6 0 -12 -7 -16 -15 -3 -8
-12 -12 -19 -9 -8 3 -21 -2 -29 -10 -12 -11 -18 -12 -28 -3 -10 9 -11 9 -6 0
7 -12 3 -15 -26 -17 -7 -1 -19 -8 -26 -16 -12 -13 -13 -12 -8 5 6 20 6 20 -9
0 -14 -17 -17 -18 -25 -5 -7 10 -10 11 -10 2 0 -6 -3 -11 -7 -11 -20 3 -34 -2
-28 -11 3 -5 1 -10 -4 -10 -6 0 -11 6 -11 13 0 9 -3 8 -9 -2 -7 -11 -9 -11
-13 0 -4 12 -8 12 -24 -1 -10 -8 -16 -11 -12 -6 4 5 3 17 -3 27 -7 14 -7 19 2
17 6 -2 14 3 17 11 3 9 0 11 -9 7 -8 -4 -6 -1 3 7 14 11 15 16 5 27 -8 8 -8
11 -1 7 13 -8 27 20 18 34 -3 5 2 12 11 15 14 6 14 8 -2 20 -15 12 -15 13 -2
8 10 -3 20 0 25 7 4 7 3 10 -2 6 -6 -3 -10 11 -10 33 1 25 5 35 11 30 12 -10
13 60 1 79 -5 8 -1 14 13 18 11 3 18 9 15 14 -3 5 -8 7 -12 5 -4 -2 -7 6 -7
19 0 13 3 21 6 19 4 -2 10 3 13 12 5 12 2 15 -10 10 -14 -5 -15 -4 -4 9 7 8 9
15 5 15 -4 0 -1 8 6 17 12 15 12 16 -3 10 -10 -3 -18 -2 -18 3 0 6 4 10 10 10
5 0 6 7 3 17 -5 12 -3 14 8 8 11 -7 12 -6 2 6 -9 11 -9 19 -2 26 8 8 7 13 -2
18 -8 6 -10 4 -4 -5 6 -9 4 -11 -5 -5 -10 6 -9 11 4 21 10 7 13 13 6 16 -6 2
-12 10 -13 18 -2 8 -7 22 -12 30 -7 13 -6 13 7 2 11 -9 18 -10 23 -2 3 5 1 10
-5 10 -6 0 -8 5 -5 10 3 6 1 10 -5 10 -7 0 -9 8 -5 20 4 11 2 20 -4 20 -6 0
-11 5 -11 11 0 5 4 8 8 5 4 -2 8 4 8 14 0 10 -4 16 -8 14 -4 -3 -8 -2 -9 3 -6
62 -21 123 -28 118 -4 -2 -8 2 -8 10 0 8 5 15 11 15 6 0 4 4 -4 9 -8 6 -19 7
-25 3 -5 -3 -4 2 4 12 12 14 12 19 1 29 -10 10 -11 9 -5 -3 5 -8 4 -11 0 -7
-10 8 -16 31 -19 63 -1 16 -6 21 -19 18 -15 -3 -17 -1 -7 11 10 12 9 15 -6 16
-11 0 -13 3 -7 6 10 3 9 8 -3 20 -8 9 -13 22 -10 30 3 8 2 12 -2 9 -5 -3 -14
4 -22 14 -8 10 -18 16 -24 13 -6 -4 -5 1 3 10 12 15 11 17 -4 17 -10 0 -15 3
-12 7 4 3 -5 15 -20 26 -20 13 -22 17 -8 13 19 -6 19 -5 3 7 -10 8 -14 17 -10
21 4 4 3 7 -3 6 -26 -6 -37 1 -32 19 3 14 1 18 -9 14 -8 -3 -14 0 -14 7 0 6
-4 8 -10 5 -10 -6 -15 9 -10 30 1 5 -2 7 -6 3 -4 -5 -14 1 -21 12 -8 11 -19
18 -24 15 -5 -4 -9 2 -9 12 0 15 -2 16 -10 3 -8 -13 -10 -12 -10 3 0 10 -4 15
-10 12 -5 -3 -10 0 -10 8 0 8 -7 18 -16 21 -8 3 -12 2 -9 -4 3 -6 1 -10 -4
-10 -6 0 -11 9 -11 21 0 11 -4 17 -10 14 -5 -3 -10 -1 -10 4 0 6 -3 10 -7 10
-21 -3 -33 3 -33 16 0 13 -4 14 -21 4 -12 -6 -19 -7 -15 -1 3 5 -2 16 -11 23
-9 8 -14 9 -10 3 3 -6 0 -11 -7 -11 -8 0 -12 7 -8 15 4 12 0 14 -17 9 -18 -4
-24 -1 -28 14 -5 16 -8 18 -14 7 -7 -10 -9 -11 -9 0 0 7 -4 10 -10 7 -5 -3
-10 -2 -10 3 0 6 -7 12 -14 15 -11 4 -13 1 -10 -11 3 -9 -1 -7 -8 6 -8 12 -17
20 -21 16 -4 -4 -15 1 -26 10 -13 11 -21 14 -26 7 -4 -8 -11 -7 -20 3 -9 8
-24 12 -36 9 -15 -4 -20 -3 -15 5 5 9 0 9 -18 2 -22 -8 -26 -7 -26 8 0 10 -3
13 -8 7 -14 -19 -28 -13 -30 13 -1 15 -4 38 -7 50 -3 19 -2 22 9 13 11 -9 14
-8 12 6 0 10 -5 21 -11 25 -6 4 -2 8 9 8 12 0 16 5 13 14 -3 8 2 20 11 28 11
9 14 10 8 1 -4 -7 -2 -13 3 -13 6 0 11 7 11 16 0 10 6 14 15 10 10 -3 15 1 15
12 0 14 2 15 10 2 8 -12 10 -12 16 3 5 14 9 15 23 5 9 -7 13 -8 9 -4 -4 5 -2
16 5 24 9 13 9 14 0 8 -7 -4 -13 -2 -13 3 0 6 7 11 15 11 8 0 14 5 12 12 -1 7
3 12 10 13 6 0 15 4 20 9 5 5 3 6 -4 2 -16 -9 -17 10 -3 19 8 5 7 11 -1 21
-10 12 -9 13 7 7 17 -6 18 -5 4 12 -8 10 -10 16 -4 12 7 -4 15 0 18 9 9 22 8
26 -5 18 -8 -5 -8 -1 0 14 6 11 16 23 23 25 10 4 10 6 0 6 -8 1 -10 6 -6 14 5
7 2 7 -10 -2 -9 -8 -16 -10 -15 -5 4 24 -2 44 -13 42 -7 -2 -12 3 -10 10 2 11
-11 17 -32 13 -5 -1 -4 5 4 13 10 14 10 16 -6 17 -18 0 -18 1 1 9 18 8 18 9 2
9 -10 1 -16 5 -13 9 2 4 1 14 -4 22 -5 9 -4 20 3 29 8 10 8 13 1 8 -7 -4 -14
3 -16 18 -3 14 -1 25 6 25 6 0 3 5 -6 11 -10 5 -18 19 -18 30 0 11 -3 18 -7
16 -11 -6 -53 39 -45 48 3 3 -1 3 -11 -1 -9 -3 -17 -2 -17 2 0 5 -17 22 -37
38 -20 16 -33 24 -29 18 4 -7 1 -12 -9 -12 -9 0 -14 4 -11 9 9 14 -20 21 -33
8 -9 -9 -11 -8 -6 5 5 13 2 16 -14 13 -12 -2 -21 1 -21 7 0 6 -3 8 -7 5 -9
-10 -32 25 -26 40 3 7 10 10 17 7 6 -3 2 2 -8 10 -11 9 -14 16 -8 16 21 0 13
18 -10 26 -22 7 -22 7 -3 15 11 4 15 8 9 8 -6 1 -11 11 -10 24 1 12 -4 31 -11
43 -7 11 -10 25 -6 29 5 5 0 3 -10 -4 -15 -12 -17 -12 -11 3 7 19 -6 21 -25 4
-11 -10 -13 -10 -7 0 4 6 2 12 -3 12 -6 0 -12 -3 -12 -7z m81 -57 c0 -3 -4 -8
-10 -11 -5 -3 -10 -1 -10 4 0 6 5 11 10 11 6 0 10 -2 10 -4z m165 -226 c3 -5
1 -10 -4 -10 -6 0 -11 5 -11 10 0 6 2 10 4 10 3 0 8 -4 11 -10z m200 -830 c3
-5 1 -10 -4 -10 -6 0 -11 5 -11 10 0 6 2 10 4 10 3 0 8 -4 11 -10z m1036 -177
c13 -16 12 -17 -3 -4 -10 7 -18 15 -18 17 0 8 8 3 21 -13z m-2171 -1466 c0 -2
-10 -12 -22 -23 l-23 -19 19 23 c18 21 26 27 26 19z"/>
<path d="M7680 8666 c0 -2 7 -7 16 -10 8 -3 12 -2 9 4 -6 10 -25 14 -25 6z"/>
<path d="M5605 8359 c-4 -6 -5 -13 -2 -15 3 -3 1 -19 -3 -35 -5 -16 -5 -29 0
-29 5 0 5 -13 0 -30 -5 -19 -5 -30 1 -30 6 0 7 -4 4 -10 -9 -14 -12 -90 -3
-90 3 0 3 -13 -2 -30 -5 -16 -5 -30 -1 -30 4 0 4 -25 1 -55 -3 -30 -3 -55 1
-55 4 0 4 -13 -1 -29 -4 -15 -4 -34 1 -42 4 -7 3 -19 -2 -26 -7 -8 -7 -18 -1
-30 7 -12 7 -25 1 -35 -6 -11 -6 -19 1 -23 7 -4 7 -12 0 -24 -5 -10 -7 -21 -3
-24 9 -10 10 -50 2 -68 -4 -8 -4 -21 1 -29 5 -8 5 -21 -1 -31 -5 -10 -6 -20
-2 -22 10 -6 9 -59 -1 -75 -3 -6 -2 -13 4 -17 7 -4 7 -12 0 -25 -7 -13 -7 -21
0 -25 6 -4 8 -11 5 -16 -3 -5 1 -6 10 -2 13 4 14 8 4 14 -11 6 -10 9 3 14 10
4 14 13 11 23 -5 11 -2 14 9 10 8 -4 15 -1 15 8 0 7 -4 11 -9 8 -4 -3 -5 2 -2
10 3 9 11 13 16 10 7 -5 9 4 6 24 -3 22 -1 29 9 25 9 -4 13 5 13 27 0 21 4 29
12 24 7 -5 8 -3 2 7 -10 16 -15 44 -7 35 7 -7 32 24 33 39 0 6 -5 3 -10 -5 -5
-8 -10 -10 -10 -4 0 5 5 15 12 22 9 9 9 12 -2 12 -13 0 -13 2 0 10 11 7 11 10
2 10 -8 0 -6 8 7 21 15 17 18 26 10 40 -5 11 -7 19 -3 19 3 0 0 8 -7 17 -8 9
-9 14 -3 10 7 -4 14 -1 16 6 7 18 -2 38 -15 31 -7 -3 -5 1 5 8 12 10 13 19 7
31 -6 9 -7 17 -3 17 3 0 0 8 -7 17 -10 11 -10 14 -1 9 11 -7 17 5 13 27 -1 4
-3 16 -4 26 -2 11 -9 27 -17 37 -9 11 -10 15 -2 10 6 -4 12 -2 12 3 0 6 -4 11
-10 11 -5 0 -10 5 -10 11 0 5 6 7 13 3 10 -6 10 -4 0 7 -7 7 -13 23 -13 36 0
13 -5 23 -11 23 -5 0 -8 4 -4 9 3 5 -3 12 -12 14 -16 4 -16 5 1 6 20 1 20 1 0
17 -10 8 -14 13 -8 10 6 -3 11 1 11 9 0 8 -5 11 -10 8 -6 -4 -8 4 -5 20 3 14
2 26 -1 25 -3 0 -13 0 -21 1 -12 1 -12 3 -2 10 11 6 10 11 -3 25 -9 9 -13 16
-9 16 4 0 -1 7 -12 16 -10 8 -13 13 -7 9 9 -4 11 -1 7 9 -7 19 -11 20 -19 5z"/>
<path d="M2029 8026 c-2 -2 -34 -6 -70 -10 -126 -11 -250 -41 -374 -88 -44
-17 -83 -36 -87 -42 -4 -6 -8 -8 -8 -4 0 7 -151 -74 -173 -93 -7 -5 -30 -23
-52 -40 -54 -41 -127 -111 -167 -161 -18 -22 -39 -46 -46 -53 -6 -8 -12 -18
-12 -24 0 -6 -4 -11 -8 -11 -7 0 -83 -131 -89 -155 -2 -5 -14 -44 -27 -85 -39
-123 -44 -155 -41 -298 3 -161 9 -200 42 -307 43 -137 114 -267 231 -423 15
-20 30 -41 34 -47 40 -54 244 -304 285 -350 20 -23 110 -128 139 -163 10 -13
27 -33 38 -45 10 -12 30 -38 45 -57 14 -19 28 -37 31 -40 3 -3 33 -43 68 -90
34 -47 71 -96 82 -108 11 -13 20 -27 20 -31 0 -4 13 -25 29 -47 30 -40 111
-194 115 -217 1 -6 4 -16 8 -22 6 -10 26 -80 34 -120 20 -93 24 -226 11 -325
-10 -79 -63 -230 -80 -230 -5 0 -6 -4 -3 -9 3 -5 -1 -14 -9 -21 -8 -7 -15 -16
-15 -21 0 -25 -134 -159 -200 -201 -57 -35 -145 -76 -177 -81 -10 -1 -22 -5
-28 -8 -27 -15 -250 -19 -315 -7 -184 36 -322 159 -384 342 -52 152 -31 365
48 498 101 169 317 280 549 281 26 1 27 3 22 35 -7 48 -61 146 -104 190 -67
69 -180 128 -282 148 -63 12 -208 7 -284 -10 -126 -28 -243 -95 -356 -204 -49
-47 -89 -90 -89 -95 0 -4 -11 -23 -24 -40 -27 -37 -79 -133 -91 -168 -4 -13
-8 -26 -10 -29 -12 -29 -15 -38 -19 -60 -3 -14 -6 -27 -7 -30 -1 -3 -3 -9 -4
-15 -2 -5 -4 -12 -5 -15 -11 -31 -23 -151 -22 -245 0 -116 10 -185 40 -285 9
-30 16 -57 17 -60 0 -3 14 -32 30 -65 68 -141 180 -272 300 -353 39 -26 72
-49 75 -52 5 -5 82 -43 150 -74 82 -37 232 -77 350 -92 138 -18 315 -22 430
-10 36 4 83 9 105 11 32 4 138 26 190 39 6 2 24 6 40 10 17 4 39 11 50 16 11
4 43 16 70 25 65 23 295 136 295 145 0 4 13 13 29 20 16 6 37 19 48 29 10 10
25 22 34 27 28 16 110 87 149 129 84 90 119 130 120 138 0 4 8 17 18 28 11 10
25 32 33 47 8 15 17 29 20 32 13 10 78 148 103 218 29 81 52 185 61 276 3 32
8 63 11 67 3 5 1 9 -5 9 -7 0 -7 8 -1 24 5 13 7 26 4 29 -3 3 -7 38 -8 78 -3
60 -14 141 -30 214 -21 96 -105 290 -178 414 -21 34 -38 65 -38 67 0 4 -120
164 -135 180 -5 6 -26 30 -45 54 -19 24 -39 48 -45 54 -5 6 -39 45 -75 86 -36
41 -72 82 -80 91 -133 142 -335 376 -401 465 -24 32 -48 64 -54 70 -47 53
-128 215 -152 306 -22 79 -24 288 -4 368 37 145 150 290 273 349 35 16 74 32
88 35 14 3 36 8 50 11 14 3 55 6 91 6 205 0 338 -94 397 -281 13 -42 14 -228
1 -236 -5 -3 -7 -9 -4 -14 4 -7 -6 -50 -25 -95 -32 -79 -74 -146 -127 -203
-35 -37 -63 -68 -63 -69 0 -9 83 -85 115 -106 114 -74 282 -85 411 -27 125 57
226 212 250 380 9 64 12 220 4 235 -2 6 -6 21 -8 35 -8 65 -59 210 -74 210 -5
0 -8 5 -8 11 0 48 -231 279 -278 279 -6 0 -12 3 -14 8 -5 12 -117 63 -193 87
-71 23 -143 39 -225 51 -49 6 -346 15 -351 10z"/>
<path d="M8280 7460 c-6 -11 -8 -20 -6 -20 3 0 10 9 16 20 6 11 8 20 6 20 -3
0 -10 -9 -16 -20z"/>
<path d="M4669 7466 c-2 -2 -38 -7 -79 -11 -41 -4 -77 -8 -80 -10 -3 -1 -32
-6 -65 -9 -33 -4 -73 -9 -90 -13 -16 -3 -41 -7 -55 -8 -63 -7 -140 -17 -195
-25 -100 -15 -159 -23 -187 -25 -15 -1 -30 -4 -34 -7 -3 -4 -12 -4 -20 -1 -8
3 -14 1 -15 -3 -1 -19 -17 -89 -19 -89 -2 0 -6 -17 -13 -60 -3 -16 -12 -59
-21 -95 -8 -36 -17 -76 -20 -90 -3 -14 -14 -68 -26 -120 -12 -52 -23 -104 -25
-115 -2 -11 -14 -66 -27 -123 l-22 -103 -61 1 c-99 2 -135 0 -133 -7 1 -6 -11
-80 -17 -103 -1 -3 -5 -23 -9 -45 -4 -22 -10 -48 -13 -57 -4 -16 5 -18 91 -18
53 0 96 -3 96 -7 0 -5 -4 -24 -10 -43 -5 -19 -11 -46 -14 -60 -2 -14 -14 -70
-26 -125 -12 -55 -24 -111 -26 -125 -3 -14 -10 -45 -16 -70 -6 -25 -12 -54
-14 -65 -2 -11 -5 -31 -8 -45 -3 -14 -8 -34 -10 -45 -2 -11 -11 -51 -20 -90
-9 -38 -18 -81 -20 -95 -2 -14 -10 -47 -16 -75 -6 -27 -13 -59 -16 -70 -2 -11
-8 -42 -14 -70 -6 -27 -12 -60 -15 -73 -2 -13 -7 -32 -10 -43 -4 -10 -8 -31
-10 -47 -2 -15 -4 -27 -5 -27 -1 0 -3 -11 -6 -25 -2 -14 -8 -43 -14 -65 -12
-50 -57 -260 -64 -300 -3 -16 -8 -41 -11 -55 -6 -25 -8 -37 -20 -115 -3 -22
-8 -46 -10 -52 -4 -11 -18 -184 -17 -208 2 -79 15 -192 27 -240 8 -33 17 -68
20 -78 14 -57 134 -235 160 -236 6 -1 21 -11 35 -24 46 -42 167 -90 260 -102
176 -24 358 4 540 82 88 38 215 107 238 130 7 7 18 13 24 13 13 0 228 217 228
231 0 11 24 39 34 39 3 0 6 -7 6 -16 0 -19 59 -144 77 -162 7 -7 13 -18 13
-23 0 -13 145 -159 157 -159 6 0 16 -7 23 -15 14 -17 134 -78 176 -90 16 -4
34 -9 39 -11 116 -33 244 -36 411 -10 108 17 261 94 369 185 61 52 205 204
247 262 l43 59 12 -47 c7 -26 10 -49 8 -52 -3 -2 0 -10 6 -18 6 -7 9 -13 6
-13 -3 0 5 -27 18 -61 63 -160 156 -252 305 -300 137 -44 293 -43 466 2 76 20
287 114 315 141 8 7 33 25 56 40 62 41 152 128 208 202 27 36 52 66 55 66 3 0
6 -9 7 -20 3 -30 43 -139 68 -184 31 -56 95 -131 127 -150 15 -9 33 -22 40
-29 47 -47 212 -96 336 -100 248 -9 478 84 665 268 l58 57 -6 -33 c-3 -19 -10
-50 -15 -69 -5 -19 -11 -46 -14 -60 -12 -60 -16 -74 -23 -81 -8 -7 -77 -31
-100 -35 -7 -1 -34 -10 -60 -19 -46 -17 -72 -25 -83 -27 -3 -1 -43 -16 -90
-35 -47 -18 -91 -33 -97 -33 -7 0 -13 -4 -13 -10 0 -5 -3 -9 -7 -8 -38 7 -244
-113 -325 -190 -27 -26 -54 -48 -59 -50 -5 -2 -9 -8 -9 -13 0 -6 -9 -20 -20
-32 -47 -50 -106 -185 -118 -272 -8 -53 -8 -233 0 -265 3 -14 9 -38 13 -55 9
-37 50 -118 79 -159 94 -132 271 -242 441 -274 41 -8 261 -8 310 0 146 24 329
101 453 192 55 39 192 176 192 191 0 2 13 23 28 47 15 24 37 61 47 83 11 22
23 42 27 43 5 2 8 10 8 17 0 7 9 35 21 62 31 71 82 245 104 358 5 22 9 42 10
45 1 3 5 25 10 50 5 25 9 47 10 50 16 69 136 641 140 670 2 14 11 52 19 85 8
33 17 76 20 96 3 20 8 42 10 50 3 8 8 25 10 39 3 14 17 81 31 150 15 69 28
134 30 145 2 11 8 40 14 65 5 25 12 59 15 75 3 17 8 41 11 55 3 14 8 36 11 50
3 14 7 32 9 40 2 8 4 15 5 15 1 0 3 9 5 20 4 32 15 89 20 105 2 8 7 30 10 47
3 18 12 61 20 95 8 35 16 74 19 88 6 30 65 317 72 345 2 11 7 34 9 50 3 17 8
37 10 45 2 8 6 26 9 40 3 14 16 79 30 145 15 66 29 134 32 150 3 17 11 59 19
95 8 36 17 76 19 90 3 14 10 44 16 68 5 23 13 59 16 80 3 20 9 51 14 67 4 17
11 47 15 68 l6 37 -118 0 c-389 2 -705 0 -712 -5 -5 -2 -14 -33 -21 -67 -6
-35 -14 -72 -16 -83 -3 -11 -9 -40 -14 -65 -5 -25 -12 -56 -15 -70 -3 -14 -8
-36 -11 -50 -2 -14 -13 -65 -24 -115 -10 -49 -21 -101 -24 -115 -3 -14 -8 -36
-11 -50 -3 -14 -7 -37 -10 -52 -3 -16 -12 -56 -20 -90 -8 -35 -16 -74 -19 -88
-3 -14 -7 -36 -10 -50 -14 -63 -17 -77 -22 -100 -2 -14 -7 -36 -9 -50 -3 -14
-11 -56 -20 -93 -8 -37 -17 -82 -20 -100 -3 -18 -10 -48 -15 -67 -10 -39 -88
-407 -96 -455 -6 -33 -32 -131 -41 -155 -3 -8 -7 -20 -8 -25 -6 -25 -81 -174
-108 -215 -83 -121 -180 -185 -298 -194 -137 -10 -201 83 -194 280 2 49 8 100
13 114 5 14 10 30 11 35 1 9 10 60 16 95 2 8 8 35 14 60 11 48 18 84 26 128 3
15 10 47 15 72 6 25 13 56 16 70 3 14 7 34 9 45 3 11 7 29 9 40 2 11 9 40 15
65 5 25 12 59 15 75 7 38 12 58 26 120 6 28 13 59 15 70 3 21 29 143 45 210 5
22 9 41 10 43 0 1 0 3 1 5 0 1 2 11 4 22 1 11 5 31 8 45 3 14 8 43 12 65 4 22
10 44 13 49 3 6 6 19 7 30 1 12 10 57 20 101 9 44 18 87 20 95 2 8 15 71 30
140 15 69 28 134 31 145 2 11 9 44 15 73 6 30 9 56 6 58 -5 5 -818 7 -822 2
-2 -2 -6 -17 -9 -33 -2 -17 -5 -31 -6 -32 -3 -4 -5 -11 -15 -68 -5 -27 -9 -52
-10 -55 -5 -19 -16 -69 -19 -86 -3 -12 -14 -66 -26 -120 -12 -55 -23 -108 -26
-119 -2 -11 -6 -31 -9 -45 -3 -14 -7 -35 -10 -48 -2 -13 -6 -31 -9 -40 -3 -9
-8 -35 -12 -57 -3 -22 -8 -43 -10 -46 -2 -4 -6 -24 -10 -44 -6 -43 -4 -32 -38
-185 -14 -63 -27 -126 -30 -140 -2 -14 -12 -58 -20 -97 -9 -40 -18 -87 -22
-105 -8 -45 -12 -63 -14 -63 -2 0 -9 -31 -14 -65 -2 -14 -20 -101 -41 -195
-20 -93 -38 -180 -41 -193 -15 -74 -102 -273 -146 -336 -116 -165 -217 -226
-355 -213 -74 7 -119 28 -153 70 -14 18 -25 34 -26 37 0 3 -6 17 -12 32 -13
31 -13 209 0 253 4 17 11 44 14 60 3 17 10 50 16 75 6 25 12 55 14 68 7 42 13
67 23 107 6 22 13 60 17 85 3 25 10 53 15 63 6 9 8 17 5 17 -2 0 2 23 10 52 7
29 11 54 9 56 -2 3 0 12 5 21 4 9 11 35 14 57 4 22 8 49 11 59 17 77 57 265
61 290 3 17 10 48 16 70 6 22 12 47 13 55 3 19 22 117 30 150 4 14 9 38 11 54
3 16 12 59 20 95 8 36 17 77 20 91 3 14 19 88 35 165 17 77 32 149 33 160 1
12 6 27 10 34 4 7 6 15 3 18 -3 2 1 22 8 43 18 50 16 51 -159 50 -78 -1 -150
-1 -161 -1 -87 4 -385 5 -385 1 0 -3 -27 -3 -60 -2 -53 3 -60 2 -61 -15 -1
-19 -1 -20 -18 -104 -6 -30 -14 -66 -16 -80 -3 -13 -9 -37 -14 -54 -9 -30 -9
-30 -10 10 -4 126 -116 226 -293 260 -68 13 -272 14 -353 2 -91 -14 -200 -46
-282 -83 -28 -13 -57 -24 -62 -24 -6 0 -11 -4 -11 -10 0 -5 -11 -12 -25 -16
-14 -3 -25 -10 -25 -15 0 -5 -5 -9 -10 -9 -37 0 -231 -171 -340 -299 -25 -29
-51 -59 -57 -66 -7 -8 -13 -18 -13 -23 0 -6 -3 -12 -7 -14 -23 -10 -157 -226
-210 -338 -54 -113 -143 -353 -159 -425 -1 -5 -7 -30 -14 -55 -7 -25 -14 -53
-16 -63 -2 -10 -6 -27 -9 -38 -4 -11 -8 -32 -10 -47 -3 -15 -7 -38 -10 -52 -3
-14 -8 -45 -11 -70 -3 -25 -7 -56 -10 -70 -6 -34 -14 -153 -18 -261 -3 -84 -6
-93 -41 -145 -78 -118 -195 -207 -311 -238 -97 -25 -235 -5 -276 41 -55 60
-62 189 -22 365 13 57 27 119 30 138 3 19 9 51 14 70 8 33 12 48 25 118 3 15
8 34 10 42 2 8 7 30 10 47 3 18 12 61 20 95 8 35 17 78 20 97 3 19 8 37 10 41
3 4 7 22 9 41 3 19 18 93 34 164 17 72 32 144 35 160 3 17 10 50 15 75 6 25
13 56 16 70 3 14 19 90 36 170 32 147 35 166 44 210 3 14 10 48 16 75 6 28 12
59 14 70 2 19 11 20 172 23 92 1 172 6 176 10 6 6 28 104 43 190 l5 32 -77 1
c-43 0 -120 0 -170 0 -93 -2 -93 -2 -93 23 0 14 5 28 10 31 6 4 8 10 6 14 -3
4 0 25 6 47 5 21 12 48 13 59 4 30 65 315 76 358 6 21 12 50 14 65 2 15 7 37
10 50 3 12 7 32 11 45 3 12 7 31 9 42 5 26 13 62 19 83 14 49 15 92 3 92 -8 0
-16 -2 -18 -4z m1817 -1245 c72 -21 143 -105 150 -180 2 -26 -50 -307 -82
-433 -5 -22 -9 -40 -19 -93 -5 -22 -9 -44 -10 -50 -33 -145 -48 -216 -52 -240
-2 -16 -9 -48 -15 -70 -6 -22 -12 -53 -15 -70 -4 -26 -9 -49 -27 -126 -3 -9
-7 -34 -10 -55 -4 -22 -9 -47 -12 -56 -5 -17 -11 -44 -20 -85 -2 -13 -6 -33
-9 -45 -43 -215 -167 -392 -330 -474 -54 -27 -84 -35 -130 -36 -95 -2 -168 20
-206 63 -9 10 -19 16 -22 13 -3 -4 -9 5 -13 20 -3 14 -10 26 -14 26 -13 0 -41
118 -45 188 -2 37 -4 69 -5 72 -4 11 -5 106 -1 114 2 5 5 42 7 83 2 41 6 91 9
111 4 20 8 53 11 72 4 32 15 92 30 160 3 14 7 35 10 47 2 12 9 34 14 48 5 14
8 25 6 25 -2 0 5 28 15 63 11 34 22 72 25 85 5 24 69 197 98 264 9 21 16 41
15 44 0 4 3 10 8 13 4 3 21 31 36 62 15 30 43 79 62 108 19 29 35 55 35 58 0
10 98 128 133 160 110 99 262 146 373 114z m2534 -2724 c-5 -17 -12 -48 -15
-67 -3 -19 -11 -55 -16 -80 -15 -63 -18 -79 -24 -122 -3 -21 -12 -56 -20 -78
-8 -22 -11 -40 -8 -40 4 0 2 -5 -5 -12 -7 -7 -12 -20 -12 -31 0 -35 -73 -168
-120 -218 -115 -122 -258 -126 -363 -10 -44 49 -51 73 -44 154 5 56 40 174 56
187 3 3 17 21 30 40 33 50 139 132 238 186 96 53 293 135 304 128 4 -2 3 -19
-1 -37z"/>
<path d="M11060 4566 c-88 -15 -170 -57 -233 -119 -111 -111 -143 -190 -141
-352 2 -111 27 -183 92 -263 61 -75 75 -86 157 -126 181 -89 392 -53 527 88
55 57 106 140 114 186 2 8 7 31 12 50 11 45 6 162 -9 209 -23 70 -60 131 -112
184 -89 92 -182 140 -282 146 -27 2 -52 4 -55 5 -3 2 -34 -2 -70 -8z"/>
</g>
</svg>
