<?xml version="1.0" encoding="utf-8"?><svg version="1.1" id="Layer_1" xmlns="http://www.w3.org/2000/svg" xmlns:xlink="http://www.w3.org/1999/xlink" x="0px" y="0px" viewBox="0 0 122.88 83.78" style="enable-background:new 0 0 122.88 83.78" xml:space="preserve"><g><path d="M101.8,57.81c-0.99-0.97-1-2.56-0.03-3.55c0.97-0.99,2.56-1,3.55-0.03l6.91,6.82c0.99,0.97,1,2.56,0.03,3.55 c-0.97,0.99-2.56,1-3.55,0.03L101.8,57.81L101.8,57.81z M66.03,46.16c-0.58,0.28-1.15,0.59-1.73,0.93 c-1.72,1.01-3.42,2.24-5.15,3.66l-3.7-4.24c1.28-1.19,2.66-2.27,4.13-3.22c1.17-0.76,2.39-1.44,3.65-2.02 c0.5-0.25,1.02-0.49,1.53-0.71c-2.44-4.32-5.95-7.42-9.93-9.33c-3.98-1.91-8.43-2.64-12.76-2.22c-4.31,0.42-8.49,1.98-11.95,4.66 c-4,3.1-7.04,7.73-8.2,13.87l-0.36,1.92l-1.91,0.34c-1.87,0.33-3.55,0.78-5.02,1.35c-1.42,0.55-2.69,1.23-3.8,2.03 c-0.89,0.64-1.65,1.36-2.3,2.14c-2.01,2.41-2.95,5.43-2.92,8.49c0.02,3.1,1.03,6.24,2.9,8.82c0.69,0.96,1.5,1.83,2.42,2.6l0,0.01 c0.92,0.77,1.97,1.4,3.16,1.89c1.17,0.48,2.46,0.83,3.9,1.03h55.48c2.7-0.65,5.09-1.53,7.11-2.66c2.01-1.13,3.65-2.5,4.89-4.14 c1.91-2.54,2.85-6.15,2.89-9.84c0.04-3.88-0.9-7.77-2.74-10.6c-0.53-0.81-1.11-1.55-1.72-2.21c-2.76-2.97-6.27-4.27-9.9-4.3 C71.35,44.38,68.62,45.02,66.03,46.16L66.03,46.16z M70.35,39.07c1.22-0.19,2.45-0.29,3.66-0.28c5.14,0.03,10.09,1.87,14,6.08 c0.82,0.88,1.59,1.87,2.31,2.98c0.31,0.48,0.61,0.98,0.88,1.51c0.36-0.66,0.68-1.34,0.94-2.06c0.61-1.64,0.94-3.43,0.94-5.3 c0-4.2-1.7-8.01-4.46-10.76c-2.75-2.75-6.56-4.46-10.76-4.46c-2.66,0-5.15,0.67-7.3,1.85c-1.8,0.99-3.39,2.33-4.66,3.95 C67.61,34.45,69.12,36.62,70.35,39.07L70.35,39.07z M93.44,55.83c0.37,1.87,0.55,3.8,0.53,5.72c-0.05,4.82-1.36,9.63-4.01,13.16 c-1.73,2.31-3.96,4.18-6.63,5.68c-2.57,1.44-5.57,2.53-8.93,3.31l-0.63,0.08H17.88l-0.35-0.03c-2.04-0.26-3.9-0.74-5.57-1.43 c-1.72-0.71-3.26-1.64-4.62-2.78H7.32c-1.28-1.07-2.41-2.29-3.36-3.61C1.41,72.41,0.03,68.11,0,63.83 c-0.03-4.33,1.32-8.64,4.22-12.12c0.94-1.13,2.05-2.17,3.32-3.09c1.48-1.07,3.17-1.98,5.07-2.72c1.32-0.51,2.72-0.94,4.21-1.28 c1.68-6.68,5.27-11.83,9.88-15.41c4.31-3.34,9.51-5.29,14.85-5.81c5.32-0.51,10.8,0.39,15.71,2.75c1.55,0.74,3.04,1.63,4.45,2.66 c1.7-2.07,3.79-3.82,6.17-5.12c2.98-1.63,6.38-2.55,9.99-2.55c5.76,0,10.97,2.33,14.75,6.11c3.77,3.77,6.11,8.99,6.11,14.75 c0,2.54-0.46,4.97-1.29,7.23c-0.87,2.34-2.14,4.49-3.74,6.34C93.61,55.67,93.53,55.75,93.44,55.83L93.44,55.83z M51.38,14.53 c-0.99-0.97-1-2.56-0.03-3.55c0.97-0.99,2.56-1,3.55-0.03l6.91,6.82c0.99,0.97,1,2.56,0.03,3.55c-0.97,0.99-2.56,1-3.55,0.03 L51.38,14.53L51.38,14.53z M78.54,2.52c-0.01-1.38,1.11-2.51,2.5-2.52c1.38-0.01,2.51,1.11,2.52,2.5l0.06,9.71 c0.01,1.38-1.11,2.51-2.5,2.52c-1.38,0.01-2.51-1.11-2.52-2.5L78.54,2.52L78.54,2.52z M106.52,12.04c0.99-0.97,2.58-0.96,3.55,0.03 c0.97,0.99,0.96,2.58-0.03,3.55l-6.91,6.82c-0.99,0.97-2.58,0.96-3.55-0.03c-0.97-0.99-0.96-2.58,0.03-3.55L106.52,12.04 L106.52,12.04z M120.36,38.66c1.38-0.01,2.51,1.11,2.52,2.5c0.01,1.38-1.11,2.51-2.5,2.52l-9.71,0.06 c-1.38,0.01-2.51-1.11-2.52-2.5c-0.01-1.38,1.11-2.51,2.5-2.52L120.36,38.66L120.36,38.66z"/></g></svg>