<svg id="Layer_1" data-name="Layer 1" xmlns="http://www.w3.org/2000/svg" viewBox="0 0 92.53 122.88"><defs><style>.cls-1{fill-rule:evenodd;}</style></defs><title>edit-location</title><path class="cls-1" d="M46.27,18.21A28.62,28.62,0,1,1,17.64,46.83,28.62,28.62,0,0,1,46.27,18.21Zm1.36,97.49A82.87,82.87,0,0,0,64,101.81,85.44,85.44,0,0,0,84.56,62.23c2.81-13.67,1.5-27-4.75-37.34a36.74,36.74,0,0,0-6.63-8.06C65.62,9.93,57,6.64,48.23,6.56,39.07,6.49,29.77,10,21.55,16.5a38.54,38.54,0,0,0-8.63,9.56C7.15,35.15,5.41,46.43,7.31,58.24c1.94,12,7.66,24.61,16.77,36A102.46,102.46,0,0,0,47.63,115.7Zm21.24-9.46a89.32,89.32,0,0,1-19.33,16,3.28,3.28,0,0,1-3.71.13,109.25,109.25,0,0,1-26.9-24c-9.8-12.31-16-26-18.1-39.1C-1.33,45.89.7,33,7.36,22.53a45.3,45.3,0,0,1,10.1-11.18C26.85,3.87,37.6-.09,48.29,0,58.6.09,68.79,3.92,77.6,12a43.1,43.1,0,0,1,7.82,9.52c7.15,11.8,8.71,26.83,5.57,42.05a92.2,92.2,0,0,1-22.12,42.7ZM46.12,57.8l-11.6,3.09L36.2,48.44l9.92,9.36ZM38.75,45.61l12.37-14a1.08,1.08,0,0,1,.77-.36,1,1,0,0,1,.52.12l8.84,8a1,1,0,0,1,.29.64.93.93,0,0,1-.32.71L48.65,55l-9.91-9.36Z"/></svg>