<?xml version="1.0" encoding="UTF-8" standalone="no"?>
<svg
   inkscape:export-ydpi="576"
   inkscape:export-xdpi="576"
   inkscape:export-filename="/media/taufikramadhan/Data/Tr Design Studio/Project Design/TR Creative Design/Icon Design/Project Hiring/Icon Icons/008 - Weather And Season/Send/2 - Solid/21 - Cyclone.png"
   width="64pt"
   height="64pt"
   viewBox="0 0 22.577778 22.577778"
   version="1.1"
   id="svg831"
   inkscape:version="1.1.1 (1:1.1+202109281943+c3084ef5ed)"
   sodipodi:docname="21 - Cyclone.svg"
   xmlns:inkscape="http://www.inkscape.org/namespaces/inkscape"
   xmlns:sodipodi="http://sodipodi.sourceforge.net/DTD/sodipodi-0.dtd"
   xmlns="http://www.w3.org/2000/svg"
   xmlns:svg="http://www.w3.org/2000/svg"
   xmlns:rdf="http://www.w3.org/1999/02/22-rdf-syntax-ns#"
   xmlns:cc="http://creativecommons.org/ns#"
   xmlns:dc="http://purl.org/dc/elements/1.1/">
  <defs
     id="defs825">
    <pattern
       id="EMFhbasepattern"
       patternUnits="userSpaceOnUse"
       width="6"
       height="6"
       x="0"
       y="0" />
    <pattern
       id="EMFhbasepattern-9"
       patternUnits="userSpaceOnUse"
       width="6"
       height="6"
       x="0"
       y="0" />
    <pattern
       id="EMFhbasepattern-0"
       patternUnits="userSpaceOnUse"
       width="6"
       height="6"
       x="0"
       y="0" />
    <pattern
       id="EMFhbasepattern-7"
       patternUnits="userSpaceOnUse"
       width="6"
       height="6"
       x="0"
       y="0" />
    <pattern
       id="EMFhbasepattern-2"
       patternUnits="userSpaceOnUse"
       width="6"
       height="6"
       x="0"
       y="0" />
    <pattern
       id="EMFhbasepattern-98"
       patternUnits="userSpaceOnUse"
       width="6"
       height="6"
       x="0"
       y="0" />
    <pattern
       id="EMFhbasepattern-6"
       patternUnits="userSpaceOnUse"
       width="6"
       height="6"
       x="0"
       y="0" />
    <pattern
       id="EMFhbasepattern-01"
       patternUnits="userSpaceOnUse"
       width="6"
       height="6"
       x="0"
       y="0" />
    <pattern
       id="EMFhbasepattern-07"
       patternUnits="userSpaceOnUse"
       width="6"
       height="6"
       x="0"
       y="0" />
    <pattern
       id="EMFhbasepattern-8"
       patternUnits="userSpaceOnUse"
       width="6"
       height="6"
       x="0"
       y="0" />
    <pattern
       id="EMFhbasepattern-4"
       patternUnits="userSpaceOnUse"
       width="6"
       height="6"
       x="0"
       y="0" />
    <pattern
       id="EMFhbasepattern-40"
       patternUnits="userSpaceOnUse"
       width="6"
       height="6"
       x="0"
       y="0" />
    <pattern
       id="EMFhbasepattern-08"
       patternUnits="userSpaceOnUse"
       width="6"
       height="6"
       x="0"
       y="0" />
    <pattern
       id="EMFhbasepattern-04"
       patternUnits="userSpaceOnUse"
       width="6"
       height="6"
       x="0"
       y="0" />
    <pattern
       id="EMFhbasepattern-014"
       patternUnits="userSpaceOnUse"
       width="6"
       height="6"
       x="0"
       y="0" />
    <pattern
       id="EMFhbasepattern-27"
       patternUnits="userSpaceOnUse"
       width="6"
       height="6"
       x="0"
       y="0" />
    <pattern
       id="EMFhbasepattern-09"
       patternUnits="userSpaceOnUse"
       width="6"
       height="6"
       x="0"
       y="0" />
    <pattern
       id="EMFhbasepattern-5"
       patternUnits="userSpaceOnUse"
       width="6"
       height="6"
       x="0"
       y="0" />
    <pattern
       id="EMFhbasepattern-018"
       patternUnits="userSpaceOnUse"
       width="6"
       height="6"
       x="0"
       y="0" />
  </defs>
  <sodipodi:namedview
     id="base"
     pagecolor="#ffffff"
     bordercolor="#666666"
     borderopacity="1.0"
     inkscape:pageopacity="0.0"
     inkscape:pageshadow="2"
     inkscape:zoom="6.28125"
     inkscape:cx="42.666667"
     inkscape:cy="42.666667"
     inkscape:document-units="pt"
     inkscape:current-layer="layer1"
     showgrid="false"
     units="pt"
     inkscape:window-width="1366"
     inkscape:window-height="705"
     inkscape:window-x="0"
     inkscape:window-y="31"
     inkscape:window-maximized="1"
     inkscape:pagecheckerboard="true"
     inkscape:showpageshadow="false"
     inkscape:object-paths="true"
     inkscape:snap-intersection-paths="true"
     inkscape:snap-smooth-nodes="true"
     inkscape:snap-midpoints="true"
     showguides="false"
     inkscape:snap-bbox="true"
     inkscape:bbox-nodes="true"
     inkscape:snap-nodes="false"
     inkscape:snap-global="true"
     inkscape:document-rotation="0">
    <inkscape:grid
       type="xygrid"
       id="grid1378" />
    <sodipodi:guide
       position="0.97013831,21.607643"
       orientation="78.000048,0"
       id="guide1380"
       inkscape:locked="false" />
    <sodipodi:guide
       position="0.97013831,0.97013129"
       orientation="0,78.000005"
       id="guide1382"
       inkscape:locked="false" />
    <sodipodi:guide
       position="21.607639,0.97013129"
       orientation="-78.000048,0"
       id="guide1384"
       inkscape:locked="false" />
    <sodipodi:guide
       position="21.607639,21.607643"
       orientation="0,-78.000005"
       id="guide1386"
       inkscape:locked="false" />
  </sodipodi:namedview>
  <metadata
     id="metadata828">
    <rdf:RDF>
      <cc:Work
         rdf:about="">
        <dc:format>image/svg+xml</dc:format>
        <dc:type
           rdf:resource="http://purl.org/dc/dcmitype/StillImage" />
      </cc:Work>
    </rdf:RDF>
  </metadata>
  <g
     inkscape:label="Icon"
     inkscape:groupmode="layer"
     id="layer1"
     transform="translate(0,-274.42223)">
    <g
       id="g68859"
       transform="matrix(1.2328084,0,0,1.2328084,0.85215458,-145.20358)"
       style="stroke-width:0.811156">
      <path
         style="color:#000000;fill:#2276bc;stroke-width:0.811156;stroke-linecap:round;stroke-linejoin:round;-inkscape-stroke:none"
         d="m 8.4667969,341.16797 c -4.6196643,0 -8.37116012,3.75136 -8.37109378,8.37109 -6.634e-5,4.61974 3.75142948,8.3711 8.37109378,8.3711 4.6196611,0 8.3690751,-3.75137 8.3691401,-8.3711 -6.5e-5,-4.61972 -3.749479,-8.37109 -8.3691401,-8.37109 z"
         id="path1122" />
      <path
         id="path2312"
         style="color:#000000;fill:#1d5c87;fill-opacity:1;stroke-width:0.811156;stroke-linecap:round;stroke-linejoin:round;-inkscape-stroke:none"
         d="m 8.4664223,341.16797 c -2.7141186,0 -5.1279447,1.29549 -6.6579915,3.30057 1.4077545,-1.07421 3.1649459,-1.71307 5.0704915,-1.71307 4.6196607,0 8.3694507,3.75135 8.3695147,8.37107 -2.6e-5,1.90546 -0.638327,3.6633 -1.71204,5.07101 2.004664,-1.53003 3.299502,-3.94424 3.29954,-6.65851 -6.4e-5,-4.61972 -3.749854,-8.37107 -8.3695147,-8.37107 z" />
      <path
         style="color:#000000;fill:#d0e2ee;stroke-width:0.811156;stroke-linecap:round;stroke-linejoin:round;-inkscape-stroke:none"
         d="m 9.921875,351.17777 a 0.26458451,0.26458451 0 0 0 -0.3730469,0.0254 c -0.5567648,0.64163 -0.8633527,1.52786 -0.8652343,2.45313 -4.24e-5,1.82905 1.1933176,3.36914 2.7402342,3.36914 a 0.26461097,0.26461097 0 0 0 0.0039,0 c 0.418624,-0.003 0.832189,-0.11963 1.205079,-0.3457 a 0.26458451,0.26458451 0 0 0 0.08789,-0.36524 0.26458451,0.26458451 0 0 0 -0.363281,-0.0879 c -0.294256,0.1784 -0.611387,0.26659 -0.933594,0.26953 -1.188178,0 -2.2109744,-1.23883 -2.2109374,-2.83984 0.00164,-0.80775 0.2755434,-1.57445 0.7363282,-2.10547 a 0.26458451,0.26458451 0 0 0 -0.027344,-0.37305 z"
         id="path1176" />
      <path
         style="color:#000000;fill:#d0e2ee;stroke-width:0.811156;stroke-linecap:round;stroke-linejoin:round;-inkscape-stroke:none"
         d="M 15.337891,351.10547 A 0.26458451,0.26458451 0 0 0 15.25,351.46875 c 0.179026,0.29557 0.268492,0.61261 0.269531,0.93359 -1.13e-4,1.18801 -1.238701,2.21094 -2.839843,2.21094 -0.807619,-0.002 -1.574485,-0.27577 -2.105469,-0.73633 a 0.26458451,0.26458451 0 0 0 -0.373047,0.0273 0.26458451,0.26458451 0 0 0 0.02539,0.37304 c 0.641612,0.55651 1.526189,0.86325 2.451171,0.86524 a 0.26461097,0.26461097 0 0 0 0.002,0 c 1.829165,0 3.368993,-1.19352 3.36914,-2.74024 a 0.26461097,0.26461097 0 0 0 0,-0.002 c -0.0014,-0.42039 -0.122183,-0.83478 -0.347656,-1.20703 a 0.26458451,0.26458451 0 0 0 -0.363281,-0.0879 z"
         id="path1174" />
      <path
         style="color:#000000;fill:#d0e2ee;stroke-width:0.811156;stroke-linecap:round;stroke-linejoin:round;-inkscape-stroke:none"
         d="m 10.169922,349.66016 c -1.8292783,0 -3.3691855,1.1952 -3.3691408,2.74218 0.00138,0.42037 0.1202269,0.83479 0.3457032,1.20703 a 0.26458451,0.26458451 0 0 0 0.3632812,0.0899 0.26458451,0.26458451 0 0 0 0.089844,-0.36328 c -0.1790183,-0.29555 -0.2704279,-0.61456 -0.2714844,-0.93555 0.00118,-1.18755 1.2413104,-2.21094 2.8417968,-2.21094 0.806317,2.5e-4 1.573216,0.27195 2.105469,0.73047 a 0.26458451,0.26458451 0 0 0 0.373047,-0.0273 0.26458451,0.26458451 0 0 0 -0.02734,-0.37305 c -0.642814,-0.55377 -1.527549,-0.8591 -2.451172,-0.85937 z"
         id="path1172" />
      <path
         style="color:#000000;fill:#d0e2ee;stroke-width:0.811156;stroke-linecap:round;stroke-linejoin:round;-inkscape-stroke:none"
         d="m 11.423828,347.77734 c -0.421604,0 -0.835288,0.12061 -1.207031,0.34571 a 0.26458451,0.26458451 0 0 0 -0.08789,0.36523 0.26458451,0.26458451 0 0 0 0.363282,0.0879 c 0.295938,-0.1792 0.611745,-0.26953 0.93164,-0.26953 1.188179,0 2.21293,1.23884 2.212891,2.83984 -2.4e-4,0.80656 -0.271922,1.57306 -0.730469,2.10547 a 0.26458451,0.26458451 0 0 0 0.02734,0.37305 0.26458451,0.26458451 0 0 0 0.373047,-0.0273 c 0.553667,-0.64287 0.8591,-1.52735 0.859375,-2.45118 4.4e-5,-1.82905 -1.195271,-3.36914 -2.742188,-3.36914 z"
         id="path3581" />
      <path
         style="color:#000000;fill:#d0e2ee;stroke-width:0.811156;stroke-linecap:round;stroke-linejoin:round;-inkscape-stroke:none"
         d="m 11.423828,351.22852 c -0.644787,0 -1.171859,0.52708 -1.171875,1.17187 1.6e-5,0.64479 0.527088,1.17383 1.171875,1.17383 0.644787,0 1.173812,-0.52904 1.173828,-1.17383 -1.6e-5,-0.64479 -0.529041,-1.17187 -1.173828,-1.17187 z"
         id="path1132" />
      <path
         style="color:#000000;fill:#f5f6e8;stroke-width:0.811156;stroke-linecap:round;stroke-linejoin:round;-inkscape-stroke:none"
         d="m 10.232422,354.62891 a 0.26458451,0.26458451 0 0 0 -0.195313,0.0488 0.26458451,0.26458451 0 0 0 -0.052734,0.3711 c 0.27428,0.36599 0.594313,0.67141 0.941406,0.91015 a 0.26458451,0.26458451 0 0 0 0.369141,-0.0684 0.26458451,0.26458451 0 0 0 -0.06836,-0.36718 c -0.29912,-0.20575 -0.578305,-0.47069 -0.81836,-0.79102 a 0.26458451,0.26458451 0 0 0 -0.175781,-0.10351 z"
         id="path1184" />
      <path
         style="color:#000000;fill:#f5f6e8;stroke-width:0.811156;stroke-linecap:round;stroke-linejoin:round;-inkscape-stroke:none"
         d="m 14.914063,352.53125 a 0.26458451,0.26458451 0 0 0 -0.367188,0.0684 c -0.20565,0.29904 -0.4727,0.57831 -0.792969,0.81836 a 0.26458451,0.26458451 0 0 0 -0.05273,0.37109 0.26458451,0.26458451 0 0 0 0.371094,0.0527 c 0.365948,-0.27429 0.671477,-0.59629 0.910156,-0.94336 a 0.26458451,0.26458451 0 0 0 -0.06836,-0.36719 z"
         id="path1182" />
      <path
         style="color:#000000;fill:#f5f6e8;stroke-width:0.811156;stroke-linecap:round;stroke-linejoin:round;-inkscape-stroke:none"
         d="m 8.9726563,350.91016 a 0.26458451,0.26458451 0 0 0 -0.1953125,0.0508 c -0.3659015,0.27423 -0.6714001,0.59592 -0.9101563,0.94336 a 0.26458451,0.26458451 0 0 0 0.068359,0.36718 0.26458451,0.26458451 0 0 0 0.3671875,-0.0684 c 0.2056058,-0.29919 0.4706522,-0.57825 0.7910156,-0.81835 a 0.26458451,0.26458451 0 0 0 0.054687,-0.3711 0.26458451,0.26458451 0 0 0 -0.1757812,-0.10351 z"
         id="path1180" />
      <path
         style="color:#000000;fill:#f5f6e8;stroke-width:0.811156;stroke-linecap:round;stroke-linejoin:round;-inkscape-stroke:none"
         d="m 11.923828,348.84375 a 0.26458451,0.26458451 0 0 0 -0.36914,0.0684 0.26458451,0.26458451 0 0 0 0.06836,0.36719 c 0.299118,0.20575 0.578311,0.47264 0.818359,0.79297 a 0.26458451,0.26458451 0 0 0 0.371094,0.0527 0.26458451,0.26458451 0 0 0 0.05273,-0.37109 c -0.274274,-0.366 -0.59431,-0.67141 -0.941406,-0.91016 z"
         id="path3581-6" />
      <path
         id="path1192"
         style="color:#000000;fill:#f5f6e8;stroke-width:3.06579;stroke-linecap:round;stroke-linejoin:round;-inkscape-stroke:none"
         d="m 55.591797,283.63867 c -1.863193,0.91579 -3.981918,1.49951 -6.199219,1.66406 a 1.0000044,1.0000044 0 0 0 -0.923828,1.07032 1.0000044,1.0000044 0 0 0 1.070312,0.92187 c 0.90277,-0.067 1.792835,-0.19626 2.660157,-0.38281 1.210039,-1.00604 2.344705,-2.10041 3.392578,-3.27344 z"
         transform="matrix(0.26458334,0,0,0.26458334,0,280.06666)" />
      <path
         style="color:#000000;fill:#f5f6e8;stroke-width:0.811156;stroke-linecap:round;stroke-linejoin:round;-inkscape-stroke:none"
         d="m 7.9902344,353.79883 a 0.26458451,0.26458451 0 0 0 -0.2441407,0.2832 c 0.078211,1.05936 0.4751293,2.04802 1.1152344,2.78125 a 0.26458451,0.26458451 0 0 0 0.3730469,0.0254 0.26458451,0.26458451 0 0 0 0.025391,-0.37305 c -0.55589,-0.63677 -0.9160815,-1.52118 -0.9863285,-2.47266 a 0.26458451,0.26458451 0 0 0 -0.2832031,-0.24414 z"
         id="path1190" />
      <path
         style="color:#000000;fill:#f5f6e8;stroke-width:0.811156;stroke-linecap:round;stroke-linejoin:round;-inkscape-stroke:none"
         d="m 9.7421875,348.72266 c -1.059209,0.0781 -2.0463203,0.47514 -2.7792969,1.11523 a 0.26458451,0.26458451 0 0 0 -0.025391,0.375 0.26458451,0.26458451 0 0 0 0.3730469,0.0254 C 7.9470259,349.68246 8.829998,349.32012 9.78125,349.25 a 0.26458451,0.26458451 0 0 0 0.244141,-0.2832 0.26458451,0.26458451 0 0 0 -0.2832035,-0.24414 z"
         id="path1188" />
      <path
         style="color:#000000;fill:#f5f6e8;stroke-width:0.811156;stroke-linecap:round;stroke-linejoin:round;-inkscape-stroke:none"
         d="m 13.806641,347.84961 a 0.26458451,0.26458451 0 0 0 -0.19336,0.0645 0.26458451,0.26458451 0 0 0 -0.02539,0.37305 c 0.555797,0.63619 0.917863,1.51948 0.988281,2.4707 a 0.26458451,0.26458451 0 0 0 0.283203,0.24414 0.26458451,0.26458451 0 0 0 0.244141,-0.2832 c -0.0784,-1.05907 -0.477026,-2.04653 -1.117188,-2.7793 a 0.26458451,0.26458451 0 0 0 -0.179687,-0.0898 z"
         id="path9525" />
      <path
         id="path1146"
         style="color:#000000;fill:#50b86b;stroke-width:3.06579;stroke-linecap:round;stroke-linejoin:round;-inkscape-stroke:none"
         d="M 16.580078,234.94922 C 6.982529,240.32297 0.46515589,250.55106 0.36523438,262.29883 H 20.882812 c 2.877375,0 5.226563,-2.34722 5.226563,-5.22461 0,-2.87736 -2.349468,-5.22656 -5.226563,-5.22656 h -2.24414 c -1.803792,0 -3.22461,-1.42196 -3.22461,-3.22657 0,-1.8034 1.420818,-3.22656 3.22461,-3.22656 h 13.589844 c 2.877101,0 5.226562,-2.34841 5.226562,-5.22656 0,-2.87664 -2.349472,-5.21875 -5.226562,-5.21875 z"
         transform="matrix(0.26458334,0,0,0.26458334,0,280.06666)" />
      <path
         id="path1152"
         style="color:#000000;fill:#50b86b;stroke-width:3.06579;stroke-linecap:round;stroke-linejoin:round;-inkscape-stroke:none"
         d="m 2.4804688,273.96289 c 1.5158088,3.92066 3.7893327,7.46584 6.6425781,10.45313 h 9.2128911 c 2.877101,0 5.21875,-2.34842 5.21875,-5.22657 0,-2.8766 -2.341649,-5.22656 -5.21875,-5.22656 z"
         transform="matrix(0.26458334,0,0,0.26458334,0,280.06666)" />
      <path
         style="color:#000000;fill:#50b86b;stroke-width:0.811156;stroke-linecap:round;stroke-linejoin:round;-inkscape-stroke:none"
         d="m 12.572266,344.11914 c -0.694759,0 -1.263647,0.56891 -1.263672,1.26367 1.8e-5,0.69477 0.568908,1.26367 1.263672,1.26367 0.694764,10e-6 1.263653,-0.5689 1.263672,-1.26367 -2.6e-5,-0.69476 -0.568913,-1.26367 -1.263672,-1.26367 z"
         id="path1158" />
      <path
         id="path9926"
         style="color:#000000;fill:#349951;fill-opacity:1;stroke-width:0.811156;stroke-linecap:round;stroke-linejoin:round;-inkscape-stroke:none"
         d="m 12.572266,344.11914 c -0.482664,0 -0.904615,0.27481 -1.117244,0.67541 0.175908,-0.0933 0.376186,-0.14624 0.588077,-0.14624 0.694759,0 1.263463,0.56873 1.263489,1.26349 -6e-6,0.21189 -0.05298,0.41216 -0.146244,0.58807 0.400593,-0.21262 0.675398,-0.63457 0.675411,-1.11724 -2.6e-5,-0.69476 -0.56873,-1.26349 -1.263489,-1.26349 z" />
      <path
         id="path23254"
         style="color:#000000;fill:#349951;fill-opacity:1;stroke-width:0.811156;stroke-linecap:round;stroke-linejoin:round;-inkscape-stroke:none"
         d="m 0.65603237,352.55268 c 0.0693938,0.17948 0.14518891,0.35587 0.22634276,0.52916 H 4.3224754 c 0.761233,0 1.3807943,0.62176 1.3807943,1.38286 0,0.24566 -0.065374,0.47663 -0.1782837,0.67696 0.4214966,-0.23724 0.7074504,-0.6892 0.7074504,-1.20612 0,-0.7611 -0.6195613,-1.38286 -1.3807943,-1.38286 z" />
      <path
         id="path26890"
         style="color:#000000;fill:#349951;fill-opacity:1;stroke-width:0.811156;stroke-linecap:round;stroke-linejoin:round;-inkscape-stroke:none"
         d="m 3.5594972,342.75948 h 4.4384645 c 0.7612301,0 1.3828613,0.61968 1.3828613,1.38079 0,0.24522 -0.064942,0.47585 -0.177767,0.67593 0.4210037,-0.23755 0.7069336,-0.68899 0.7069336,-1.2051 0,-0.7611 -0.6216311,-1.38079 -1.3828612,-1.38079 h -4.140316 c -0.2862751,0.15287 -0.5571928,0.34013 -0.8273152,0.52917 z m 0.5642823,2.80913 c -0.3369614,0.11365 -0.5746422,0.42906 -0.5746422,0.80822 0,0.47747 0.3759248,0.85369 0.8531781,0.85369 h 0.5937621 c 0.7612316,0 1.3828615,0.62155 1.3828615,1.38286 0,0.24516 -0.064949,0.47541 -0.177767,0.67541 0.4210717,-0.23742 0.7069336,-0.68857 0.7069336,-1.20457 0,-0.76131 -0.6216298,-1.38286 -1.3828615,-1.38286 h -0.593762 c -0.4772533,0 -0.8531778,-0.37623 -0.8531781,-0.8537 0,-0.0982 0.016042,-0.1918 0.045476,-0.27905 z"
         sodipodi:nodetypes="csscsscccsssscssssc" />
      <path
         id="path29566"
         style="color:#000000;fill:#a9c0d1;fill-opacity:1;stroke-width:0.811156;stroke-linecap:round;stroke-linejoin:round;-inkscape-stroke:none"
         d="m 11.362276,351.29007 c -0.458117,0 -0.856573,0.26632 -1.049032,0.65164 0.156878,-0.0783 0.333399,-0.12248 0.519865,-0.12248 0.644787,0 1.174073,0.52724 1.174089,1.17203 -5e-6,0.18691 -0.04466,0.36402 -0.123507,0.52141 0.385723,-0.19308 0.652662,-0.59258 0.652674,-1.05058 -1.6e-5,-0.64479 -0.529302,-1.17202 -1.174089,-1.17202 z" />
    </g>
  </g>
</svg>
