<svg
  shape-rendering="geometricPrecision"
  viewBox="0 0 214 152"
  xmlns="http://www.w3.org/2000/svg">
  <path
    d="M60.7177 13.8959C62.7275 13.7415 64.6986 13.5485 66.631 13.3169C71.3462 12.9309 75.5203 12.6221 79.1533 12.3905C94.1492 11.6185 105.087 10.6921 111.966 9.61131C113.744 9.30251 115.329 8.64632 116.72 7.64273C117.88 6.79353 118.923 5.71275 119.851 4.40036C120.469 3.55117 121.01 2.58618 121.474 1.50539L121.938 0.231599L112.314 0C104.275 0 96.2749 0.192999 88.3132 0.578995C77.1822 1.04219 66.9402 1.92998 57.5871 3.24237C45.9151 4.86355 35.9437 7.02513 27.6727 9.72711C17.8559 12.9695 10.6285 16.9066 5.99061 21.5386C3.51707 24.0862 1.77786 26.7881 0.772982 29.6445C8.63874e-08 32.0377 -0.193245 34.5467 0.193245 37.1714C0.42514 39.2558 1.04353 41.3402 2.0484 43.4246C2.74409 44.8914 3.59437 46.281 4.59924 47.5933L5.87466 49.2145L5.06303 47.5933C4.44465 46.281 3.94221 44.93 3.55572 43.5404C3.01463 41.6104 2.74409 39.7962 2.74409 38.0978C2.74409 35.9363 3.20787 34.0063 4.13545 32.3079C5.14033 30.2235 6.76359 28.5251 9.00524 27.2127C13.3339 24.588 18.1651 22.3492 23.4986 20.4964C27.75 19.0296 32.1947 17.833 36.8326 16.9066C40.1564 16.289 43.4416 15.7872 46.6881 15.4013L50.5144 15.1697L44.601 27.5601C39.8086 37.7504 35.4026 47.5161 31.3831 56.8572C25.663 69.9811 21.1024 81.4066 17.7013 91.1337C13.4499 103.331 11.0536 112.479 10.5126 118.578C10.2807 121.743 10.4353 124.484 10.9763 126.8C11.5174 128.653 12.2904 130.197 13.2953 131.432C14.1456 132.435 15.1891 133.169 16.4259 133.632C17.1988 134.018 18.0491 134.249 18.9767 134.327H20.1362L19.9043 133.053C19.7497 131.972 19.6724 130.737 19.6724 129.347C19.5951 127.495 19.711 125.487 20.0202 123.326C20.3294 120.624 20.8705 117.845 21.6435 114.988C24.2716 105.107 27.9433 93.7585 32.6585 80.9434C36.3688 70.7531 40.6588 59.868 45.5286 48.2881C49.007 39.9506 52.5628 31.7289 56.1958 23.623L60.7177 13.8959ZM76.4865 95.9973C76.2547 95.6885 76.5252 93.8743 77.2982 90.5547C78.1485 86.6176 79.2306 82.719 80.5447 78.859C82.2453 73.8411 84.1777 69.5565 86.3421 66.0054C87.4242 64.0754 88.5451 62.184 89.7045 60.3312L91.2119 58.2468L89.9364 57.4362C88.9316 56.8186 87.9267 56.3555 86.9218 56.0467C85.5304 55.6607 84.3516 55.6028 83.3854 55.873C82.4192 56.1432 81.4723 56.7801 80.5447 57.7836C79.9263 58.5556 79.3079 59.482 78.6895 60.5628L78.1098 61.9524L76.4865 60.7944C75.0952 59.868 73.7425 59.1346 72.4284 58.5942C70.5732 57.745 68.9113 57.3204 67.4427 57.3204C65.5102 57.2432 63.8869 57.7836 62.5729 58.9416C58.1669 62.7244 54.4952 67.009 51.5579 71.7953C49.0843 75.7325 47.2292 79.9012 45.9924 84.3016C44.9875 87.7755 44.4078 91.0951 44.2532 94.2603C44.0986 96.8851 44.2532 98.622 44.717 99.4712C45.1808 100.784 46.6494 101.903 49.123 102.829C51.2873 103.679 53.1425 103.987 54.6885 103.756C55.4614 103.601 56.9688 102.25 59.2104 99.7028C60.7564 97.8501 62.6115 95.4955 64.7759 92.6391L67.4427 88.8177L67.0948 91.2495C66.9402 93.2567 66.9402 95.0323 67.0948 96.5763C67.2494 98.7378 67.6746 100.32 68.3702 101.324C68.9886 102.019 70.3027 102.636 72.3124 103.177C74.4768 103.872 76.1387 103.987 77.2982 103.524C79.849 102.675 82.2839 100.475 84.6029 96.9237C86.458 94.0673 88.2359 90.4003 89.9364 85.9228C91.0959 82.7576 92.1394 79.3608 93.067 75.7325L94.1105 71.2163L90.7481 77.3536C88.1199 81.9856 85.7237 85.807 83.5593 88.8177C82.168 90.7477 80.68 92.504 79.0954 94.0866C77.5107 95.6692 76.6411 96.3061 76.4865 95.9973V95.9973ZM66.9789 65.1948C68.061 64.0368 69.1432 63.3034 70.2254 62.9946C71.153 62.763 72.0805 62.8016 73.0081 63.1104C73.6265 63.342 74.2449 63.6894 74.8633 64.1526L75.559 64.7316L73.1241 69.0161C71.1916 72.5673 69.2592 75.8869 67.3267 78.9748C64.6213 83.3752 62.1864 87.0808 60.022 90.0915C58.7853 91.8671 57.3939 93.5655 55.8479 95.1867L53.9928 97.1552V95.4183C53.9928 93.8743 54.1087 92.2531 54.3406 90.5547C54.7271 88.1615 55.3068 85.7684 56.0798 83.3752C57.0847 80.3644 58.3988 77.4694 60.022 74.6903C61.9545 71.3707 64.2734 68.2055 66.9789 65.1948V65.1948ZM138.402 75.7325C138.248 75.5009 138.132 75.3079 138.055 75.1535C137.668 74.6903 137.127 74.3429 136.431 74.1113C135.426 73.7253 134.151 73.6095 132.605 73.7639C129.359 73.9955 125.571 75.3079 121.242 77.701C118.15 79.3222 114.479 81.6768 110.227 84.7648C109.686 83.9928 108.063 82.5646 105.357 80.4802C102.188 78.0098 99.9079 76.0799 98.5165 74.6903C96.2749 72.2971 95.1154 70.0969 95.0381 68.0897C95.0381 65.6194 96.7773 63.3806 100.256 61.3734C104.275 59.0574 110.652 57.0116 119.387 55.2361C121.165 54.9273 122.092 55.3519 122.17 56.5099V56.6256C122.479 56.4712 122.73 55.7765 122.923 54.5413C123.117 53.3061 123.059 52.0709 122.75 50.8357C122.363 49.2917 121.667 48.0179 120.662 47.0143C119.348 45.9336 117.609 45.3546 115.445 45.2774C112.894 45.2002 109.802 45.895 106.169 47.3617C99.5987 49.9865 94.8835 52.8429 92.0235 55.9309C89.4726 58.6328 88.3132 61.5664 88.5451 64.7316C88.6997 67.3563 89.7818 70.2127 91.7916 73.3007C92.9511 75.1535 94.9608 77.7396 97.8208 81.0592C99.5214 83.0664 100.681 84.4946 101.299 85.3438C102.381 86.8106 103.077 88.0071 103.386 88.9335L99.5601 91.7127C96.3135 94.1831 93.1443 96.7307 90.0524 99.3554C85.6464 103.138 81.6269 106.921 77.9939 110.704C72.5057 116.262 67.9065 121.936 64.1961 127.726C60.1766 134.134 58.0123 139.383 57.7031 143.475C57.6258 144.71 58.4374 146.061 60.138 147.528C61.6066 148.917 63.4232 150.056 65.5875 150.944C67.7519 151.832 69.4911 152.16 70.8051 151.928C77.8393 150.693 84.7961 147.644 91.6756 142.78C98.0914 138.225 103.58 132.686 108.14 126.163C112.701 119.64 115.522 113.213 116.604 106.882C117.841 100.012 116.798 94.1445 113.474 89.2809L115.097 87.8913C116.488 86.8106 118.034 85.6912 119.735 84.5332C122.208 82.9892 124.837 81.5224 127.619 80.1328C131.02 78.4344 134.615 76.9677 138.402 75.7325V75.7325ZM105.241 93.9129L105.473 95.3025C105.705 96.5377 105.783 97.85 105.705 99.2396C105.551 101.324 105.164 103.486 104.546 105.724C103.696 108.504 102.497 111.321 100.951 114.178C99.0963 117.652 96.758 121.126 93.9366 124.6C91.1152 128.074 87.5788 131.47 83.3274 134.79C79.4625 137.955 75.8295 140.368 72.4284 142.027C69.0273 143.687 66.9402 144.092 66.1672 143.243C65.0078 142.008 65.7035 139.152 68.2543 134.674C70.5732 130.583 74.0517 125.719 78.6895 120.083C83.1728 114.602 87.8107 109.469 92.6032 104.682C97.6276 99.6642 101.84 96.0745 105.241 93.9129V93.9129ZM147.562 20.6122C148.335 19.4542 149.533 18.5664 151.157 17.9488C152.393 17.4084 153.862 17.061 155.563 16.9066C156.722 16.8294 157.959 16.8294 159.273 16.9066L160.896 17.1382L160.316 17.4856C159.853 17.7944 159.427 18.1418 159.041 18.5278C158.5 19.0682 158.075 19.6858 157.766 20.3806C155.679 25.0126 153.05 31.7675 149.881 40.6454C147.64 47.0529 145.243 54.1939 142.692 62.0682L139.562 71.9111L141.881 67.7423C143.736 64.4228 145.668 61.5278 147.678 59.0574C150.384 55.5063 152.973 52.9973 155.447 51.5305C158.461 49.6777 161.205 49.5233 163.679 51.0673C164.838 51.8393 165.418 53.2289 165.418 55.2361C165.418 57.2432 164.877 59.5592 163.795 62.184C162.713 64.8088 161.205 67.3177 159.273 69.7109C157.959 71.3321 156.413 72.9147 154.635 74.4587C153.398 75.6167 152.161 76.6589 150.925 77.5852L149.301 78.6274L149.533 81.5224C149.765 83.9156 150.19 86.3088 150.809 88.7019C151.659 92.1759 152.819 95.4183 154.287 98.429C156.065 102.212 158.268 105.57 160.896 108.504C162.21 109.97 163.524 111.167 164.838 112.093C165.843 112.943 166.848 113.56 167.853 113.946C168.549 114.255 169.167 114.448 169.708 114.525L170.404 114.641L169.476 115.567C168.626 116.339 167.698 116.88 166.694 117.188C165.379 117.729 164.027 117.845 162.635 117.536C160.858 117.15 159.118 116.185 157.418 114.641C153.553 111.013 150.306 106.882 147.678 102.25C145.514 98.4676 143.852 94.4533 142.692 90.2073C141.842 87.1194 141.262 84.07 140.953 81.0592C140.799 78.8204 140.779 77.4887 140.895 77.0642C141.011 76.6396 141.456 76.0799 142.229 75.3851C142.692 74.9219 143.62 74.1499 145.011 73.0691C148.954 69.9811 151.814 67.3563 153.591 65.1948C155.91 62.3384 157.611 59.9452 158.693 58.0152C159.853 55.8537 160.162 54.4255 159.621 53.7307C159.312 53.1903 158.558 53.1324 157.36 53.557C156.162 53.9816 154.751 54.9273 153.128 56.3941C151.273 58.0152 149.456 60.1382 147.678 62.763C144.432 67.3949 141.494 72.3743 138.866 77.701C136.779 81.947 134.924 86.3088 133.301 90.7863C132.064 93.9515 131.059 97.0394 130.286 100.05L129.359 103.524H128.199C127.349 103.524 126.537 103.408 125.764 103.177C124.605 102.868 123.638 102.328 122.865 101.556C121.938 100.552 121.319 99.2782 121.01 97.7343C120.701 96.6535 122.711 89.7055 127.04 76.8905C130.673 66.0054 134.808 54.1553 139.446 41.3402C144.084 28.6795 146.789 21.7702 147.562 20.6122V20.6122ZM214 75.7325C213.845 75.5009 213.729 75.3079 213.652 75.1535C213.266 74.6903 212.725 74.3429 212.029 74.1113C211.024 73.7253 209.749 73.6095 208.203 73.7639C204.956 73.9955 201.168 75.3079 196.84 77.701C193.748 79.3222 190.076 81.6768 185.825 84.7648C185.284 83.9928 183.66 82.5646 180.955 80.4802C177.786 78.0098 175.506 76.0799 174.114 74.6903C171.873 72.2971 170.713 70.0969 170.636 68.0897C170.636 65.6194 172.375 63.3806 175.853 61.3734C179.873 59.0574 186.25 57.0116 194.985 55.2361C196.762 54.9273 197.69 55.3519 197.767 56.5099V56.6256C198.077 56.4712 198.328 55.7765 198.521 54.5413C198.714 53.3061 198.656 52.0709 198.347 50.8357C197.961 49.2917 197.265 48.0179 196.26 47.0143C194.946 45.9336 193.207 45.3546 191.042 45.2774C188.492 45.2002 185.4 45.895 181.767 47.3617C175.196 49.9865 170.481 52.8429 167.621 55.9309C165.07 58.6328 163.911 61.5664 164.143 64.7316C164.297 67.3563 165.379 70.2127 167.389 73.3007C168.549 75.1535 170.558 77.7396 173.418 81.0592C175.119 83.0664 176.278 84.4946 176.897 85.3438C177.979 86.8106 178.675 88.0071 178.984 88.9335L175.158 91.7127C171.911 94.1831 168.742 96.7307 165.65 99.3554C161.244 103.138 157.224 106.921 153.591 110.704C148.103 116.262 143.504 121.936 139.794 127.726C135.774 134.134 133.61 139.383 133.301 143.475C133.223 144.71 134.035 146.061 135.736 147.528C137.204 148.917 139.021 150.056 141.185 150.944C143.349 151.832 145.089 152.16 146.403 151.928C153.437 150.693 160.394 147.644 167.273 142.78C173.689 138.225 179.177 132.686 183.738 126.163C188.298 119.64 191.12 113.213 192.202 106.882C193.439 100.012 192.395 94.1445 189.071 89.2809L190.695 87.8913C192.086 86.8106 193.632 85.6912 195.332 84.5332C197.806 82.9892 200.434 81.5224 203.217 80.1328C206.618 78.4344 210.212 76.9677 214 75.7325V75.7325ZM180.839 93.9129L181.071 95.3025C181.303 96.5377 181.38 97.85 181.303 99.2396C181.148 101.324 180.762 103.486 180.143 105.724C179.293 108.504 178.095 111.321 176.549 114.178C174.694 117.652 172.356 121.126 169.534 124.6C166.713 128.074 163.176 131.47 158.925 134.79C155.06 137.955 151.427 140.368 148.026 142.027C144.625 143.687 142.538 144.092 141.765 143.243C140.605 142.008 141.301 139.152 143.852 134.674C146.171 130.583 149.649 125.719 154.287 120.083C158.77 114.602 163.408 109.469 168.201 104.682C173.225 99.6642 177.438 96.0745 180.839 93.9129V93.9129Z"
  />
</svg>
