<svg width="26" height="47" viewBox="0 0 26 47" fill="none" xmlns="http://www.w3.org/2000/svg">
<path d="M2.46889 27.2933H7.40575V45.5293C7.40575 46.34 8.06257 46.998 8.87623 46.998L16.7325 47C17.5461 47 18.2029 46.34 18.2029 45.5313V27.2953H22.883C23.6241 27.2953 24.2495 26.743 24.3417 26.0086L25.3181 18.1753C25.4279 17.3019 24.7436 16.5244 23.8594 16.5244H18.2029C18.4245 11.6854 17.3501 10.2538 20.5008 10.2538C22.634 9.99925 25.9984 11.0783 25.9984 8.78508V1.78012C25.9984 1.04575 25.4553 0.424958 24.7279 0.325083C24.1123 0.240875 21.6791 0 18.6617 0C4.91771 0 7.7469 15.2202 7.40772 16.5225H2.46889C1.65718 16.5225 0.998413 17.1805 0.998413 17.9912V25.8245C0.998413 26.6353 1.65718 27.2933 2.46889 27.2933V27.2933ZM3.93936 19.4619H8.87623C9.68793 19.4619 10.3467 18.8039 10.3467 17.9932V11.8225C10.3467 6.17658 13.3759 2.93946 18.6598 2.93946C20.3812 2.93946 21.9654 3.02367 23.0555 3.10983V7.31829C22.2673 7.71975 15.26 5.58712 15.26 12.5999V17.9951C15.26 18.8059 15.9188 19.4639 16.7305 19.4639H22.1928L21.5811 24.3597H16.7305C15.9188 24.3597 15.26 25.0177 15.26 25.8285V44.0625H10.3487V25.8265C10.3487 25.0157 9.68989 24.3577 8.87819 24.3577H3.93936V19.4619Z" fill="black"/>
</svg>
