<svg width="48" height="47" viewBox="0 0 48 47" fill="none" xmlns="http://www.w3.org/2000/svg">
<path d="M10.3005 47H38.6963C43.8252 47 47.9984 42.8268 47.9984 37.6979V9.30208C47.9984 4.17321 43.8252 0 38.6963 0H10.3005C5.17162 0 0.998413 4.17321 0.998413 9.30208V37.6979C0.998413 42.8268 5.17162 47 10.3005 47ZM3.93591 9.30208C3.93591 5.79275 6.79116 2.9375 10.3005 2.9375H38.6963C42.2057 2.9375 45.0609 5.79275 45.0609 9.30208V37.6979C45.0609 41.2073 42.2057 44.0625 38.6963 44.0625H10.3005C6.79116 44.0625 3.93591 41.2073 3.93591 37.6979V9.30208Z" fill="black"/>
<path d="M24.4984 35.5048C31.1175 35.5048 36.5029 30.1194 36.5029 23.5002C36.5029 16.881 31.1175 11.4956 24.4984 11.4956C17.8792 11.4956 12.4938 16.881 12.4938 23.5002C12.4938 30.1194 17.8792 35.5048 24.4984 35.5048ZM24.4984 14.4331C29.498 14.4331 33.5654 18.5006 33.5654 23.5002C33.5654 28.4998 29.498 32.5673 24.4984 32.5673C19.4987 32.5673 15.4313 28.4998 15.4313 23.5002C15.4313 18.5006 19.4987 14.4331 24.4984 14.4331Z" fill="black"/>
<path d="M36.9494 14.4173C38.8803 14.4173 40.3354 12.9682 40.3354 11.047C40.3354 9.04367 38.804 7.67676 36.9514 7.67676C35.0205 7.67676 33.5654 9.12592 33.5654 11.047C33.5654 13.0465 35.089 14.4173 36.9494 14.4173ZM37.296 10.7239C37.9149 11.2703 36.5029 11.9342 36.5029 11.049C36.5029 10.5203 37.2216 10.6573 37.296 10.7239Z" fill="black"/>
</svg>
