<svg width="47" height="39" viewBox="0 0 47 39" fill="none" xmlns="http://www.w3.org/2000/svg">
<path d="M0.68268 33.9642C5.0341 36.7255 10.0983 38.1844 15.3271 38.1844C22.9842 38.1844 30.0009 35.243 35.0867 29.9026C39.9531 24.7914 42.6302 17.9235 42.497 10.9538C44.3418 9.37538 46.5116 6.3615 46.5116 3.424C46.5116 2.29796 45.2896 1.58317 44.2987 2.15696C42.5656 3.17529 40.9852 3.44163 39.3598 2.98534C36.0404 -0.24983 31.0995 -0.931331 26.9361 1.31292C23.2975 3.27125 21.2746 6.855 21.4567 10.7717C15.3095 10.0216 9.6303 6.93921 5.67055 2.14913C5.02039 1.36775 3.78664 1.45979 3.26964 2.34496C1.36222 5.61146 1.38181 9.39692 3.04051 12.4539C2.25131 12.5929 1.76368 13.2568 1.76368 13.9755C1.76368 17.0481 3.14626 19.872 5.37289 21.799C4.95772 22.1985 4.82064 22.7919 4.99689 23.3207C5.97605 26.2621 8.19289 28.5612 10.9639 29.7127C7.95005 31.152 4.61697 31.6318 1.6501 31.2676C0.114764 31.06 -0.643111 33.1241 0.68268 33.9642V33.9642ZM15.7286 30.216C16.8272 29.3719 16.2436 27.6133 14.8649 27.584C12.4366 27.533 10.2256 26.3365 8.84893 24.4545C9.5128 24.4115 10.2002 24.3096 10.8543 24.1334C12.3446 23.73 12.2741 21.5797 10.7603 21.2762C8.01272 20.7239 5.8566 18.7225 5.0478 16.1453C5.7861 16.3275 6.5381 16.4293 7.28814 16.443C8.77451 16.4508 9.33655 14.5454 8.12435 13.7483C5.39247 11.9486 4.22726 8.77025 4.99885 5.78184C9.76935 10.615 16.2416 13.527 23.088 13.856C24.0691 13.9168 24.8054 12.9944 24.59 12.0603C23.6598 8.02804 25.9119 5.20217 28.3304 3.89988C30.7235 2.60738 34.5658 2.20396 37.5111 5.29421C38.3865 6.21659 41.3396 6.25184 42.8417 5.90129C42.168 7.17029 41.1321 8.37467 40.1627 9.05225C39.7495 9.34209 39.5125 9.82384 39.538 10.3271C39.8533 16.7603 37.4563 23.1562 32.9619 27.8738C28.4342 32.6267 22.1734 35.245 15.3291 35.245C12.607 35.245 9.93776 34.8024 7.41543 33.9485C10.4313 33.365 13.2963 32.0881 15.7286 30.216V30.216Z" fill="black"/>
</svg>
