<svg width="48" height="31" viewBox="0 0 48 31" fill="none" xmlns="http://www.w3.org/2000/svg">
<path d="M24.7824 30.1875C31.5817 30.1875 29.1573 25.8831 29.6821 24.6454C29.6743 23.7211 29.6665 22.832 29.6978 22.2915C30.1286 22.4129 31.145 22.928 33.2443 24.9685C36.4854 28.239 37.3137 30.1875 39.932 30.1875H44.7515C46.279 30.1875 47.0741 29.555 47.4716 29.0243C47.8555 28.5112 48.2315 27.6103 47.8202 26.2082C46.7451 22.832 40.4745 17.002 40.0848 16.3871C40.1435 16.2735 40.2375 16.1228 40.2865 16.0444H40.2826C41.5202 14.4092 46.2437 7.33179 46.9389 4.50004C46.9409 4.49612 46.9429 4.49025 46.9429 4.48438C47.3189 3.19187 46.9742 2.35371 46.6178 1.87979C46.0812 1.17088 45.2274 0.8125 44.0739 0.8125H39.2545C37.6408 0.8125 36.4168 1.62521 35.798 3.10767C34.762 5.74163 31.852 11.1584 29.6704 13.0756C29.6038 10.3594 29.6488 8.2855 29.6841 6.74429C29.7546 3.73825 29.9817 0.8125 26.8621 0.8125H19.2873C17.3329 0.8125 15.4627 2.94708 17.4876 5.48117C19.2579 7.70192 18.124 8.93958 18.5059 15.1005C17.0176 13.5045 14.3699 9.19417 12.4977 3.68538C11.9729 2.19508 11.1778 0.814458 8.93945 0.814458H4.12C2.16558 0.814458 0.998413 1.87979 0.998413 3.66383C0.998413 7.67058 9.8677 30.1875 24.7824 30.1875V30.1875ZM8.93945 3.75196C9.36441 3.75196 9.4075 3.75196 9.72279 4.64692C11.64 10.2928 15.9405 18.647 19.0817 18.647C21.4415 18.647 21.4415 16.2285 21.4415 15.3179L21.4395 8.06812C21.3102 5.66917 20.4368 4.47458 19.863 3.75L26.7329 3.75783C26.7368 3.79113 26.6937 11.7772 26.7525 13.712C26.7525 16.4596 28.934 18.0341 32.3396 14.5874C35.9331 10.5317 38.4182 4.46871 38.5181 4.22196C38.665 3.86946 38.7923 3.75 39.2545 3.75H44.0739H44.0935C44.0915 3.75588 44.0915 3.76175 44.0896 3.76762C43.6489 5.82387 39.2995 12.3765 37.8445 14.4112C37.821 14.4425 37.7994 14.4758 37.7779 14.5091C37.1375 15.5548 36.6166 16.7103 37.866 18.3357H37.868C37.9815 18.4728 38.2772 18.7939 38.7081 19.2404C40.0476 20.623 44.6418 25.3504 45.0492 27.2304C44.7789 27.2735 44.4852 27.2422 39.932 27.252C38.9627 27.252 38.2048 25.8028 35.3123 22.8849C32.7117 20.3547 31.0236 19.3207 29.4863 19.3207C26.5018 19.3207 26.7192 21.7432 26.7466 24.6728C26.7564 27.8493 26.7368 26.8446 26.7583 27.0444C26.584 27.1129 26.0847 27.25 24.7824 27.25C12.3567 27.25 4.26491 7.52763 3.95354 3.75783C4.06125 3.74804 5.5437 3.75392 8.93945 3.75196V3.75196Z" fill="black"/>
</svg>
